<?xml version="1.0" standalone="no"?>
<!DOCTYPE svg PUBLIC "-//W3C//DTD SVG 1.1//EN" "http://www.w3.org/Graphics/SVG/1.1/DTD/svg11.dtd" >
<svg xmlns="http://www.w3.org/2000/svg">
<metadata>
This is a custom SVG webfont generated by Font Squirrel.
Copyright   : Copyright c 2012 Agustina Mingote agustinamingotegmailcom with Reserved Font Names Gudea
Designer    : Agustina Mingote
Foundry     : Agustina Mingote
</metadata>
<defs>
<font id="GudeaBold" horiz-adv-x="1030" >
<font-face units-per-em="2048" ascent="1638" descent="-410" />
<missing-glyph horiz-adv-x="512" />
<glyph unicode=" "  horiz-adv-x="512" />
<glyph unicode="&#x09;" horiz-adv-x="512" />
<glyph unicode="&#xa0;" horiz-adv-x="512" />
<glyph unicode="!" horiz-adv-x="544" d="M139 0v256h267v-256h-267zM139 389v1045h267v-1045h-267z" />
<glyph unicode="&#x22;" horiz-adv-x="774" d="M111 903v531h227v-531h-227zM436 903v531h228v-531h-228z" />
<glyph unicode="#" horiz-adv-x="1267" d="M43 371v204h242q4 51 16 157t18 173h-225v203h244l35 328h227l-35 -328h230l34 328h224l-31 -328h182v-203h-205l-32 -330h184v-204h-205q-6 -61 -20.5 -190.5t-18.5 -180.5h-225l39 371h-229q-4 -43 -19.5 -175.5t-21.5 -195.5h-226l39 371h-221zM510 575h229 q31 244 39 330h-231q-4 -33 -17.5 -146.5t-19.5 -183.5z" />
<glyph unicode="$" horiz-adv-x="1040" d="M86 162l66 184q174 -76 346 -76q96 0 151.5 45t55.5 127q0 66 -61.5 110t-148.5 73.5t-174.5 68.5t-148.5 120t-61 202q0 150 78.5 235.5t207.5 100.5v178h215v-178q55 -8 120 -26.5t102 -34.5l36 -15l-49 -205l-95 37q-130 43 -226 43q-129 0 -129 -131q0 -68 61.5 -112 t148.5 -72.5t173 -66.5t147.5 -120t61.5 -207q0 -160 -91.5 -258t-259.5 -118v-189h-215v184q-166 10 -311 101z" />
<glyph unicode="%" horiz-adv-x="1509" d="M61 1071q0 150 72.5 252t224.5 102q303 0 304 -354q0 -346 -308 -346q-150 0 -221.5 93t-71.5 253zM184 0l795 1409h283l-795 -1409h-283zM276 1073q0 -164 82 -164q88 0 88 164q0 74 -21.5 121t-64.5 47q-39 0 -61.5 -48t-22.5 -120zM819 334q0 150 72.5 252t224.5 102 q303 0 303 -354q0 -346 -307 -346q-150 0 -221.5 93t-71.5 253zM1034 336q0 -164 82 -164q88 0 88 164q0 74 -21.5 121t-64.5 47q-39 0 -61.5 -48t-22.5 -120z" />
<glyph unicode="&#x26;" horiz-adv-x="1548" d="M100 395q0 94 32 163t81 112t137 96q-90 106 -132 183t-42 155q0 154 117 252t297 98q184 0 293.5 -91t109.5 -237q0 -117 -62.5 -204.5t-201.5 -173.5l285 -275q45 96 45 266h229q-8 -125 -23.5 -213t-29.5 -127t-43 -98l293 -299h-348l-107 100q-68 -49 -186.5 -82.5 t-241.5 -33.5q-244 0 -373 110.5t-129 298.5zM356 383q0 -82 66.5 -132t179.5 -50q76 0 147.5 25.5t102.5 56.5l-317 319q-178 -92 -179 -219zM432 1133q0 -18 3 -35t12.5 -35.5t15.5 -30.5t22.5 -32.5t24.5 -31t28.5 -35t28.5 -34.5q176 102 176 238q0 51 -45 76.5 t-114 25.5q-66 0 -109 -27.5t-43 -78.5z" />
<glyph unicode="'" horiz-adv-x="378" d="M76 903v531h227v-531h-227z" />
<glyph unicode="(" horiz-adv-x="612" d="M82 637q0 500 283 928l217 -27q-203 -434 -203 -907q0 -436 199 -873l-224 -24q-272 426 -272 903z" />
<glyph unicode=")" horiz-adv-x="612" d="M31 1538l217 27q282 -428 282 -928q0 -477 -272 -903l-223 24q199 436 198 873q0 473 -202 907z" />
<glyph unicode="*" horiz-adv-x="880" d="M41 975l213 102l-211 103l109 174l184 -133q-2 43 -8 126t-9 107h205l-22 -233l196 133l97 -183l-207 -92l207 -94l-97 -182l-196 131l22 -232h-205l17 234l-195 -131z" />
<glyph unicode="+" horiz-adv-x="960" d="M57 496v215h295v368h236v-368h313v-215h-313v-355h-236v355h-295z" />
<glyph unicode="," horiz-adv-x="499" d="M0 -299l178 526l256 -84l-231 -508z" />
<glyph unicode="-" horiz-adv-x="587" d="M57 479v236h473v-236h-473z" />
<glyph unicode="." horiz-adv-x="374" d="M70 0v279h235v-279h-235z" />
<glyph unicode="/" horiz-adv-x="1005" d="M76 -297l604 1935h264l-602 -1935h-266z" />
<glyph unicode="0" horiz-adv-x="1187" d="M92 721q0 147 24.5 270t80 231.5t160 170t249.5 61.5q492 0 492 -733q0 -117 -14.5 -217.5t-50.5 -197.5t-92 -165.5t-148.5 -110.5t-210.5 -42q-489 0 -490 733zM348 721q0 -225 58.5 -366.5t189.5 -141.5q68 0 117 40t76.5 111.5t40 159t12.5 193.5v8q0 504 -246 504 q-131 0 -189.5 -141.5t-58.5 -366.5z" />
<glyph unicode="1" horiz-adv-x="1062" d="M37 1169l397 265h256v-1229h283v-205h-907v205h368v964l-301 -196z" />
<glyph unicode="2" horiz-adv-x="1073" d="M96 0v209q328 326 477.5 524.5t149.5 345.5q0 150 -217 150q-176 0 -344 -53l-39 210q164 68 379 68q236 0 357.5 -93t121.5 -257q0 -176 -130 -381t-398 -498h530l-2 -225h-885z" />
<glyph unicode="3" horiz-adv-x="1081" d="M80 84l82 207q164 -78 336 -78q117 0 181 51t64 135q0 100 -70.5 158.5t-199.5 58.5h-215v226h215q104 0 164.5 60.5t60.5 150.5q0 176 -202 176q-70 0 -152 -20.5t-130 -42.5l-48 -21l-49 211q18 10 52 26.5t132 44t188 27.5q229 0 342 -103.5t113 -281.5 q0 -125 -59.5 -218t-153.5 -116q113 -18 186.5 -101t73.5 -210q0 -205 -136 -320.5t-382 -115.5q-221 0 -388 93q-6 3 -5 3z" />
<glyph unicode="4" horiz-adv-x="1105" d="M10 227v193l449 1014h256l-434 -981h356v329h240v-329h139v-226h-139v-227h-240v227h-627z" />
<glyph unicode="5" horiz-adv-x="1142" d="M109 96l77 191q180 -82 353 -82q129 0 198.5 64.5t69.5 181.5q0 246 -291 245l-332 2l49 736h773l-11 -215h-528l-23 -299q45 2 88 2q236 0 378.5 -120t142.5 -331q0 -223 -135.5 -353t-391.5 -130q-223 0 -410 104q-8 4 -7 4z" />
<glyph unicode="6" horiz-adv-x="1179" d="M127 635q0 180 25.5 318.5t86 256t175 181t278.5 63.5q86 0 168 -16.5t122 -33.5l40 -18l-57 -204q-143 55 -291 55q-281 0 -307 -385q131 55 256 55q223 0 345 -116.5t122 -337.5q0 -209 -126 -337t-341 -128q-496 0 -496 647zM362 616q0 -207 63 -310t208 -103 q100 0 160.5 66.5t60.5 166.5q0 256 -240 256q-125 0 -252 -76z" />
<glyph unicode="7" horiz-adv-x="1038" d="M33 1198v236h964v-236l-614 -1198h-272l602 1198h-680z" />
<glyph unicode="8" horiz-adv-x="1177" d="M106 379q0 74 27 139.5t70 111.5t75.5 71.5t65.5 43.5q-190 117 -190 318q0 186 123.5 288.5t338.5 102.5q199 0 317 -99.5t118 -238.5q0 -147 -58.5 -250.5t-124.5 -160.5q104 -57 161.5 -129t57.5 -179q0 -195 -133 -302t-379 -107q-231 0 -350 112.5t-119 278.5z M342 387q0 -84 62.5 -136t191.5 -52q111 0 183.5 49t72.5 131q0 49 -21.5 87t-69.5 69.5t-92 52t-120 51.5q-27 -14 -54.5 -31.5t-66.5 -50.5t-62.5 -77t-23.5 -93zM385 1083q0 -53 20.5 -94t71.5 -76.5t85 -53t112 -52.5q145 124 145 278q0 66 -57 110t-150 44 q-98 0 -162.5 -43t-64.5 -113z" />
<glyph unicode="9" horiz-adv-x="1140" d="M88 989q0 209 126 337t341 128q496 0 496 -647q0 -180 -26 -318.5t-86 -256t-175 -181t-279 -63.5q-86 0 -167.5 16t-121.5 34l-40 17l57 205q143 -55 291 -55q279 0 305 385q-117 -55 -254 -55q-223 0 -345 116.5t-122 337.5zM324 1006q0 -256 239 -256q121 0 252 73v8 q0 203 -62.5 305.5t-207.5 102.5q-100 0 -160.5 -66.5t-60.5 -166.5z" />
<glyph unicode=":" horiz-adv-x="444" d="M94 0v299h256v-299h-256zM94 725v299h256v-299h-256z" />
<glyph unicode=";" horiz-adv-x="565" d="M-14 -285l184 629l250 -80l-232 -612zM162 725v299h256v-299h-256z" />
<glyph unicode="&#x3c;" horiz-adv-x="1081" d="M104 510v199l844 419v-245l-571 -273l571 -276v-242z" />
<glyph unicode="=" horiz-adv-x="1187" d="M133 313v215h922v-215h-922zM133 678v215h922v-215h-922z" />
<glyph unicode="&#x3e;" horiz-adv-x="1081" d="M131 92v246l571 272l-571 277v241l844 -417v-199z" />
<glyph unicode="?" horiz-adv-x="948" d="M143 1399q176 55 318 55q174 0 274.5 -89t100.5 -241q0 -94 -31 -167.5t-75 -119.5t-88 -88t-74.5 -97.5t-30.5 -125.5v-129h-254v119q0 94 30.5 168t73.5 121t87 89t75 95t31 119q0 109 -146 109q-133 0 -248 -39zM279 0v283h256v-283h-256z" />
<glyph unicode="@" horiz-adv-x="1857" d="M135 428q0 1026 842 1026q743 0 743 -647q0 -356 -174 -498.5t-512 -142.5l-16 74q-121 -84 -223 -84q-139 0 -211 79.5t-72 208.5q0 152 45 275t115.5 192.5t147.5 106.5t151 37q41 0 77.5 -10.5t53 -18.5t42 -26.5t27.5 -18.5l33 51h146l-129 -674q285 0 284 457 q0 424 -530 424q-319 0 -467 -190.5t-148 -573.5q0 -266 110 -388t353 -122h351l8 -192q-174 -16 -367 -17q-680 0 -680 672zM721 461q0 -102 98 -103q53 0 93 18.5t112 65.5l68 365q-2 0 -35 17.5t-74 17.5q-119 0 -190.5 -118t-71.5 -263z" />
<glyph unicode="A" horiz-adv-x="1185" d="M-14 0l430 1434h350l434 -1434h-295l-102 350h-432l-101 -350h-284zM430 586h318l-158 590z" />
<glyph unicode="B" horiz-adv-x="1202" d="M145 0v1434h451q240 0 358.5 -95.5t118.5 -271.5q0 -119 -66.5 -196.5t-181.5 -94.5q145 -25 225 -117t80 -229q0 -195 -145 -312.5t-403 -117.5h-437zM428 236h203q98 0 157.5 52t59.5 130q0 100 -66.5 166.5t-193.5 66.5h-160v-415zM428 885h158q80 0 142.5 49 t62.5 127q-1 127 -185 137h-178v-313z" />
<glyph unicode="C" horiz-adv-x="1196" d="M61 723q0 336 177.5 532.5t492.5 196.5q172 0 342 -59l-57 -230q-125 53 -295 53q-1 0 -1 1q-170 1 -266 -129t-96 -343q0 -242 90.5 -382t253.5 -140q123 0 351 80l61 -209q-186 -106 -405 -106q-313 0 -480.5 197.5t-167.5 537.5z" />
<glyph unicode="D" horiz-adv-x="1325" d="M145 0v1434h445q305 0 489.5 -186.5t184.5 -479.5q0 -346 -201 -557t-537 -211h-381zM434 236h111q172 0 290.5 146t118.5 402q0 193 -104.5 303.5t-251.5 110.5h-164v-962z" />
<glyph unicode="E" horiz-adv-x="1110" d="M145 0v1434h854v-236h-557v-301h506v-240h-506v-421h557v-236h-854z" />
<glyph unicode="F" horiz-adv-x="1044" d="M145 0v1434h856v-236h-559v-301h510v-240h-510v-657h-297z" />
<glyph unicode="G" horiz-adv-x="1323" d="M53 723q0 336 177.5 533.5t492.5 197.5q209 0 424 -74l-37 -229q-78 29 -203 48.5t-194 19.5q-170 0 -266.5 -130.5t-96.5 -343.5q0 -229 103.5 -375.5t265.5 -146.5q94 0 172 41v279h-238v235h535v-680q-216 -110 -447 -110q-315 0 -501.5 200.5t-186.5 534.5z" />
<glyph unicode="H" horiz-adv-x="1359" d="M145 0v1434h297v-572h476v572h296v-1434h-296v627h-476v-627h-297z" />
<glyph unicode="I" horiz-adv-x="526" d="M115 0v1434h297v-1434h-297z" />
<glyph unicode="J" horiz-adv-x="702" d="M-39 8v232q10 0 68.5 -9.5t113.5 -9.5q117 0 117 246v743h-235v224h532v-1002q0 -446 -350 -446q-129 0 -246 22z" />
<glyph unicode="K" horiz-adv-x="1173" d="M145 0v1434h295v-525l394 525h352l-455 -545l447 -889h-336l-318 662l-82 -93v-569h-297z" />
<glyph unicode="L" horiz-adv-x="968" d="M145 0v1434h297v-1198h553v-236h-850z" />
<glyph unicode="M" horiz-adv-x="1509" d="M74 0v1434h315l367 -768l383 768h297v-1434h-297v889l-256 -553h-258l-256 551v-887h-295z" />
<glyph unicode="N" horiz-adv-x="1390" d="M145 0v1434h304l499 -926v926h297v-1436h-311l-485 883v-881h-304z" />
<glyph unicode="O" horiz-adv-x="1327" d="M53 727.5q0 321.5 154.5 524t454.5 202.5q301 0 456.5 -202.5t155.5 -524.5q0 -207 -63.5 -369.5t-204.5 -265t-344 -102.5q-301 0 -455 208t-154 529.5zM352 727q0 -215 80 -357.5t232 -142.5q158 0 235.5 144.5t77.5 365.5q0 195 -83 338.5t-228 143.5 q-109 0 -182.5 -75t-102.5 -181.5t-29 -235.5z" />
<glyph unicode="P" horiz-adv-x="1107" d="M145 0v1434h451q252 0 364.5 -107.5t112.5 -327.5q0 -229 -138 -338.5t-386 -109.5h-107v-551h-297zM442 784h33q156 0 228.5 47.5t72.5 163.5q0 106 -59.5 155.5t-190.5 49.5h80h-164v-416z" />
<glyph unicode="Q" horiz-adv-x="1333" d="M53 727q0 322 154.5 524.5t454.5 202.5q301 0 456.5 -202.5t155.5 -524.5q0 -307 -131 -500l190 -196l-162 -162l-194 207q-125 -90 -315 -90q-203 0 -343.5 103.5t-203 266t-62.5 371.5zM352 727q0 -215 80 -359.5t232 -144.5q80 0 129 37l-99 107l164 161l66 -79 q53 104 53 288q0 195 -83 339.5t-230 144.5q-160 0 -236 -143.5t-76 -350.5z" />
<glyph unicode="R" horiz-adv-x="1234" d="M145 2v1434h455q231 0 346 -101.5t115 -290.5q0 -115 -80 -210t-195 -109q82 -23 127 -75t95 -169l202 -479h-305l-198 459q-43 98 -91.5 130t-148.5 32h-25v-621h-297zM442 856h129q82 0 128 53.5t46 132.5q0 160 -153 160h-150v-346z" />
<glyph unicode="S" horiz-adv-x="1128" d="M72 100l88 219q188 -86 372 -86q104 0 164 48.5t60 134.5q0 66 -67.5 116t-164 90t-192.5 90t-164 141t-68 216q0 186 117 285.5t320 99.5q192 0 411 -72l-49 -239l-127 35q-134 30 -235 30q-139 0 -140 -133q0 -51 48.5 -93t122 -69.5t157.5 -68.5t157.5 -88t122 -129 t48.5 -189q0 -211 -136.5 -330.5t-384.5 -119.5q-127 0 -252.5 33.5t-207.5 78.5z" />
<glyph unicode="T" horiz-adv-x="1032" d="M41 1194v240h950v-240h-325v-1194h-295v1194h-330z" />
<glyph unicode="U" horiz-adv-x="1359" d="M145 528v906h299v-930q0 -135 60.5 -208t175.5 -73q111 0 173 73t62 208v930h299v-906q0 -268 -137 -404t-397 -136t-397.5 136t-137.5 404z" />
<glyph unicode="V" horiz-adv-x="1118" d="M-14 1434h315l248 -1055l272 1055h312l-422 -1434h-338z" />
<glyph unicode="W" horiz-adv-x="1538" d="M-14 1434h319l168 -1055l170 665h279l149 -665l176 1055h305l-340 -1434h-301l-127 627l-174 -627h-291z" />
<glyph unicode="X" horiz-adv-x="1196" d="M0 0l455 754l-412 680h338l227 -422l238 422h328l-418 -680l440 -754h-332l-262 502l-272 -502h-330z" />
<glyph unicode="Y" horiz-adv-x="1130" d="M-14 1434h313l260 -562l277 562h309l-440 -830v-604h-297v604z" />
<glyph unicode="Z" horiz-adv-x="1040" d="M39 1198v236h919v-220l-587 -976h651v-238h-981v229l594 969h-596z" />
<glyph unicode="[" horiz-adv-x="696" d="M166 -410v2048h465v-215h-209v-1620h215v-213h-471z" />
<glyph unicode="\" horiz-adv-x="991" d="M59 1638h265l604 -1935h-266z" />
<glyph unicode="]" horiz-adv-x="696" d="M59 -197h215v1620h-208v215h464v-2048h-471v213z" />
<glyph unicode="^" horiz-adv-x="1308" d="M115 563l420 803h237l418 -803h-281l-256 510l-252 -510h-286z" />
<glyph unicode="_" horiz-adv-x="880" d="M0 -268h881v-215h-881v215z" />
<glyph unicode="`" horiz-adv-x="800" d="M115 1413l235 94l211 -280l-180 -66z" />
<glyph unicode="a" d="M82 315q0 156 118.5 243t358.5 87h84q0 88 -42 141.5t-128 53.5q-150 0 -303 -41l-45 180q200 65 401 65h6q373 0 373 -348v-696h-196l-41 102q-72 -66 -127.5 -91t-132.5 -25q-131 0 -228.5 91t-97.5 238zM354 326q0 -55 31 -92t80 -37q70 0 174 110v142h-88 q-115 0 -156 -31t-41 -92z" />
<glyph unicode="b" horiz-adv-x="1105" d="M166 0v1434h266v-504q157 114 271 114h2q158 0 253 -134t95 -382q0 -258 -108.5 -393t-278.5 -135q-131 0 -258 115l-39 -115h-203zM432 319q109 -92 178 -92q84 0 132.5 74t48.5 221q0 285 -173 285q-78 0 -186 -92v-396z" />
<glyph unicode="c" horiz-adv-x="880" d="M72 512q0 252 116.5 392t339.5 140q131 0 299 -49l-96 -186q-113 35 -196 35q-63 0 -105.5 -29t-61 -82t-24.5 -100t-6 -113q0 -180 63.5 -251.5t194.5 -71.5h8q106 0 197 26l33 -184q-178 -51 -283 -51q-254 0 -366.5 133t-112.5 391z" />
<glyph unicode="d" horiz-adv-x="1110" d="M66 504q0 266 103 403t271 137q111 0 238 -102v492h264v-1434h-201l-41 117q-172 -129 -299 -129q-154 0 -244.5 132t-90.5 384zM332 512q0 -287 155 -287q80 0 189 90v408q-109 90 -180 90q-76 0 -120 -75.5t-44 -225.5z" />
<glyph unicode="e" horiz-adv-x="1013" d="M70 508q0 264 116.5 400t339.5 136q184 0 295 -114.5t111 -339.5q0 -90 -8 -158h-592q0 -121 65.5 -178t176 -57t292.5 49l45 -183q-192 -75 -356 -75h-4q-481 0 -481 520zM330 621h346v14q0 94 -41 151.5t-129 57.5t-131 -63.5t-45 -159.5z" />
<glyph unicode="f" horiz-adv-x="665" d="M72 805v219h118v156q0 131 75 202.5t190 71.5q147 0 221 -18l-35 -191q-51 10 -88 10q-51 0 -75.5 -26.5t-24.5 -98.5v-106h168v-219h-168v-805h-265v805h-116z" />
<glyph unicode="g" horiz-adv-x="1116" d="M66 504q0 266 103 403t271 137q117 0 246 -104l39 84h227v-1092q0 -102 -33.5 -181t-82 -122t-113 -69.5t-114.5 -33.5t-99 -7q-231 0 -404 71l39 189q158 -49 308 -49q49 0 84.5 5t77.5 22.5t66 58.5t24 104v199q-174 -131 -304 -131q-154 0 -244.5 132t-90.5 384z M332 512q0 -287 155 -287q90 0 199 90v408q-109 90 -190 90q-76 0 -120 -75.5t-44 -225.5z" />
<glyph unicode="h" horiz-adv-x="1198" d="M166 0v1434h266v-502q88 66 152.5 89t150.5 23q137 0 217 -91t80 -269v-684h-266v612q0 84 -33 136.5t-100 52.5q-88 0 -201 -94v-707h-266z" />
<glyph unicode="i" horiz-adv-x="581" d="M158 0v1024h266v-1024h-266zM158 1178v256h266v-256h-266z" />
<glyph unicode="j" horiz-adv-x="565" d="M61 -360q84 109 84 348v1036h263v-987q0 -319 -189 -520zM143 1178v256h267v-256h-267z" />
<glyph unicode="k" horiz-adv-x="1112" d="M166 0v1434h266v-781l320 371h301l-375 -418l407 -606h-288l-277 442l-88 -102v-340h-266z" />
<glyph unicode="l" horiz-adv-x="618" d="M166 0v1434h266v-1434h-266z" />
<glyph unicode="m" horiz-adv-x="1736" d="M166 0v1024h225l35 -92q88 66 152.5 89t150.5 23q156 0 227 -141q115 84 185.5 112.5t154.5 28.5q127 0 201 -93t74 -273v-678h-268v606q0 188 -113 189q-84 0 -193 -95v-700h-266v606q0 188 -110 189q-82 0 -187 -88v-707h-268z" />
<glyph unicode="n" horiz-adv-x="1200" d="M166 0v1024h225l43 -92q88 66 152.5 89t150.5 23q137 0 217 -91t80 -269v-684h-270v612q0 84 -33 136.5t-100 52.5q-84 0 -197 -94v-707h-268z" />
<glyph unicode="o" horiz-adv-x="1079" d="M66 512q0 248 118.5 390t342 142t354.5 -144t131 -388q0 -248 -125 -387t-361 -139q-223 0 -341.5 139t-118.5 387zM334 514q0 -309 207 -309q111 0 154.5 78.5t43.5 230.5q0 313 -200 313q-205 0 -205 -313z" />
<glyph unicode="p" horiz-adv-x="1118" d="M166 -485v1509h203l49 -109q76 63 138 96t140 33q170 0 259 -141t89 -389q0 -260 -114.5 -394t-270.5 -134q-113 0 -227 98v-569h-266zM432 334q66 -106 172 -107q88 0 126 70t38 213t-41 221t-102 78q-89 0 -193 -100v-375z" />
<glyph unicode="q" horiz-adv-x="1110" d="M66 485q0 254 95 406.5t300 152.5q115 0 227 -116l53 96h203v-1507h-266v577q-2 -2 -22.5 -20.5t-37 -29.5t-45 -26.5t-66.5 -23.5t-83 -8q-154 0 -256 120.5t-102 378.5zM332 522q0 -63 6 -111.5t23.5 -94.5t54.5 -70.5t90 -24.5q51 0 98 28t74 75v391 q-29 37 -89.5 65.5t-115.5 28.5q-74 0 -107.5 -67.5t-33.5 -219.5z" />
<glyph unicode="r" horiz-adv-x="800" d="M166 0v1024h213l24 -100q82 66 137.5 93t123.5 27q16 0 30.5 -1t24.5 -3t18 -4t13 -3l4 -1l-25 -244q-37 12 -100 13q-86 0 -195 -121v-680h-268z" />
<glyph unicode="s" horiz-adv-x="909" d="M90 76l57 196q138 -69 273 -69q153 0 153 105q0 56 -48 91t-116.5 54.5t-137 45t-117 84t-48.5 150.5q0 150 92.5 230.5t258.5 80.5q164 0 311 -57l-43 -213l-7 3q-7 3 -21.5 8.5t-34 11.5t-43 11t-49 10t-54.5 8t-55 3q-90 0 -90 -61q0 -33 34.5 -57.5t86 -38t113 -38 t112.5 -56t86 -93t35 -147.5q0 -162 -108.5 -256t-301.5 -94q-188 0 -338 88z" />
<glyph unicode="t" horiz-adv-x="708" d="M51 799v225h107v293h264v-293h215v-225h-217v-447q0 -137 84 -137q47 0 100 12l43 -213q-91 -26 -166 -26h-6q-133 0 -226 54t-93 179v578h-105z" />
<glyph unicode="u" horiz-adv-x="1179" d="M145 346v678h271v-627q0 -84 32.5 -136t100.5 -52q84 0 196 94v721h269v-1024h-226l-43 98q-88 -66 -152.5 -88t-150.5 -22q-137 0 -217 90t-80 268z" />
<glyph unicode="v" horiz-adv-x="952" d="M2 1024h277l198 -758l201 758h272l-325 -1024h-299z" />
<glyph unicode="w" horiz-adv-x="1411" d="M2 1024h262l146 -760l170 760h254l172 -768l141 768h262l-254 -1024h-293l-155 686l-158 -686h-289z" />
<glyph unicode="x" horiz-adv-x="933" d="M29 0l299 522l-287 502h272l154 -279l154 279h272l-287 -502l299 -522h-272l-166 324l-166 -324h-272z" />
<glyph unicode="y" horiz-adv-x="931" d="M2 1024h266l199 -707l201 707h262l-342 -1024q-63 -188 -159.5 -301t-242.5 -182l-98 188q82 35 153.5 106t96.5 169z" />
<glyph unicode="z" horiz-adv-x="862" d="M80 0v205l393 604h-393v215h670v-205l-396 -604h420v-215h-694z" />
<glyph unicode="{" horiz-adv-x="729" d="M41 508v217q90 0 124 48t34 151v307q0 410 426 409h63v-213h-61q-96 0 -130 -47t-34 -170v-313q0 -141 -28.5 -194.5t-127.5 -79.5q90 -18 123 -80t33 -191v-309q0 -143 37 -192.5t133 -49.5h55v-213h-67q-203 0 -312.5 92.5t-109.5 309.5v307q0 211 -158 211z" />
<glyph unicode="|" horiz-adv-x="595" d="M180 -416v2054h236v-2054h-236z" />
<glyph unicode="}" horiz-adv-x="729" d="M41 -199h61q96 0 130 47.5t34 169.5v314q0 141 29 194.5t127 79.5q-90 18 -123 80t-33 191v309q0 143 -36.5 192t-133.5 49h-55v213h68q203 0 312 -92t109 -309v-307q0 -211 158 -211v-217q-90 0 -124 -48t-34 -151v-307q0 -410 -426 -410h-63v213z" />
<glyph unicode="~" horiz-adv-x="1079" d="M90 621q43 63 112.5 106t147.5 43q94 0 205 -61.5t184.5 -61.5t157.5 74l113 -141q-43 -80 -118 -124t-163 -44q-94 0 -204.5 60t-184.5 60t-158 -79z" />
<glyph unicode="&#xa1;" horiz-adv-x="544" d="M150 -217v1044h266v-1044h-266zM150 961v256h266v-256h-266z" />
<glyph unicode="&#xa2;" horiz-adv-x="780" d="M49 627q0 348 234 415v199h215v-197q96 0 217 -38l-64 -205q-80 27 -170 26q-109 0 -152.5 -45t-43.5 -155q0 -117 40 -169t140 -52q84 -1 201 30l47 -211q-115 -37 -215 -37v-188h-215v193q-233 74 -234 434z" />
<glyph unicode="&#xa3;" horiz-adv-x="1105" d="M82 625v225h139v371q0 125 91 180t223 55q90 0 213 -39l-43 -223q-61 23 -142 23q-39 0 -62.5 -37t-23.5 -107v-223h322v-225h-322v-389h537v-236h-793v625h-139z" />
<glyph unicode="&#xa4;" horiz-adv-x="1245" d="M72 961l190 190l111 -111q90 43 237 43q160 0 262 -57l129 129l177 -176l-136 -135q51 -94 52 -242q0 -135 -47 -240l127 -126l-191 -191l-123 121q-95 -41 -242 -41q-156 0 -247 49l-113 -113l-174 177l119 118q-47 104 -47 246q0 131 37 236zM401 596 q0 -111 59.5 -183.5t155.5 -72.5q111 0 171.5 67.5t60.5 188.5t-61.5 196.5t-172.5 75.5q-104 0 -158.5 -76.5t-54.5 -195.5z" />
<glyph unicode="&#xa5;" horiz-adv-x="1249" d="M45 1434h313l260 -562l277 562h309l-411 -777h325v-215h-354v-96h354v-215h-354v-131h-297v131h-309v215h309v96h-309v215h282z" />
<glyph unicode="&#xa6;" horiz-adv-x="595" d="M180 412h236v-828h-236v828zM180 846v792h236v-792h-236z" />
<glyph unicode="&#xa7;" horiz-adv-x="1236" d="M115 639q0 174 223 338q-55 76 -55 174q0 156 98 229.5t301 73.5q74 0 151.5 -14.5t118.5 -27.5l41 -13l-35 -209q-137 49 -280 49q-37 0 -66.5 -23.5t-29.5 -70.5q0 -61 54 -114.5t133 -96.5t157 -91t133 -125t55 -173t-39 -162t-137 -143q106 -92 106 -242 q0 -139 -124.5 -229.5t-346.5 -90.5q-84 0 -186 27t-166 62l60 215q152 -88 311 -88q156 0 156 110q0 82 -65 142.5t-158 100.5t-186 84t-158.5 121.5t-65.5 186.5zM412 639q0 -53 54 -89t154.5 -71t143.5 -59q4 4 11 12t10 11t9.5 11.5t8.5 13.5t5 13t5 16.5t3 19.5t1 24 q0 61 -42 101t-140 84.5t-131 64.5q-92 -78 -92 -152z" />
<glyph unicode="&#xa8;" horiz-adv-x="1050" d="M160 1421v269h248v-269h-248zM608 1421v269h248v-269h-248z" />
<glyph unicode="&#xa9;" horiz-adv-x="1128" d="M94 520q0 264 115 413.5t340 149.5t354 -151.5t129 -411.5q0 -258 -125 -408.5t-350 -150.5t-344 149.5t-119 409.5zM268 514q0 -180 79 -295t208 -115q147 0 225 109t78 301q0 190 -81 308t-224 118t-214 -116.5t-71 -309.5zM309 524q0 139 68.5 213t204.5 74 q29 0 56.5 -4t43.5 -9t42 -13.5t32 -10.5l-54 -133q-39 18 -106 18q-57 0 -78.5 -28.5t-21.5 -100.5q0 -158 98 -157q66 0 125 20l31 -141q-96 -29 -175 -29q-133 0 -199.5 80t-66.5 221z" />
<glyph unicode="&#xaa;" horiz-adv-x="743" d="M76 928q0 219 293 219l53 -2q0 84 -17.5 106.5t-76.5 22.5q-115 0 -201 -29l-18 152q117 37 243 37q272 0 273 -230v-465h-160l-33 37q-70 -43 -143 -43q-100 0 -156.5 53.5t-56.5 141.5zM80 479v172h551v-172h-551zM279 934q0 -43 32 -43q51 0 105 31v71h-68 q-41 0 -55 -13t-14 -46z" />
<glyph unicode="&#xab;" horiz-adv-x="1046" d="M80 606l285 463l194 -88l-201 -371l201 -374l-197 -89zM479 606l264 443l195 -88l-180 -351l180 -354l-197 -88z" />
<glyph unicode="&#xac;" horiz-adv-x="1060" d="M37 510v215h960v-469h-256v254h-704z" />
<glyph unicode="&#xad;" horiz-adv-x="819" d="M0 485v215h819v-215h-819z" />
<glyph unicode="&#xae;" horiz-adv-x="1128" d="M115 895q0 264 109.5 413.5t324.5 149.5q217 0 340 -151.5t123 -411.5q0 -258 -120 -408.5t-335 -150.5t-328.5 149.5t-113.5 409.5zM289 889q0 -180 73.5 -295t192.5 -115q139 0 216 109.5t77 300.5q0 188 -80 307t-215 119q-133 0 -198.5 -117t-65.5 -309zM381 625v571 h176q195 0 195 -147q0 -47 -23.5 -88t-54.5 -46q33 -10 47 -27.5t31 -70.5l28 -192h-135l-29 161q-14 86 -57 86h-24v-247h-154zM535 993h22q51 0 51 56q0 32 -49 32h-24v-88z" />
<glyph unicode="&#xaf;" horiz-adv-x="1017" d="M139 1217v215h731v-215h-731z" />
<glyph unicode="&#xb0;" horiz-adv-x="925" d="M119 1249q0 141 100 240.5t242 99.5q143 0 242.5 -98.5t99.5 -241.5q0 -141 -100.5 -240.5t-241.5 -99.5q-143 0 -242.5 98.5t-99.5 241.5zM301 1253q0 -70 46 -118t111.5 -48t111.5 48t46 118q0 68 -46 116t-111.5 48t-111.5 -48t-46 -116z" />
<glyph unicode="&#xb1;" d="M74 -2v215h884v-215h-884zM74 690v215h315v369h236v-369h333v-215h-333v-354h-236v354h-315z" />
<glyph unicode="&#xb2;" horiz-adv-x="892" d="M186 662v126q115 104 166 154.5t91 108t40 102.5q0 53 -84 53q-43 0 -90 -7t-72 -14l-26 -7l14 143q111 35 217 35q119 0 180.5 -44t61.5 -118q0 -90 -49 -173t-172 -202h254l-19 -157h-512z" />
<glyph unicode="&#xb3;" horiz-adv-x="870" d="M176 711l31 149q68 -45 168 -45q131 0 131 64q0 47 -137 47h-101v149h105q115 0 114 66q0 33 -21.5 44t-80.5 11q-41 0 -82 -14.5t-62 -27.5l-22 -13l-24 155q94 59 204 60q135 0 202 -51.5t67 -139.5q0 -55 -29 -95t-74 -50q55 -8 91 -50t36 -102q0 -102 -80 -159.5 t-221 -57.5q-128 0 -215 60z" />
<glyph unicode="&#xb4;" horiz-adv-x="827" d="M186 1227l211 280l236 -94l-266 -252z" />
<glyph unicode="&#xb5;" horiz-adv-x="1142" d="M168 -483v1507h270v-627q0 -188 113 -188q76 0 176 94v721h268v-1024h-225l-43 98q-82 -66 -143.5 -88t-145.5 -22v-471h-270z" />
<glyph unicode="&#x3bc;" horiz-adv-x="1142" d="M168 -483v1507h270v-627q0 -188 113 -188q76 0 176 94v721h268v-1024h-225l-43 98q-82 -66 -143.5 -88t-145.5 -22v-471h-270z" />
<glyph unicode="&#xb6;" horiz-adv-x="1226" d="M102 1087.5q0 149.5 110 258t339 108.5h584v-225h-134v-1645h-215v1645h-114v-1645h-215v1149q-160 0 -257.5 102.5t-97.5 252z" />
<glyph unicode="&#xb7;" horiz-adv-x="370" d="M68 473v279h235v-279h-235z" />
<glyph unicode="&#xb8;" horiz-adv-x="772" d="M287 -299q53 109 68.5 159t15.5 140h227q0 -98 -23.5 -163.5t-105.5 -198.5z" />
<glyph unicode="&#xb9;" horiz-adv-x="774" d="M68 1227l211 129h184v-549h143v-160h-471v160h144v360l-150 -96z" />
<glyph unicode="&#xba;" horiz-adv-x="757" d="M84 1079q0 150 71 252.5t216 102.5q293 0 293 -355q0 -346 -297 -346q-143 0 -213 93.5t-70 252.5zM106 479v172h531v-172h-531zM289 1081q0 -184 82 -184q88 0 88 184q0 189 -86 189q-41 0 -62.5 -53.5t-21.5 -135.5z" />
<glyph unicode="&#xbb;" horiz-adv-x="1046" d="M106 256l181 354l-181 351l195 88l264 -443l-262 -438zM485 236l201 374l-201 371l195 88l285 -463l-283 -459z" />
<glyph unicode="&#xbc;" horiz-adv-x="1810" d="M68 1227l211 129h184v-549h143v-160h-471v160h144v360l-150 -96zM307 0l795 1409h282l-794 -1409h-283zM1001 104v146l246 459h203l-236 -441h162v215h187v-217h98v-162h-98v-104h-187v104h-375z" />
<glyph unicode="&#xbd;" horiz-adv-x="1671" d="M68 1227l211 129h184v-549h143v-160h-471v160h144v360l-150 -96zM307 0l795 1409h282l-794 -1409h-283zM1051 0v127q115 104 166 154.5t91 107.5t40 103q0 53 -84 53q-43 0 -90.5 -7.5t-72.5 -14.5l-26 -7l15 143q111 35 217 35q119 0 180 -44t61 -118q0 -90 -49 -173 t-172 -201h254l-18 -158h-512z" />
<glyph unicode="&#xbe;" horiz-adv-x="1814" d="M147 711l31 149q68 -45 168 -45q131 0 131 64q0 47 -137 47h-100v149h104q115 0 115 66q0 33 -21.5 44t-81.5 11q-41 0 -82 -14.5t-62 -27.5l-22 -13l-24 155q94 59 205 60q135 0 201.5 -51.5t66.5 -139.5q0 -55 -28.5 -95t-73.5 -50q55 -8 91 -50t36 -102 q0 -102 -80 -159.5t-222 -57.5q-128 0 -215 60zM307 0l795 1409h282l-794 -1409h-283zM1001 104v146l246 459h203l-236 -441h162v215h187v-217h98v-162h-98v-104h-187v104h-375z" />
<glyph unicode="&#xbf;" horiz-adv-x="948" d="M113 121q0 94 30.5 167.5t74.5 120t88 88.5t75 97t31 125v129h254v-119q0 -94 -31 -168t-75 -121t-87 -89t-73.5 -95t-30.5 -119q0 -109 145 -108q133 0 248 39l43 -222q-176 -55 -318 -55q-174 0 -274 89t-100 241zM414 963v282h256v-282h-256z" />
<glyph unicode="&#xc0;" horiz-adv-x="1185" d="M-14 0l430 1434h350l434 -1434h-295l-102 350h-432l-101 -350h-284zM264 1796h275l153 -254h-227zM430 586h318l-158 590z" />
<glyph unicode="&#xc1;" horiz-adv-x="1185" d="M-14 0l430 1434h350l434 -1434h-295l-102 350h-432l-101 -350h-284zM430 586h318l-158 590zM469 1540l154 254h274l-201 -254h-227z" />
<glyph unicode="&#xc2;" horiz-adv-x="1185" d="M-14 0l430 1434h350l434 -1434h-295l-102 350h-432l-101 -350h-284zM430 586h318l-158 590zM246 1639l262 184h178l258 -184l-90 -132l-258 134l-260 -134z" />
<glyph unicode="&#xc3;" horiz-adv-x="1185" d="M-14 0l430 1434h350l434 -1434h-295l-102 350h-432l-101 -350h-284zM430 586h318l-158 590zM187 1644q16 20 41.5 49t91 77t110.5 48q53 0 181 -63q82 -41 102 -41q23 0 53.5 20.5t51.5 41.5l20 22l129 -96q-2 -10 -43 -54.5t-103.5 -89.5t-107.5 -45q-51 0 -178 64 q-86 41 -105 41q-23 0 -54.5 -21.5t-51.5 -44.5l-21 -22z" />
<glyph unicode="&#xc4;" horiz-adv-x="1185" d="M-14 0l430 1434h350l434 -1434h-295l-102 350h-432l-101 -350h-284zM430 586h318l-158 590zM246 1515v269h248v-269h-248zM694 1515v269h248v-269h-248z" />
<glyph unicode="&#xc5;" horiz-adv-x="1185" d="M-14 0l430 1434h350l434 -1434h-295l-102 350h-432l-101 -350h-284zM344 1767q0 98 62.5 161t185.5 63t187.5 -62.5t64.5 -161.5q0 -106 -61.5 -166.5t-188.5 -60.5t-188.5 60.5t-61.5 166.5zM430 586h318l-158 590zM520 1767.5q0 -81.5 74 -81.5q78 0 78 81.5t-78 81.5 q-74 0 -74 -81.5z" />
<glyph unicode="&#xc6;" horiz-adv-x="1744" d="M-14 0l610 1434h1036v-236h-557v-301h506v-240h-506v-421h557v-236h-833v350h-379l-150 -350h-284zM512 586h287v610h-21zM780 0v1434h854v-236h-557v-301h506v-240h-506v-421h557v-236h-854z" />
<glyph unicode="&#xc7;" horiz-adv-x="1196" d="M61 723q0 336 177.5 532.5t492.5 196.5q172 0 342 -59l-57 -230q-125 53 -295 53.5t-266.5 -129t-96.5 -342.5q0 -242 90.5 -382t253.5 -140q123 0 351 80l61 -209q-139 -80 -297 -98q-2 -96 -25.5 -161.5t-103.5 -196.5l-182 63q53 109 68.5 158t15.5 137 q-256 37 -392.5 228.5t-136.5 498.5z" />
<glyph unicode="&#xc8;" horiz-adv-x="1110" d="M145 0v1434h854v-236h-557v-301h506v-240h-506v-421h557v-236h-854zM299 1796h274l154 -254h-227z" />
<glyph unicode="&#xc9;" horiz-adv-x="1110" d="M145 0v1434h854v-236h-557v-301h506v-240h-506v-421h557v-236h-854zM389 1540l154 254h274l-201 -254h-227z" />
<glyph unicode="&#xca;" horiz-adv-x="1110" d="M145 0v1434h854v-236h-557v-301h506v-240h-506v-421h557v-236h-854zM226 1639l262 184h178l258 -184l-90 -132l-258 134l-260 -134z" />
<glyph unicode="&#xcb;" horiz-adv-x="1110" d="M145 0v1434h854v-236h-557v-301h506v-240h-506v-421h557v-236h-854zM217 1516v268h248v-268h-248zM666 1516v268h247v-268h-247z" />
<glyph unicode="&#xcc;" horiz-adv-x="526" d="M-49 1796h274l154 -254h-227zM115 0v1434h297v-1434h-297z" />
<glyph unicode="&#xcd;" horiz-adv-x="526" d="M115 0v1434h297v-1434h-297zM150 1542l153 254h275l-201 -254h-227z" />
<glyph unicode="&#xce;" horiz-adv-x="526" d="M115 0v1434h297v-1434h-297zM-84 1645l262 184h178l258 -184l-90 -132l-258 134l-260 -134z" />
<glyph unicode="&#xcf;" horiz-adv-x="526" d="M115 0v1434h297v-1434h-297zM-84 1515v269h248v-269h-248zM364 1515v269h248v-269h-248z" />
<glyph unicode="&#xd0;" horiz-adv-x="1384" d="M33 608v215h172v611h444q305 0 489.5 -186.5t184.5 -479.5q0 -346 -200.5 -557t-536.5 -211h-381v608h-172zM494 236h110q172 0 291 146t119 402q0 193 -104.5 303.5t-252.5 110.5h-163v-375h317v-215h-317v-372z" />
<glyph unicode="&#xd1;" horiz-adv-x="1390" d="M145 0v1434h304l499 -926v926h297v-1436h-311l-485 883v-881h-304zM283 1651q16 20 41.5 49t91 77t110.5 48q53 0 181 -64q82 -41 102 -41q23 0 53.5 20.5t50.5 42.5l21 21l129 -96q-2 -10 -43 -54t-103.5 -89t-107.5 -45q-51 0 -178 63q-86 41 -105 41 q-23 0 -54.5 -21.5t-51.5 -43.5l-21 -23z" />
<glyph unicode="&#xd2;" horiz-adv-x="1327" d="M53 727.5q0 -321.5 154 -529.5t455 -208q203 0 344 102.5t204.5 265t63.5 369.5q0 322 -155.5 524.5t-456.5 202.5q-299 0 -454 -202.5t-155 -524zM311 1796h275l153 -254h-227zM352 727q0 129 29 235.5t102.5 181.5t182.5 75q145 0 228 -143.5t83 -338.5 q0 -221 -78 -365.5t-235 -144.5q-152 0 -232 142.5t-80 357.5z" />
<glyph unicode="&#xd3;" horiz-adv-x="1327" d="M53 727.5q0 -321.5 154 -529.5t455 -208q203 0 344 102.5t204.5 265t63.5 369.5q0 322 -155.5 524.5t-456.5 202.5q-299 0 -454 -202.5t-155 -524zM352 727q0 129 29 235.5t102.5 181.5t182.5 75q145 0 228 -143.5t83 -338.5q0 -221 -78 -365.5t-235 -144.5 q-152 0 -232 142.5t-80 357.5zM514 1542l154 254h274l-201 -254h-227z" />
<glyph unicode="&#xd4;" horiz-adv-x="1327" d="M53 727.5q0 321.5 154.5 524t454.5 202.5q301 0 456.5 -202.5t155.5 -524.5q0 -207 -63.5 -369.5t-204.5 -265t-344 -102.5q-301 0 -455 208t-154 529.5zM313 1645l262 184h179l258 -184l-90 -132l-258 134l-261 -134zM352 727q0 -215 80 -357.5t232 -142.5 q158 0 235.5 144.5t77.5 365.5q0 195 -83 338.5t-228 143.5q-109 0 -182.5 -75t-102.5 -181.5t-29 -235.5z" />
<glyph unicode="&#xd5;" horiz-adv-x="1327" d="M53 727.5q0 -321.5 154 -529.5t455 -208q203 0 344 102.5t204.5 265t63.5 369.5q0 322 -155.5 524.5t-456.5 202.5q-299 0 -454 -202.5t-155 -524zM291 1638q16 20 41.5 49t91 77t111.5 48q53 0 180 -63q82 -41 102 -41q23 0 53.5 20.5t51.5 41.5l20 22l129 -96 q-2 -10 -43 -54.5t-103.5 -89.5t-107.5 -45q-51 0 -178 64q-86 41 -104 41q-23 0 -54.5 -21.5t-52.5 -44.5l-20 -22zM352 727q0 129 29 235.5t102.5 181.5t182.5 75q145 0 228 -143.5t83 -338.5q0 -221 -78 -365.5t-235 -144.5q-152 0 -232 142.5t-80 357.5z" />
<glyph unicode="&#xd6;" horiz-adv-x="1327" d="M53 727.5q0 -321.5 154 -529.5t455 -208q203 0 344 102.5t204.5 265t63.5 369.5q0 322 -155.5 524.5t-456.5 202.5q-299 0 -454 -202.5t-155 -524zM315 1513v269h248v-269h-248zM352 727q0 129 29 235.5t102.5 181.5t182.5 75q145 0 228 -143.5t83 -338.5 q0 -221 -78 -365.5t-235 -144.5q-152 0 -232 142.5t-80 357.5zM764 1513v269h248v-269h-248z" />
<glyph unicode="&#xd7;" horiz-adv-x="1245" d="M113 930l180 180l336 -338l342 342l166 -166l-342 -342l338 -340l-181 -180l-338 340l-325 -324l-164 166l324 324z" />
<glyph unicode="&#xd8;" horiz-adv-x="1327" d="M53 727q0 322 154.5 524.5t454.5 202.5q80 0 157 -16l74 200h223l-106 -286q131 -92 197.5 -255t66.5 -370t-63.5 -369.5t-204.5 -265t-344 -102.5q-68 0 -148 14l-84 -227h-221l113 309q-133 94 -201 262t-68 379zM344 727q0 -233 86 -371l313 858q-36 13 -77 13 q-113 0 -188 -76t-104.5 -184.5t-29.5 -239.5zM588 229q29 -10 76 -10q109 0 183.5 74t106 186.5t31.5 257.5q0 203 -84 342z" />
<glyph unicode="&#xd9;" horiz-adv-x="1359" d="M145 528q0 -268 137.5 -404t397.5 -136t397 136t137 404v906h-299v-930q0 -135 -62 -208t-173 -73q-115 0 -175.5 73t-60.5 208v930h-299v-906zM375 1798h274l154 -254h-228z" />
<glyph unicode="&#xda;" horiz-adv-x="1359" d="M145 528q0 -268 137.5 -404t397.5 -136t397 136t137 404v906h-299v-930q0 -135 -62 -208t-173 -73q-115 0 -175.5 73t-60.5 208v930h-299v-906zM559 1542l154 254h274l-201 -254h-227z" />
<glyph unicode="&#xdb;" horiz-adv-x="1359" d="M145 528v906h299v-930q0 -135 60.5 -208t175.5 -73q111 0 173 73t62 208v930h299v-906q0 -268 -137 -404t-397 -136t-397.5 136t-137.5 404zM332 1645l262 184h178l258 -184l-90 -132l-258 134l-260 -134z" />
<glyph unicode="&#xdc;" horiz-adv-x="1359" d="M145 528v906h299v-930q0 -135 60.5 -208t175.5 -73q111 0 173 73t62 208v930h299v-906q0 -268 -137 -404t-397 -136t-397.5 136t-137.5 404zM334 1513v269h248v-269h-248zM782 1513v269h248v-269h-248z" />
<glyph unicode="&#xdd;" horiz-adv-x="1130" d="M-14 1434h313l260 -562l277 562h309l-440 -830v-604h-297v604zM422 1542l153 254h275l-201 -254h-227z" />
<glyph unicode="&#xde;" horiz-adv-x="1118" d="M141 0v1434h297v-226h154q252 -2 364.5 -109.5t112.5 -328.5q0 -227 -138 -335.5t-386 -108.5h-107v-326h-297zM438 559h74q133 0 196.5 46t63.5 161q0 109 -59.5 159t-190.5 50h80h-164v-416z" />
<glyph unicode="&#xdf;" horiz-adv-x="1163" d="M145 0v1090q0 188 103.5 276t331.5 88q221 0 338.5 -106.5t117.5 -260.5q0 -272 -211 -305q117 -18 193 -119t76 -257q0 -203 -138.5 -310.5t-394.5 -107.5q-35 0 -65 10v211q322 0 321 219q0 86 -62.5 154.5t-176.5 68.5h-58v234h55q70 0 127.5 57t57.5 139 q0 70 -41 114t-113 44q-127 0 -166 -53t-39 -166v-1020h-256z" />
<glyph unicode="&#xe0;" d="M82 315q0 156 118.5 243t358.5 87h84q0 88 -42 141.5t-128 53.5q-150 0 -303 -41l-45 180q200 65 401 65h6q373 0 373 -348v-696h-196l-41 102q-72 -66 -127.5 -91t-132.5 -25q-131 0 -228.5 91t-97.5 238zM354 326q0 -55 31 -92t80 -37q70 0 174 110v142h-88 q-115 0 -156 -31t-41 -92zM269 1413l235 94l211 -280l-180 -66z" />
<glyph unicode="&#xe1;" d="M82 315q0 156 118.5 243t358.5 87h84q0 88 -42 141.5t-128 53.5q-150 0 -303 -41l-45 180q200 65 401 65h6q373 0 373 -348v-696h-196l-41 102q-72 -66 -127.5 -91t-132.5 -25q-131 0 -228.5 91t-97.5 238zM354 326q0 -55 31 -92t80 -37q70 0 174 110v142h-88 q-115 0 -156 -31t-41 -92zM428 1227l211 280l236 -94l-266 -252z" />
<glyph unicode="&#xe2;" d="M82 315q0 156 118.5 243t358.5 87h84q0 88 -42 141.5t-128 53.5q-150 0 -303 -41l-45 180q200 65 401 65h6q373 0 373 -348v-696h-196l-41 102q-72 -66 -127.5 -91t-132.5 -25q-131 0 -228.5 91t-97.5 238zM354 326q0 -55 31 -92t80 -37q70 0 174 110v142h-88 q-115 0 -156 -31t-41 -92zM187 1295l262 184h178l258 -184l-90 -132l-258 134l-260 -134z" />
<glyph unicode="&#xe3;" d="M82 315q0 156 118.5 243t358.5 87h84q0 88 -42 141.5t-128 53.5q-150 0 -303 -41l-45 180q203 66 407 65q373 0 373 -348v-696h-196l-41 102q-72 -66 -127.5 -91t-132.5 -25q-131 0 -228.5 91t-97.5 238zM152 1296q16 20 41.5 49t91 77t110.5 48q53 0 180 -63 q82 -41 103 -41q23 0 53.5 21.5t50.5 42.5l21 20l129 -96q-2 -10 -43 -54.5t-103.5 -89.5t-107.5 -45q-51 0 -178 64q-86 41 -105 41q-23 0 -54.5 -22.5t-51.5 -44.5l-21 -21zM354 326q0 -55 31 -92t80 -37q70 0 174 110v142h-88q-115 0 -156 -31t-41 -92z" />
<glyph unicode="&#xe4;" d="M82 315q0 156 118.5 243t358.5 87h84q0 88 -42 141.5t-128 53.5q-150 0 -303 -41l-45 180q200 65 401 65h6q373 0 373 -348v-696h-196l-41 102q-72 -66 -127.5 -91t-132.5 -25q-131 0 -228.5 91t-97.5 238zM354 326q0 -55 31 -92t80 -37q70 0 174 110v142h-88 q-115 0 -156 -31t-41 -92zM191 1185v269h248v-269h-248zM639 1185v269h248v-269h-248z" />
<glyph unicode="&#xe5;" d="M82 315q0 156 118.5 243t358.5 87h84q0 88 -42 141.5t-128 53.5q-150 0 -303 -41l-45 180q200 65 401 65h6q373 0 373 -348v-696h-196l-41 102q-72 -66 -127.5 -91t-132.5 -25q-131 0 -228.5 91t-97.5 238zM354 326q0 -55 31 -92t80 -37q70 0 174 110v142h-88 q-115 0 -156 -31t-41 -92zM291 1358q0 98 62.5 160.5t185 62.5t187 -62.5t64.5 -160.5q0 -106 -61 -167t-188 -61t-188.5 60.5t-61.5 167.5zM467 1358q0 -82 74 -82q78 0 78 82t-78 82q-74 0 -74 -82z" />
<glyph unicode="&#xe6;" horiz-adv-x="1593" d="M82 315q0 156 130 243t392 87h64q0 195 -133 195q-180 0 -365 -62l-45 180q197 86 399 86q213 0 299 -89t86 -259v-428q-195 -283 -501 -282q-131 0 -228.5 91t-97.5 238zM354 326q0 -55 31 -92t80 -37q82 0 199 110v142h-68q-139 0 -190.5 -31t-51.5 -92zM670 508 q0 264 111.5 400t324.5 136q174 0 279.5 -114.5t105.5 -339.5q0 -90 -8 -158h-551q0 -121 60.5 -178t160.5 -57q104 0 272 49l45 -183q-184 -76 -340 -75q-461 0 -460 520zM930 621h305v14q0 209 -150 209q-78 0 -115.5 -63.5t-39.5 -159.5z" />
<glyph unicode="&#xe7;" horiz-adv-x="886" d="M72 512q0 252 116.5 392t339.5 140q131 0 299 -49l-96 -186q-113 35 -196 35q-63 0 -105.5 -29t-61 -82t-24.5 -100t-6 -113q0 -180 63.5 -251.5t194.5 -71.5q111 -1 205 26l33 -184q-129 -39 -195 -45q-2 -96 -25.5 -160.5t-103.5 -195.5l-182 63q53 109 68.5 159 t15.5 140q-180 35 -260 163t-80 349z" />
<glyph unicode="&#xe8;" horiz-adv-x="1013" d="M70 508q0 264 116.5 400t339.5 136q184 0 295 -114.5t111 -339.5q0 -90 -8 -158h-592q0 -121 65.5 -178t176 -57t292.5 49l45 -183q-195 -76 -360 -75q-481 0 -481 520zM221 1413l236 94l211 -280l-181 -66zM330 621h346v14q0 94 -41 151.5t-129 57.5t-131 -63.5 t-45 -159.5z" />
<glyph unicode="&#xe9;" horiz-adv-x="1013" d="M70 508q0 264 116.5 400t339.5 136q184 0 295 -114.5t111 -339.5q0 -90 -8 -158h-592q0 -121 65.5 -178t176 -57t292.5 49l45 -183q-195 -76 -360 -75q-481 0 -481 520zM330 621h346v14q0 94 -41 151.5t-129 57.5t-131 -63.5t-45 -159.5zM406 1227l210 280l236 -94 l-266 -252z" />
<glyph unicode="&#xea;" horiz-adv-x="1013" d="M70 508q0 264 116.5 400t339.5 136q184 0 295 -114.5t111 -339.5q0 -90 -8 -158h-592q0 -121 65.5 -178t176 -57t292.5 49l45 -183q-195 -76 -360 -75q-481 0 -481 520zM172 1294l262 185h178l258 -185l-90 -131l-258 133l-260 -133zM330 621h346v14q0 94 -41 151.5 t-129 57.5t-131 -63.5t-45 -159.5z" />
<glyph unicode="&#xeb;" horiz-adv-x="1013" d="M70 508q0 264 116.5 400t339.5 136q184 0 295 -114.5t111 -339.5q0 -90 -8 -158h-592q0 -121 65.5 -178t176 -57t292.5 49l45 -183q-195 -76 -360 -75q-481 0 -481 520zM186 1188v268h248v-268h-248zM330 621h346v14q0 94 -41 151.5t-129 57.5t-131 -63.5t-45 -159.5z M635 1188v268h248v-268h-248z" />
<glyph unicode="&#xec;" horiz-adv-x="581" d="M-59 1413l235 94l211 -280l-180 -66zM158 0v1024h266v-1024h-266z" />
<glyph unicode="&#xed;" horiz-adv-x="581" d="M158 0v1024h266v-1024h-266zM201 1227l211 280l235 -94l-266 -252z" />
<glyph unicode="&#xee;" horiz-adv-x="581" d="M-59 1294l262 185h178l258 -185l-90 -131l-258 133l-260 -133zM158 0v1024h266v-1024h-266z" />
<glyph unicode="&#xef;" horiz-adv-x="581" d="M-57 1186v268h247v-268h-247zM158 0v1024h266v-1024h-266zM391 1186v268h248v-268h-248z" />
<glyph unicode="&#xf0;" horiz-adv-x="1173" d="M129 520q0 248 121 386t360 141l-147 147l-182 -102l-131 133l190 108q-96 86 -123 107l189 112l124 -116l189 98l129 -129l-189 -98q213 -221 302 -346q137 -197 137 -441q0 -248 -128 -390t-360 -142q-233 0 -357 142t-124 390zM410 516q0 -313 198 -313q213 0 213 313 q0 156 -51 232.5t-164 76.5q-111 0 -153.5 -74.5t-42.5 -234.5z" />
<glyph unicode="&#xf1;" horiz-adv-x="1200" d="M166 0v1024h225l43 -92q88 66 152.5 89t150.5 23q137 0 217 -91t80 -269v-684h-270v612q0 84 -33 136.5t-100 52.5q-84 0 -197 -94v-707h-268zM180 1294q16 20 41.5 49t91 77t110.5 48q53 0 181 -63q82 -41 102 -41q23 0 53.5 20.5t51.5 41.5l20 22l129 -96 q-2 -10 -43 -54.5t-103.5 -89.5t-107.5 -45q-51 0 -178 64q-86 41 -105 41q-23 0 -54.5 -21.5t-51.5 -44.5l-21 -22z" />
<glyph unicode="&#xf2;" horiz-adv-x="1079" d="M66 512q0 -248 118.5 -387t341.5 -139q236 0 361 139t125 387q0 244 -131 388t-354.5 144t-342 -142t-118.5 -390zM242 1413l235 94l211 -280l-180 -66zM334 514q0 313 205 313q200 0 200 -313q0 -152 -44 -230.5t-154 -78.5q-207 0 -207 309z" />
<glyph unicode="&#xf3;" horiz-adv-x="1079" d="M66 512q0 248 118.5 390t342 142t354.5 -144t131 -388q0 -248 -125 -387t-361 -139q-223 0 -341.5 139t-118.5 387zM334 514q0 -309 207 -309q111 0 154.5 78.5t43.5 230.5q0 313 -200 313q-205 0 -205 -313zM381 1227l211 280l236 -94l-266 -252z" />
<glyph unicode="&#xf4;" horiz-adv-x="1079" d="M66 512q0 248 118.5 390t342 142t354.5 -144t131 -388q0 -248 -125 -387t-361 -139q-223 0 -341.5 139t-118.5 387zM334 514q0 -309 207 -309q111 0 154.5 78.5t43.5 230.5q0 313 -200 313q-205 0 -205 -313zM181 1295l262 184h178l258 -184l-90 -132l-258 134l-260 -134 z" />
<glyph unicode="&#xf5;" horiz-adv-x="1079" d="M66 512q0 -248 118.5 -387t341.5 -139q236 0 361 139t125 387q0 244 -131 388t-354.5 144t-342 -142t-118.5 -390zM158 1296q16 20 41.5 49t91 77t110.5 48q53 0 181 -63q82 -41 102 -41q23 0 53.5 21.5t50.5 42.5l21 20l129 -96q-2 -10 -43 -54.5t-103.5 -89.5 t-107.5 -45q-51 0 -178 64q-86 41 -105 41q-23 0 -54.5 -22.5t-51.5 -44.5l-21 -21zM334 514q0 313 205 313q200 0 200 -313q0 -152 -44 -230.5t-154 -78.5q-207 0 -207 309z" />
<glyph unicode="&#xf6;" horiz-adv-x="1079" d="M66 512q0 248 118.5 390t342 142t354.5 -144t131 -388q0 -248 -125 -387t-361 -139q-223 0 -341.5 139t-118.5 387zM334 514q0 -309 207 -309q111 0 154.5 78.5t43.5 230.5q0 313 -200 313q-205 0 -205 -313zM197 1185v269h248v-269h-248zM645 1185v269h248v-269h-248z " />
<glyph unicode="&#xf7;" horiz-adv-x="1073" d="M94 426v215h885v-215h-885zM430 0v279h236v-279h-236zM430 745v279h236v-279h-236z" />
<glyph unicode="&#xf8;" horiz-adv-x="1079" d="M45 43l105 127q-84 131 -84 342q0 248 118.5 390t341.5 142q160 0 279 -79l123 151l157 -119l-147 -178q74 -131 74 -307q0 -248 -125 -387t-361 -139q-137 0 -231 51l-102 -125zM326 514q0 -80 10 -127l332 404q-51 45 -129 45q-213 0 -213 -322zM440 219 q41 -23 101 -22q115 0 161 80.5t46 236.5q0 27 -5 76z" />
<glyph unicode="&#xf9;" horiz-adv-x="1179" d="M145 346v678h271v-627q0 -84 32.5 -136t100.5 -52q84 0 196 94v721h269v-1024h-226l-43 98q-88 -66 -152.5 -88t-150.5 -22q-137 0 -217 90t-80 268zM303 1413l235 94l211 -280l-180 -66z" />
<glyph unicode="&#xfa;" horiz-adv-x="1179" d="M145 346v678h271v-627q0 -84 32.5 -136t100.5 -52q84 0 196 94v721h269v-1024h-226l-43 98q-88 -66 -152.5 -88t-150.5 -22q-137 0 -217 90t-80 268zM463 1227l211 280l235 -94l-266 -252z" />
<glyph unicode="&#xfb;" horiz-adv-x="1179" d="M145 346v678h271v-627q0 -84 32.5 -136t100.5 -52q84 0 196 94v721h269v-1024h-226l-43 98q-88 -66 -152.5 -88t-150.5 -22q-137 0 -217 90t-80 268zM238 1294l262 185h178l258 -185l-90 -131l-258 133l-260 -133z" />
<glyph unicode="&#xfc;" horiz-adv-x="1179" d="M145 346v678h271v-627q0 -84 32.5 -136t100.5 -52q84 0 196 94v721h269v-1024h-226l-43 98q-88 -66 -152.5 -88t-150.5 -22q-137 0 -217 90t-80 268zM238 1186v268h247v-268h-247zM686 1186v268h248v-268h-248z" />
<glyph unicode="&#xfd;" horiz-adv-x="931" d="M2 1024h266l199 -707l201 707h262l-342 -1024q-63 -188 -159.5 -301t-242.5 -182l-98 188q82 35 153.5 106t96.5 169zM282 1227l211 280l236 -94l-266 -252z" />
<glyph unicode="&#xfe;" horiz-adv-x="1085" d="M145 -483v1917h267v-484q158 94 272 94q150 0 239 -134t89 -382q0 -258 -102.5 -393t-264.5 -135q-125 0 -233 70v-553h-267zM412 319q109 -92 178 -92q160 0 160 295q0 285 -152 285q-78 0 -186 -72v-416z" />
<glyph unicode="&#xff;" horiz-adv-x="931" d="M2 1024l336 -1044q-25 -98 -96.5 -169t-153.5 -106l98 -188q145 70 241.5 182.5t160.5 300.5l342 1024h-262l-201 -707l-199 707h-266zM123 1190v268h248v-268h-248zM571 1190v268h248v-268h-248z" />
<glyph unicode="&#x152;" horiz-adv-x="1787" d="M53 727.5q0 319.5 153.5 513t455.5 193.5h1015v-238h-557v-299h506v-240h-506v-409h557v-248l-1015 2q-301 0 -455 203t-154 522.5zM352 727q0 -211 80 -346t232 -135h157v950h-155q-160 0 -237 -134t-77 -335z" />
<glyph unicode="&#x153;" horiz-adv-x="1763" d="M76 512q0 248 114.5 390t325.5 142q197 0 318 -120q111 121 311 120q174 0 279.5 -114.5t105.5 -339.5q0 -90 -8 -158h-551q0 -121 60.5 -178t160.5 -57q102 0 272 49l45 -183q-184 -76 -340 -75q-217 0 -331 112q-119 -114 -322 -114q-213 0 -326.5 139t-113.5 387z M344 514q0 -309 186 -309q98 0 138.5 78.5t40.5 230.5q0 313 -181 313q-184 0 -184 -313zM969 621h305v14q0 209 -150 209q-78 0 -115.5 -63.5t-39.5 -159.5z" />
<glyph unicode="&#x178;" horiz-adv-x="1130" d="M-14 1434h313l260 -562l277 562h309l-440 -830v-604h-297v604zM213 1640v269h248v-269h-248zM661 1640v269h248v-269h-248z" />
<glyph unicode="&#x2c6;" horiz-adv-x="1005" d="M154 1516l262 184h178l258 -184l-90 -132l-258 134l-260 -134z" />
<glyph unicode="&#x2da;" horiz-adv-x="815" d="M158 1358q0 98 62.5 160.5t185 62.5t187 -62.5t64.5 -160.5q0 -106 -61 -167t-188 -61t-188.5 60.5t-61.5 167.5zM334 1358q0 -82 74 -82q78 0 78 82t-78 82q-74 0 -74 -82z" />
<glyph unicode="&#x2dc;" horiz-adv-x="1056" d="M160 1507q16 20 41.5 49t91 77t110.5 48q53 0 181 -63q82 -41 102 -41q23 0 53.5 20.5t51.5 41.5l20 22l129 -96q-2 -10 -43 -54.5t-103.5 -89.5t-107.5 -45q-51 0 -178 64q-86 41 -105 41q-23 0 -54.5 -21.5t-51.5 -44.5l-21 -22z" />
<glyph unicode="&#x2000;" horiz-adv-x="995" />
<glyph unicode="&#x2001;" horiz-adv-x="1991" />
<glyph unicode="&#x2002;" horiz-adv-x="995" />
<glyph unicode="&#x2003;" horiz-adv-x="1991" />
<glyph unicode="&#x2004;" horiz-adv-x="663" />
<glyph unicode="&#x2005;" horiz-adv-x="497" />
<glyph unicode="&#x2006;" horiz-adv-x="331" />
<glyph unicode="&#x2007;" horiz-adv-x="331" />
<glyph unicode="&#x2008;" horiz-adv-x="248" />
<glyph unicode="&#x2009;" horiz-adv-x="398" />
<glyph unicode="&#x200a;" horiz-adv-x="110" />
<glyph unicode="&#x2010;" horiz-adv-x="587" d="M57 479v236h473v-236h-473z" />
<glyph unicode="&#x2011;" horiz-adv-x="587" d="M57 479v236h473v-236h-473z" />
<glyph unicode="&#x2012;" horiz-adv-x="587" d="M57 479v236h473v-236h-473z" />
<glyph unicode="&#x2013;" horiz-adv-x="1024" d="M0 485v215h1024v-215h-1024z" />
<glyph unicode="&#x2014;" horiz-adv-x="1638" d="M0 485v215h1638v-215h-1638z" />
<glyph unicode="&#x2018;" horiz-adv-x="548" d="M76 1049l233 526l187 -57l-170 -545z" />
<glyph unicode="&#x2019;" horiz-adv-x="546" d="M47 1030l170 545l250 -76l-234 -526z" />
<glyph unicode="&#x201a;" horiz-adv-x="548" d="M43 -270l180 520l248 -74l-231 -508z" />
<glyph unicode="&#x201c;" horiz-adv-x="954" d="M76 1049l233 526l187 -57l-170 -545zM485 1049l234 526l186 -57l-170 -545z" />
<glyph unicode="&#x201d;" horiz-adv-x="952" d="M47 1030l170 545l250 -76l-234 -526zM457 1030l170 545l250 -76l-234 -526z" />
<glyph unicode="&#x201e;" horiz-adv-x="952" d="M43 -270l180 520l248 -74l-231 -508zM453 -270l180 520l248 -74l-232 -508z" />
<glyph unicode="&#x2022;" horiz-adv-x="962" d="M162 543q0 127 89 216t216 89t216 -89t89 -216q0 -129 -89 -217t-216 -88t-216 88t-89 217z" />
<glyph unicode="&#x2026;" horiz-adv-x="1406" d="M70 0v279h235v-279h-235zM70 0v279h235v-279h-235zM586 0v279h235v-279h-235zM1102 0v279h235v-279h-235z" />
<glyph unicode="&#x202f;" horiz-adv-x="398" />
<glyph unicode="&#x2039;" horiz-adv-x="675" d="M80 606l285 463l194 -88l-201 -371l201 -374l-197 -89z" />
<glyph unicode="&#x203a;" horiz-adv-x="675" d="M141 236l201 370l-201 375l197 88l283 -459l-285 -463z" />
<glyph unicode="&#x205f;" horiz-adv-x="497" />
<glyph unicode="&#x20ac;" horiz-adv-x="1290" d="M43 461v215h117q0 4 -1 31.5t-1 33.5q0 8 4 29h-119v215h139q55 219 224 344t425 125q174 0 361 -61l-78 -230q-131 55 -297 56q-129 0 -214 -61.5t-122 -172.5h422v-217h-442q-4 -33 -4 -37q0 -35 2 -55h444v-215h-430q68 -238 328 -238q147 0 350 80l82 -209 q-197 -106 -426 -106q-260 0 -424 127t-211 346h-129z" />
<glyph unicode="&#x2122;" horiz-adv-x="1404" d="M78 1274v160h497v-160h-155v-418h-195v418h-147zM680 856v578h166l145 -217l152 217h160v-578h-179v262q-18 -25 -58 -75t-56 -74h-58l-96 139v-252h-176z" />
<glyph unicode="&#xe000;" horiz-adv-x="1025" d="M0 1025h1025v-1025h-1025v1025z" />
<glyph unicode="&#xfb01;" horiz-adv-x="1138" d="M72 805v219h118v156q0 131 75 202.5t190 71.5q162 0 241 -18l-34 -191q-51 10 -89 10q-61 0 -90.5 -26.5t-29.5 -98.5v-106h528v-1024h-266v805h-262v-805h-265v805h-116z" />
<glyph unicode="&#xfb02;" horiz-adv-x="1167" d="M72 805v219h118v156q0 131 75 202.5t190 71.5q147 0 262 -20l264 22v-1456h-266v1243q-88 12 -121 12q-72 0 -106.5 -26.5t-34.5 -98.5v-106h168v-219h-168v-805h-265v805h-116z" />
<glyph unicode="&#xfb03;" horiz-adv-x="1911" d="M1488 0v1024h266v-1024h-266zM1488 1178v256h266v-256h-266zM737 805v219h118v156q0 131 75 202.5t190 71.5q147 0 221 -18l-35 -191q-51 10 -88 10q-51 0 -75.5 -26.5t-24.5 -98.5v-106h168v-219h-168v-805h-265v805h-116zM72 805v219h118v156q0 131 75 202.5t190 71.5 q147 0 221 -18l-35 -191q-51 10 -88 10q-51 0 -75.5 -26.5t-24.5 -98.5v-106h168v-219h-168v-805h-265v805h-116z" />
<glyph unicode="&#xfb04;" horiz-adv-x="1948" d="M1496 0v1434h266v-1434h-266zM737 805v219h118v156q0 131 75 202.5t190 71.5q147 0 221 -18l-35 -191q-51 10 -88 10q-51 0 -75.5 -26.5t-24.5 -98.5v-106h168v-219h-168v-805h-265v805h-116zM72 805v219h118v156q0 131 75 202.5t190 71.5q147 0 221 -18l-35 -191 q-51 10 -88 10q-51 0 -75.5 -26.5t-24.5 -98.5v-106h168v-219h-168v-805h-265v805h-116z" />
<glyph horiz-adv-x="432" />
</font>
</defs>
</svg>
