<?xml version="1.0" standalone="no"?>
<!DOCTYPE svg PUBLIC "-//W3C//DTD SVG 1.1//EN" "http://www.w3.org/Graphics/SVG/1.1/DTD/svg11.dtd" >
<svg xmlns="http://www.w3.org/2000/svg">
<metadata>
This is a custom SVG webfont generated by Font Squirrel.
Copyright   : Copyright c 2012 Agustina Mingote agustinamingotegmailcom with Reserved Font Names Gudea
Designer    : Agustina Mingote
Foundry     : Agustina Mingote
</metadata>
<defs>
<font id="GudeaRegular" horiz-adv-x="1060" >
<font-face units-per-em="2048" ascent="1638" descent="-410" />
<missing-glyph horiz-adv-x="512" />
<glyph unicode=" "  horiz-adv-x="512" />
<glyph unicode="&#x09;" horiz-adv-x="512" />
<glyph unicode="&#xa0;" horiz-adv-x="512" />
<glyph unicode="!" horiz-adv-x="544" d="M195 0v190h153v-190h-153zM197 389v1047h153v-1047h-153z" />
<glyph unicode="&#x22;" horiz-adv-x="774" d="M113 905v531h153v-531h-153zM506 905v531h153v-531h-153z" />
<glyph unicode="#" horiz-adv-x="1267" d="M61 391v133h250l47 428h-243v133h254l37 349h155l-37 -349h326l37 349h153l-32 -349h196v-133h-213l-43 -428h201v-133h-215l-39 -391h-156l41 391h-325l-41 -391h-156l41 391h-238zM467 524h326l47 428h-326z" />
<glyph unicode="$" horiz-adv-x="1040" d="M127 162l45 102q164 -76 326 -76q135 0 211.5 60.5t76.5 173.5q0 82 -65.5 137t-158.5 89t-186 74t-158.5 118t-65.5 196q0 141 78.5 222t207.5 94v178h133v-178q122 -12 258 -56l-28 -122l-113 33q-108 26 -188 26q-211 0 -211 -193q0 -82 65.5 -135t158.5 -85 t185.5 -68.5t158 -114.5t65.5 -195q0 -160 -91.5 -258t-259.5 -118v-189h-133v184q-166 10 -311 101z" />
<glyph unicode="%" horiz-adv-x="1509" d="M92 1071q0 150 65.5 252t200.5 102q272 0 273 -354q0 -346 -277 -346q-133 0 -197.5 93t-64.5 253zM215 1073q0 -246 143 -246q150 0 150 246q0 111 -37 180.5t-111 69.5q-72 0 -108.5 -69.5t-36.5 -180.5zM227 2l836 1407h160l-836 -1407h-160zM850 334q0 150 65.5 252 t200.5 102q272 0 273 -354q0 -346 -277 -346q-133 0 -197.5 93t-64.5 253zM973 336q0 -246 143 -246q150 0 150 246q0 111 -37 180.5t-111 69.5q-72 0 -108.5 -70t-36.5 -180z" />
<glyph unicode="&#x26;" horiz-adv-x="1548" d="M121 395q0 135 73.5 213t237.5 158q-121 109 -178 184.5t-57 153.5q0 154 110.5 252t282.5 98q176 0 279.5 -91t103.5 -237q0 -117 -73 -204.5t-232 -173.5l346 -336q65 134 65 327h148q-8 -125 -24.5 -214t-30 -126t-42.5 -98l293 -299h-204l-168 182q-70 -84 -195 -141 t-254 -57q-233 0 -357 110.5t-124 298.5zM274 383q0 -119 89.5 -191.5t238.5 -72.5q106 0 205.5 50.5t146.5 113.5l-419 401q-260 -119 -261 -301zM350 1133q0 -31 10.5 -60t37 -61.5t44 -52t62.5 -62.5t63 -59q258 129 258 299q0 92 -69.5 138t-172 46t-168 -49t-65.5 -139 z" />
<glyph unicode="'" horiz-adv-x="378" d="M113 752v530h153v-530h-153z" />
<glyph unicode="(" horiz-adv-x="577" d="M160 637q0 504 252 928l135 -27q-233 -432 -234 -907q0 -440 230 -873l-142 -24q-241 422 -241 903z" />
<glyph unicode=")" horiz-adv-x="577" d="M45 1538l135 27q252 -424 252 -928q0 -481 -242 -903l-141 24q229 432 230 873q0 475 -234 907z" />
<glyph unicode="*" horiz-adv-x="880" d="M84 993l266 129l-264 129l72 113l233 -168l-20 293h133l-27 -293l244 166l63 -117l-266 -119l266 -122l-63 -119l-244 166l27 -293h-133l20 293l-244 -166z" />
<glyph unicode="+" horiz-adv-x="960" d="M57 537v133h336v409h154v-409h354v-133h-354v-396h-154v396h-336z" />
<glyph unicode="," horiz-adv-x="499" d="M51 -319l178 546l154 -49l-231 -530z" />
<glyph unicode="-" horiz-adv-x="587" d="M98 520v154h391v-154h-391z" />
<glyph unicode="." horiz-adv-x="374" d="M111 0v217h153v-217h-153z" />
<glyph unicode="/" horiz-adv-x="1005" d="M96 -297l666 1935h162l-664 -1935h-164z" />
<glyph unicode="0" horiz-adv-x="1187" d="M113 721q0 147 23.5 270t76.5 231.5t153.5 170t239.5 61.5q471 0 471 -733q0 -117 -13 -217.5t-48 -197.5t-89.5 -165.5t-142.5 -110.5t-202 -42q-469 0 -469 733zM266 721q0 -600 330 -600q328 0 328 596v8q0 596 -328 596q-121 0 -196.5 -87t-104.5 -215t-29 -298z" />
<glyph unicode="1" horiz-adv-x="1062" d="M57 1169l428 265h154v-1301h313v-133h-866v133h399v1149l-352 -227z" />
<glyph unicode="2" horiz-adv-x="1073" d="M117 0v147q344 350 500.5 563.5t156.5 368.5q0 242 -268 242q-76 0 -160 -11.5t-129 -21.5l-45 -10l-29 119q156 57 359 57q211 0 319.5 -93t108.5 -257q0 -195 -152.5 -421t-468.5 -550h654l-2 -133h-844z" />
<glyph unicode="3" horiz-adv-x="1081" d="M100 84l52 115q168 -78 346 -78q152 0 234.5 70.5t82.5 187.5q0 133 -89 211t-253 78h-194v133h194q139 0 218 77.5t79 194.5q0 248 -274 248q-70 0 -152 -21.5t-130 -42.5l-48 -20l-29 119q18 10 50 26.5t124 44t178 27.5q219 0 327 -98.5t108 -265.5q0 -133 -77 -232.5 t-198 -122.5q141 -20 231.5 -108t90.5 -224q0 -197 -131 -306t-367 -109q-98 0 -191.5 24.5t-137.5 47.5z" />
<glyph unicode="4" horiz-adv-x="1105" d="M31 268v101l448 1065h154l-434 -1033h479v381h147v-381h170v-133h-170v-270h-147v270h-647z" />
<glyph unicode="5" horiz-adv-x="1142" d="M129 96l47 109q184 -82 363 -82q162 0 251 87t89 241q0 145 -106.5 215.5t-297.5 70.5l-270 2l49 695h731l-10 -134h-590l-23 -432q66 2 130 2q246 0 393 -105.5t147 -293.5q0 -221 -131 -352t-375 -131q-212 0 -389 104q-8 5 -8 4z" />
<glyph unicode="6" horiz-adv-x="1179" d="M147 635q0 180 25 318.5t83 256t169 181t268 63.5q178 0 309 -68l-36 -122q-143 55 -291 55q-182 0 -267 -141.5t-102 -386.5q173 75 318 75q213 0 329.5 -106.5t116.5 -306.5q0 -209 -121 -337t-325 -128q-475 0 -476 647zM301 637q0 -254 78 -385t254 -131 q129 0 205.5 89t76.5 226q0 297 -301 297q-156 0 -313 -96z" />
<glyph unicode="7" horiz-adv-x="1038" d="M53 1280v154h924v-154l-635 -1280h-170l633 1280h-752z" />
<glyph unicode="8" horiz-adv-x="1177" d="M127 379q0 74 28.5 140.5t76 111.5t82 70.5t71.5 43.5q-211 117 -211 318q0 186 119 288.5t323 102.5q188 0 301 -99.5t113 -238.5q0 -147 -64.5 -250.5t-138.5 -160.5q113 -59 176.5 -130t63.5 -178q0 -195 -128 -302t-364 -107q-221 0 -334.5 112.5t-113.5 278.5z M281 387q0 -119 77.5 -194.5t237.5 -75.5q137 0 227 71.5t90 190.5q0 45 -20.5 84t-50 66.5t-86 56t-103.5 47t-125 47.5q-33 -14 -67.5 -35.5t-78.5 -58.5t-72.5 -89.5t-28.5 -109.5zM324 1083q0 -49 23.5 -92t49 -69.5t88 -60.5t95 -48t114.5 -47q187 139 187 319 q0 102 -74 169t-195 67q-127 0 -207.5 -66.5t-80.5 -171.5z" />
<glyph unicode="9" horiz-adv-x="1140" d="M109 989q0 209 120.5 337t325.5 128q475 0 475 -647q0 -180 -24.5 -318.5t-83 -256t-169 -181t-268.5 -63.5q-178 0 -309 67l37 123q143 -55 291 -55q334 0 366 528q-151 -76 -315 -76q-213 0 -329.5 106.5t-116.5 307.5zM262 1006q0 -297 301 -297q152 0 314 94v8 q0 250 -78 380t-254 130q-129 0 -206 -89t-77 -226z" />
<glyph unicode=":" horiz-adv-x="444" d="M145 0v217h154v-217h-154zM145 807v217h154v-217h-154z" />
<glyph unicode=";" horiz-adv-x="565" d="M88 -315l184 546l148 -49l-232 -530zM266 807v217h154v-217h-154z" />
<glyph unicode="&#x3c;" horiz-adv-x="1081" d="M125 551v117l803 460v-163l-654 -355l654 -358v-160z" />
<glyph unicode="=" horiz-adv-x="1187" d="M154 334v133h880v-133h-880zM154 739v133h880v-133h-880z" />
<glyph unicode="&#x3e;" horiz-adv-x="1081" d="M154 94v158l653 358l-653 355v163l802 -460v-115z" />
<glyph unicode="?" horiz-adv-x="948" d="M164 1399q166 55 297 55q166 0 260 -83t94 -226q0 -86 -33.5 -155.5t-82 -118t-97.5 -94.5t-83 -109.5t-34 -141.5v-129h-151v119q0 90 33.5 165t82 124t96.5 95t82 103.5t34 124.5q0 190 -228 191q-133 0 -248 -39zM330 0v201h153v-201h-153z" />
<glyph unicode="@" horiz-adv-x="1857" d="M156 428q0 1024 821 1024q723 0 723 -645q0 -184 -42 -312t-124 -199t-187.5 -100.5t-250.5 -29.5l-17 135q-43 -43 -71.5 -66.5t-90 -51t-122.5 -27.5q-119 0 -180.5 79.5t-61.5 208.5q0 152 41 275t105.5 192.5t135 106.5t136.5 37q39 0 71.5 -7.5t59 -21.5t41 -24.5 t36 -30t23.5 -21.5l33 82h94l-149 -756q172 0 279.5 123t107.5 416q0 504 -592 504q-350 0 -513 -210t-163 -634q0 -309 124 -450.5t400 -141.5h355l4 -110q-174 -16 -367 -17q-659 0 -659 672zM680 461q0 -184 139 -185q72 0 124 36t142 130l78 396q-4 2 -17 16t-25.5 23.5 t-33 21.5t-47 18.5t-57.5 6.5q-139 0 -221 -142.5t-82 -320.5z" />
<glyph unicode="A" horiz-adv-x="1185" d="M27 0l471 1434h186l475 -1434h-172l-143 453h-514l-142 -453h-161zM369 586h440l-219 692z" />
<glyph unicode="B" horiz-adv-x="1202" d="M186 0v1434h410q219 0 327.5 -95.5t108.5 -271.5q0 -119 -77.5 -196.5t-211.5 -94.5q164 -25 255.5 -117t91.5 -229q0 -195 -134.5 -312.5t-373.5 -117.5h-396zM346 133h285q135 0 217 82t82 203q0 125 -87 204.5t-255 79.5h-242v-569zM346 834h240q113 0 199.5 62 t86.5 165q0 119 -65.5 177t-200.5 62h-260v-466z" />
<glyph unicode="C" horiz-adv-x="1196" d="M102 723q0 336 166 532.5t463 196.5q164 0 322 -59l-37 -127q-125 53 -295 53q-215 0 -340 -156.5t-125 -417.5q0 -287 118 -455.5t328 -168.5q139 0 351 80l41 -107q-176 -106 -385 -106q-293 0 -450 197.5t-157 537.5z" />
<glyph unicode="D" horiz-adv-x="1325" d="M186 0v1434h363q305 0 489.5 -186.5t184.5 -479.5q0 -346 -201 -557t-537 -211h-299zM352 133h152q231 0 392 174t161 477q0 242 -147.5 379t-352.5 137h-205v-1167z" />
<glyph unicode="E" horiz-adv-x="1110" d="M186 0v1434h772v-134h-618v-454h567v-137h-567v-576h618v-133h-772z" />
<glyph unicode="F" horiz-adv-x="1044" d="M186 0v1434h775v-134h-621v-454h571v-137h-571v-709h-154z" />
<glyph unicode="G" horiz-adv-x="1323" d="M94 723q0 336 166 533.5t463 197.5q188 0 383 -74l-37 -127q-70 29 -182.5 48.5t-173.5 19.5q-215 0 -340 -157.5t-125 -418.5q0 -276 132 -450t339 -174q145 0 274 41v432h-299v133h453v-629q-193 -110 -406 -110q-297 0 -472 200.5t-175 534.5z" />
<glyph unicode="H" horiz-adv-x="1359" d="M186 0v1434h154v-623h680v623h154v-1434h-154v678h-680v-678h-154z" />
<glyph unicode="I" horiz-adv-x="526" d="M186 0v1434h154v-1434h-154z" />
<glyph unicode="J" horiz-adv-x="702" d="M2 8v129q111 -18 182 -18q102 0 140 94t38 254v846h-296v121h450v-1002q0 -446 -309 -446q-109 0 -205 22z" />
<glyph unicode="K" horiz-adv-x="1173" d="M186 0v1432h152v-646l598 648h188l-495 -545l508 -889h-193l-420 784l-184 -194v-590h-154z" />
<glyph unicode="L" horiz-adv-x="968" d="M186 0v1434h154v-1301h614v-133h-768z" />
<glyph unicode="M" horiz-adv-x="1509" d="M115 0v1434h172l469 -789l485 789h154v-1434h-154v1176l-461 -799l-53 2l-461 795v-1174h-151z" />
<glyph unicode="N" horiz-adv-x="1390" d="M186 0v1434h160l705 -1192v1192h153v-1436h-168l-690 1149v-1147h-160z" />
<glyph unicode="O" horiz-adv-x="1327" d="M94 727.5q0 321.5 144.5 524t423.5 202.5q281 0 426 -202.5t145 -524.5q0 -207 -59.5 -369.5t-191.5 -265t-320 -102.5q-281 0 -424.5 208t-143.5 529.5zM250 727q0 -258 105.5 -430t308.5 -172q207 0 311 174t104 438q0 152 -44 281t-141 216t-228 87 q-209 0 -312.5 -174t-103.5 -420z" />
<glyph unicode="P" horiz-adv-x="1107" d="M186 0v1434h410q229 0 332.5 -100.5t103.5 -307.5q0 -217 -127 -320.5t-356 -103.5h-209v-602h-154zM340 733h135q211 0 307.5 63.5t96.5 225.5q0 147 -84.5 214t-268.5 67h80h-266v-570z" />
<glyph unicode="Q" horiz-adv-x="1333" d="M94 727q0 322 144.5 524.5t423.5 202.5q281 0 426 -202.5t145 -524.5q0 -333 -141 -530l200 -207l-100 -101l-195 207q-136 -110 -331 -110h-4q-188 0 -319.5 103.5t-190 266t-58.5 371.5zM250 727q0 -258 105.5 -432t308.5 -174q135 0 231 78l-180 188l102 100l168 -182 q94 156 94 432q0 238 -109.5 412t-305.5 174q-109 0 -192 -51t-130 -138t-69.5 -189.5t-22.5 -217.5z" />
<glyph unicode="R" horiz-adv-x="1234" d="M186 2v1434h414q209 0 314.5 -95.5t105.5 -271.5q0 -123 -85 -225.5t-210 -118.5q100 -23 142 -65t100 -179l202 -479h-161l-199 459q-55 129 -123.5 171t-218.5 42h-127v-672h-154zM340 805h231q127 0 202 74.5t75 185.5q0 119 -67.5 179.5t-188.5 60.5h-252v-500z" />
<glyph unicode="S" horiz-adv-x="1128" d="M113 100l51 117q186 -86 368 -86q152 0 239 67.5t87 196.5q0 70 -40 121t-102.5 84t-139 61.5t-153.5 62.5t-139.5 77t-102.5 116.5t-40 172.5q0 176 105.5 270t290.5 94q171 0 370 -72l-33 -137l-119 36q-125 30 -218 30q-242 0 -242 -215q0 -94 73.5 -154.5t179 -96.5 t211 -78t179.5 -129t74 -220q0 -203 -125 -316.5t-355 -113.5q-115 0 -230.5 33.5t-188.5 78.5z" />
<glyph unicode="T" horiz-adv-x="1032" d="M41 1296v138h950v-138h-397v-1296h-152v1296h-401z" />
<glyph unicode="U" horiz-adv-x="1359" d="M186 528v906h156v-930q0 -182 87 -282.5t251 -100.5q158 0 248 99t90 284v930h156v-906q0 -268 -126 -404t-368 -136t-368 136t-126 404z" />
<glyph unicode="V" horiz-adv-x="1118" d="M27 1434h172l350 -1260l375 1260h168l-443 -1434h-215z" />
<glyph unicode="W" horiz-adv-x="1538" d="M27 1432h176l250 -1258l272 870h115l252 -870l258 1258h161l-340 -1432h-178l-209 831l-256 -831h-168z" />
<glyph unicode="X" horiz-adv-x="1196" d="M41 0l475 754l-432 682h195l329 -568l340 568h185l-439 -682l461 -754h-188l-365 645l-375 -645h-186z" />
<glyph unicode="Y" horiz-adv-x="1130" d="M27 1434h170l362 -664l379 664h166l-471 -789v-645h-154v645z" />
<glyph unicode="Z" horiz-adv-x="1040" d="M80 1300v134h838v-117l-650 -1182h713v-135h-899v127l655 1173h-657z" />
<glyph unicode="[" horiz-adv-x="696" d="M186 -410v2048h424v-133h-270v-1784h276v-131h-430z" />
<glyph unicode="\" horiz-adv-x="991" d="M80 1638h162l665 -1935h-164z" />
<glyph unicode="]" horiz-adv-x="696" d="M80 -279h276v1784h-270v133h424v-2048h-430v131z" />
<glyph unicode="^" horiz-adv-x="1308" d="M135 563l461 803h115l458 -803h-157l-359 654l-354 -654h-164z" />
<glyph unicode="_" horiz-adv-x="880" d="M0 -350h881v-133h-881v133z" />
<glyph unicode="`" horiz-adv-x="800" d="M156 1440l153 61l232 -289l-119 -43z" />
<glyph unicode="a" horiz-adv-x="1056" d="M102 297q1 315 527 315h84q0 186 -47.5 242.5t-200.5 56.5q-170 0 -283 -43l-28 119q172 57 356 57q360 0 360 -360v-684h-90l-53 121q-94 -78 -162.5 -105.5t-158.5 -27.5q-143 0 -223.5 85t-80.5 224zM256 309q0 -82 45 -137t117 -55q74 0 140.5 33.5t156.5 117.5v215 h-92q-209 0 -288 -41t-79 -133z" />
<glyph unicode="b" horiz-adv-x="1118" d="M186 0v1434h154v-512q176 125 315 125q369 0 369 -531q0 -150 -35 -257t-96.5 -163.5t-128 -82t-146 -25.5t-161.5 35.5t-135 76.5l-46 -100h-90zM340 219q41 -47 109.5 -73.5t134.5 -26.5q160 0 223 94t63 299q0 197 -63.5 299t-161.5 102q-147 0 -305 -137v-557z" />
<glyph unicode="c" horiz-adv-x="886" d="M90 530q0 250 114.5 382t338.5 132q96 0 270 -49l-61 -118q-110 32 -198 32h-5q-156 0 -224.5 -92t-68.5 -291q0 -403 289 -403q114 0 243 37l31 -121q-164 -49 -289 -49q-219 0 -329.5 143t-110.5 397z" />
<glyph unicode="d" horiz-adv-x="1110" d="M86 514q0 150 35 257.5t96.5 163.5t128 81.5t146.5 25.5q137 0 278 -100v492h154v-1434h-90l-52 117q-188 -133 -327 -133q-369 0 -369 530zM240 518q0 -197 63.5 -299t161.5 -102q147 0 305 137v532q-43 51 -113.5 88t-130.5 37q-160 0 -223 -94t-63 -299z" />
<glyph unicode="e" horiz-adv-x="1001" d="M90 512q0 246 120 389t306 143q180 0 282.5 -118.5t102.5 -321.5q0 -55 -4 -125h-653q0 -197 93 -278.5t234 -81.5q23 0 42.5 1t41 4t33.5 6t38 10t36 10.5t43 13.5t45 14l24 -119q-202 -71 -316 -71h-3q-211 0 -338 128t-127 396zM254 596h500q0 152 -53.5 233.5 t-184.5 81.5q-133 0 -194.5 -88t-67.5 -227z" />
<glyph unicode="f" horiz-adv-x="595" d="M72 901v123h159v197q0 125 77 179t188 54q68 0 151 -27l-22 -110q-68 12 -101 12q-141 0 -141 -137v-168h209v-123h-209v-901h-154v901h-157z" />
<glyph unicode="g" horiz-adv-x="1110" d="M86 516q0 150 35 257.5t96.5 163.5t128 81.5t146.5 25.5q176 0 288 -151l54 133h90v-1077q0 -223 -111 -332t-299 -109q-55 0 -113.5 12.5t-96.5 25t-120 42.5l29 109q172 -55 301 -55q102 0 178 71.5t76 216.5v179l-14 -11q-155 -112 -296 -112h-3q-369 0 -369 530z M238 520q0 -401 225 -401q147 0 305 137v383q0 121 -80 196.5t-164 75.5q-160 0 -223 -93t-63 -298z" />
<glyph unicode="h" horiz-adv-x="1138" d="M186 0v1434h152v-486q45 37 70.5 53.5t84 33t132.5 16.5q141 0 234 -86t93 -246v-719h-153v674q0 248 -207 248q-154 0 -252 -99v-823h-154z" />
<glyph unicode="i" horiz-adv-x="466" d="M158 0v1024h153v-1024h-153zM158 1251v183h153v-183h-153z" />
<glyph unicode="j" horiz-adv-x="454" d="M61 -418q84 109 84 348v1094h154v-1044q0 -176 -34 -281t-113 -188zM145 1253v181h154v-181h-154z" />
<glyph unicode="k" horiz-adv-x="1042" d="M186 0v1434h154v-844l438 434h195l-434 -416l456 -608h-174l-372 512l-109 -111v-401h-154z" />
<glyph unicode="l" horiz-adv-x="526" d="M186 0v1434h154v-1434h-154z" />
<glyph unicode="m" horiz-adv-x="1740" d="M186 0v1024h99l26 -104q51 43 79 62t91 42t137 23q197 0 281 -140q174 139 326 140q143 0 236 -83t93 -241v-723h-149v659q0 125 -56.5 189.5t-150.5 64.5q-129 0 -260 -102q10 -45 10 -88v-723h-149v659q0 125 -56.5 189.5t-150.5 64.5q-61 0 -112.5 -16t-76 -32.5 t-63.5 -49.5v-815h-154z" />
<glyph unicode="n" horiz-adv-x="1134" d="M186 0v1024h99l24 -100q47 37 77 57t95.5 41.5t139.5 21.5q141 0 234 -87t93 -246v-711h-153v666q0 247 -205 247h-2q-148 0 -248 -100v-813h-154z" />
<glyph unicode="o" d="M86 512q0 250 109.5 391t320.5 141q213 0 335 -143t122 -389t-117 -385t-330 -139t-326.5 138t-113.5 386zM240 508q0 -387 284 -387q150 0 222.5 93t72.5 294q0 195 -78 299t-219 104q-158 0 -220 -99t-62 -304z" />
<glyph unicode="p" horiz-adv-x="1118" d="M186 -487v1509h90l54 -115q86 66 160.5 101.5t164.5 35.5q369 0 369 -530q0 -150 -35 -257t-96.5 -163.5t-128 -82t-146.5 -25.5q-139 0 -278 98v-571h-154zM340 223q41 -49 110.5 -77.5t133.5 -28.5q160 0 223 94t63 299q0 197 -63.5 299t-161.5 102q-66 0 -130 -26.5 t-96 -50t-79 -64.5v-547z" />
<glyph unicode="q" horiz-adv-x="1110" d="M86 485q0 254 94 406.5t301 152.5q145 0 299 -137l54 117h90v-1516h-154v607l-33 -32q-33 -32 -55.5 -47.5t-76.5 -32.5t-120 -17q-170 0 -284.5 120.5t-114.5 378.5zM240 522q0 -403 266 -403q80 0 152.5 45t111.5 119v473q-41 63 -131 109t-166 46q-121 0 -177 -92 t-56 -297z" />
<glyph unicode="r" horiz-adv-x="759" d="M186 0v1024h99l24 -121q98 78 164 109.5t150 31.5q16 0 30.5 -1t24.5 -3t18.5 -4t12.5 -3l4 -1l-25 -141q-37 12 -100 12q-123 0 -248 -121v-782h-154z" />
<glyph unicode="s" horiz-adv-x="892" d="M111 68l36 114q134 -61 265 -61q111 0 173 48t62 140q0 68 -53 112t-130 68.5t-154 53t-130 86t-53 145.5q0 129 84 199.5t238 70.5q132 0 256 -42l14 -7l-27 -131l-7 3q-7 3 -19.5 7.5t-30 9.5t-39 9t-45 8t-49 7t-49.5 3q-94 0 -133 -32.5t-39 -110.5q0 -49 53 -84 t130 -60.5t153.5 -59.5t130 -101.5t53.5 -165.5q0 -143 -100.5 -226t-280.5 -83q-172 0 -309 80z" />
<glyph unicode="t" horiz-adv-x="708" d="M72 901v123h141v293h154v-293h249v-123h-251v-651q0 -137 139 -137q33 0 100 12l23 -111q-81 -26 -147 -26h-5q-111 0 -187.5 54t-76.5 179v680h-139z" />
<glyph unicode="u" horiz-adv-x="1114" d="M166 322v702h153v-678q0 -121 36 -174t126 -53q76 0 162 45t129 96v764h156v-1024h-90l-52 121q-164 -133 -327 -133q-135 0 -214 87t-79 247z" />
<glyph unicode="v" horiz-adv-x="911" d="M23 1026h174l260 -862l262 862h170l-346 -1026h-176z" />
<glyph unicode="w" horiz-adv-x="1390" d="M23 1024h159l228 -862l211 862h151l227 -870l209 870h160l-281 -1024h-180l-211 809l-198 -809h-176z" />
<glyph unicode="x" horiz-adv-x="892" d="M49 0l313 522l-301 504h170l215 -362l216 362h169l-301 -504l314 -522h-170l-228 406l-227 -406h-170z" />
<glyph unicode="y" horiz-adv-x="911" d="M23 1024h174l260 -860l262 860h170l-352 -1024q-68 -199 -150 -307.5t-211 -175.5l-57 106q82 47 153.5 139.5t96.5 217.5z" />
<glyph unicode="z" horiz-adv-x="862" d="M100 0v123l451 768h-451v133h629v-123l-450 -768h475v-133h-654z" />
<glyph unicode="{" horiz-adv-x="729" d="M61 569v95q111 0 152 62t41 198v307q0 410 371 409h43v-131h-41q-127 0 -173 -65.5t-46 -233.5v-313q0 -141 -29 -194.5t-127 -79.5q90 -18 123 -80t33 -191v-309q0 -190 49 -257t176 -67h35v-131h-47q-176 0 -271.5 92.5t-95.5 309.5v307q0 272 -193 272z" />
<glyph unicode="|" horiz-adv-x="595" d="M221 -416v2054h154v-2054h-154z" />
<glyph unicode="}" horiz-adv-x="729" d="M61 -281h35q127 0 176.5 67t49.5 257v309q0 129 32.5 190.5t122.5 80.5q-98 27 -126.5 80t-28.5 194v313q0 168 -46.5 233.5t-173.5 65.5h-41v131h43q371 0 371 -409v-307q0 -135 41 -197.5t152 -62.5v-95q-193 0 -193 -272v-307q0 -217 -95 -309.5t-271 -92.5h-48v131z " />
<glyph unicode="~" horiz-adv-x="1079" d="M111 588q39 57 103.5 94t135.5 37q94 0 205 -61.5t184 -61.5q84 0 179 94l51 -59q-37 -80 -100.5 -124t-139.5 -44q-94 0 -204.5 60.5t-184.5 60.5q-86 0 -178 -92z" />
<glyph unicode="&#xa1;" horiz-adv-x="544" d="M195 -219v1046h153v-1046h-153zM197 1026v191h153v-191h-153z" />
<glyph unicode="&#xa2;" horiz-adv-x="780" d="M90 627q0 348 234 415v199h133v-197q106 0 237 -38l-43 -123q-90 27 -170 26q-131 0 -184 -62.5t-53 -219.5q0 -162 50 -232.5t171 -70.5q97 -1 201 30l26 -129q-127 -37 -235 -37v-188h-133v193q-233 74 -234 434z" />
<glyph unicode="&#xa3;" horiz-adv-x="1105" d="M123 717v133h139v371q0 125 80 180t193 55q61 0 151 -29l-22 -110q-68 12 -101 12q-68 0 -107.5 -39t-39.5 -114v-326h342v-133h-342v-584h557v-133h-711v717h-139z" />
<glyph unicode="&#xa4;" horiz-adv-x="1245" d="M113 1001l108 109l111 -111q111 84 278 84q186 0 303 -98l129 129l95 -94l-136 -135q72 -115 72 -283q0 -162 -67 -280l127 -127l-109 -109l-123 121q-111 -82 -283 -82q-180 0 -288 90l-113 -113l-92 95l119 118q-68 115 -68 287q0 164 57 277zM319 596 q0 -147 82 -242.5t215 -95.5q152 0 233 89t81 249q0 158 -84 256t-231.5 98t-221.5 -98t-74 -256z" />
<glyph unicode="&#xa5;" horiz-adv-x="1249" d="M90 1434h170l365 -684l376 684h166l-471 -818h1h1h1h1h1h1h2h2h2h2h2h3h1h3h1h3h2h1h4h1h2h2h1h4h2h2h2h2h1h2h2h3h2h2h2h2h2h2h2h3h2h2h3h2h2h3h2h2h3h2h3h2h3h2h3h3h2h3h3h2h3h3h2h3h3h3h2h3h3h3h3h3h3h3h3h2h3h3h3h4h3h3h3h3h3h3h3h3h4h3h3h3h3h4h3h3h4h3h3h4h3h3h4h3 h4h3h3h4h3h4h3h4h4h3h4h3h4h3h4h4h3h4h4h4h3h4h4h3h4h4h4h4h18v-133h-381v-178h381v-133h-381v-172h-153v172h-344v133h344v178h-344v133h344z" />
<glyph unicode="&#xa6;" horiz-adv-x="643" d="M246 -397v809h133v-809h-133zM246 846v805h133v-805h-133z" />
<glyph unicode="&#xa7;" horiz-adv-x="1236" d="M156 639q0 174 243 338q-76 76 -75 174q0 156 89 229.5t269 73.5q66 0 133.5 -14.5t102.5 -27.5l34 -13l-24 -127q-121 49 -250 49q-82 0 -140.5 -42t-58.5 -134q0 -61 61.5 -114.5t148.5 -96.5t174 -91t148.5 -125t61.5 -173t-43 -162t-153 -143q127 -94 127 -242 q0 -139 -114 -229.5t-317 -90.5q-76 0 -165 27t-146 62l39 133q141 -88 291 -88q129 0 193.5 51t64.5 141q0 82 -71.5 142.5t-173 100.5t-204 84t-174 121.5t-71.5 186.5zM309 639q0 -78 70 -129t199 -103.5t186 -89.5q10 8 32.5 23.5t31.5 21.5l25 20q17 13 23.5 22.5 t17.5 24.5t15 30.5t7.5 36t3.5 45.5q0 53 -25 97t-73 77t-95 58.5t-114.5 59t-108.5 60.5q-195 -127 -195 -254z" />
<glyph unicode="&#xa8;" horiz-adv-x="1050" d="M252 1452v217h145v-217h-145zM618 1452v217h146v-217h-146z" />
<glyph unicode="&#xa9;" horiz-adv-x="1128" d="M135 520q0 264 104.5 413.5t309.5 149.5q207 0 324.5 -151.5t117.5 -411.5q0 -258 -113.5 -408.5t-320.5 -150.5q-205 0 -313.5 149.5t-108.5 409.5zM248 514q0 -199 85 -325t222 -126q158 0 241 120t83 331q0 209 -87 338t-239 129q-154 0 -229.5 -128t-75.5 -339z M330 524q0 139 64.5 213t187.5 74q33 0 153 -27l-33 -82q-70 18 -106 19q-90 0 -126 -41t-36 -150q0 -219 160 -219q66 1 125 21l18 -84q-86 -25 -162 -25q-123 0 -184 80t-61 221z" />
<glyph unicode="&#xaa;" horiz-adv-x="743" d="M106 928q0 198 334 198l54 -2q0 117 -29 149t-127 32q-113 0 -180 -29l-19 90q104 37 223 37q231 0 232 -229v-435h-57l-33 78q-61 -51 -104.5 -67.5t-100.5 -16.5q-92 0 -142.5 53.5t-50.5 141.5zM111 479v113h489v-113h-489zM207 934q0 -47 25.5 -76t68.5 -29 q88 0 186 93v112h-67q-125 0 -169 -22.5t-44 -77.5z" />
<glyph unicode="&#xab;" horiz-adv-x="1046" d="M123 608l287 453l100 -39l-223 -410l223 -413l-104 -39zM522 608l271 428l100 -37l-211 -387l211 -391l-102 -39z" />
<glyph unicode="&#xac;" d="M78 551v133h878v-428h-153v295h-725z" />
<glyph unicode="&#xad;" horiz-adv-x="819" d="M0 526v133h819v-133h-819z" />
<glyph unicode="&#xae;" horiz-adv-x="1128" d="M135 895q0 264 104.5 413.5t309.5 149.5q207 0 324.5 -151.5t117.5 -411.5q0 -258 -113.5 -408.5t-320.5 -150.5q-205 0 -313.5 149.5t-108.5 409.5zM248 889q0 -199 85 -325t222 -126q158 0 246 121t88 330q0 207 -91 337t-245 130t-229.5 -128t-75.5 -339zM381 625v571 h176q174 0 174 -147q0 -47 -34.5 -88t-84.5 -46q39 -10 54.5 -26.5t44.5 -71.5l86 -192h-95l-75 161q-25 51 -54 68.5t-86 17.5h-24v-247h-82zM463 969h84q102 0 102 80q0 77 -90 77h-96v-157z" />
<glyph unicode="&#xaf;" horiz-adv-x="1017" d="M180 1257v134h649v-134h-649z" />
<glyph unicode="&#xb0;" horiz-adv-x="925" d="M119 1249q0 141 100 240.5t242 99.5q143 0 242.5 -98.5t99.5 -241.5q0 -141 -100.5 -240.5t-241.5 -99.5q-143 0 -242.5 98.5t-99.5 241.5zM240 1253.5q0 -94.5 64.5 -161t154.5 -66.5q92 0 155.5 65.5t63.5 161.5q0 94 -64.5 160t-154.5 66t-154.5 -65.5t-64.5 -160z " />
<glyph unicode="&#xb1;" horiz-adv-x="1030" d="M94 -2v133h844v-133h-844zM94 731v133h336v410h154v-410h354v-133h-354v-395h-154v395h-336z" />
<glyph unicode="&#xb2;" horiz-adv-x="892" d="M207 662v65q127 127 178 183.5t95 124t44 118.5q0 115 -125 115q-37 0 -77.5 -5.5t-63.5 -11.5l-22 -6l10 82q100 29 196 29q98 0 149.5 -44t51.5 -118q0 -102 -63.5 -200.5t-219.5 -235.5h336l-18 -96h-471z" />
<glyph unicode="&#xb3;" horiz-adv-x="870" d="M197 639l26 88q61 -37 152 -37q76 0 124 26.5t48 80.5q0 129 -178 129h-80v108h84q74 0 114.5 34t40.5 93q0 57 -30.5 76.5t-112.5 19.5q-81 0 -149 -47l-21 95q84 51 184 51q115 0 171.5 -51.5t56.5 -139.5q0 -70 -40 -122t-104 -64q74 -10 121 -56t47 -116 q0 -102 -68.5 -160.5t-191.5 -58.5q-51 0 -100 13t-72 26z" />
<glyph unicode="&#xb4;" horiz-adv-x="827" d="M207 1212l231 289l154 -61l-266 -271z" />
<glyph unicode="&#xb5;" horiz-adv-x="1142" d="M188 -483v1507h156v-678q0 -121 36 -175t126 -54q143 0 291 143v764h155v-1024h-90l-51 121q-63 -45 -98 -67.5t-91.5 -44t-111.5 -21.5q-41 0 -83 8t-63 16l-22 8v-503h-154z" />
<glyph unicode="&#x3bc;" horiz-adv-x="1142" d="M188 -483v1507h156v-678q0 -121 36 -175t126 -54q143 0 291 143v764h155v-1024h-90l-51 121q-63 -45 -98 -67.5t-91.5 -44t-111.5 -21.5q-41 0 -83 8t-63 16l-22 8v-503h-154z" />
<glyph unicode="&#xb6;" horiz-adv-x="1226" d="M143 1087.5q0 149.5 98.5 258t309.5 108.5h543v-123h-144v-1747h-133v1747h-186v-1747h-133v1149q-160 0 -257.5 102.5t-97.5 252z" />
<glyph unicode="&#xb7;" horiz-adv-x="370" d="M109 506v211h153v-211h-153z" />
<glyph unicode="&#xb8;" horiz-adv-x="772" d="M328 -299q53 109 68.5 159t15.5 140h145q0 -98 -23.5 -163.5t-105.5 -198.5z" />
<glyph unicode="&#xb9;" horiz-adv-x="774" d="M109 1227l210 129h103v-658h-103v531l-169 -103zM176 647v98h389v-98h-389z" />
<glyph unicode="&#xba;" horiz-adv-x="757" d="M104 1079q0 150 66 252.5t201 102.5q272 0 272 -355q0 -346 -276 -346q-133 0 -198 93.5t-65 252.5zM127 479v111h489v-111h-489zM227 1081q0 -246 144 -245q150 0 149 245q0 111 -36.5 180.5t-110.5 69.5q-72 0 -109 -69.5t-37 -180.5z" />
<glyph unicode="&#xbb;" horiz-adv-x="1046" d="M154 221l211 387l-211 391l102 39l268 -426l-270 -428zM537 199l223 409l-223 414l104 39l283 -449l-287 -452z" />
<glyph unicode="&#xbc;" horiz-adv-x="1810" d="M113 1227l211 129h102v-611h143v-98h-389v98h142v484l-168 -103zM352 0l836 1409h149l-835 -1409h-150zM1001 174v84l345 616h118l-334 -598h287v236h105v-238h139v-100h-139v-174h-105v174h-416z" />
<glyph unicode="&#xbd;" horiz-adv-x="1671" d="M86 1227l211 129h102v-611h144v-98h-389v98h143v484l-170 -103zM352 0l836 1409h149l-835 -1409h-150zM1071 0v68q129 129 179 182t94.5 120.5t44.5 118.5q0 115 -125 115q-37 0 -78 -5t-64 -11l-22 -6l10 82q100 29 197 28q98 0 149 -44t51 -118q0 -102 -63.5 -200.5 t-218.5 -235.5h336l-19 -94h-471z" />
<glyph unicode="&#xbe;" horiz-adv-x="1814" d="M170 637l27 88q61 -37 151 -37q76 0 124 26.5t48 80.5q0 129 -178 129h-80v108h84q74 0 115 34t41 93q0 57 -31 76.5t-113 19.5q-81 0 -149 -47l-21 95q84 51 185 51q115 0 171 -51.5t56 -139.5q0 -70 -40 -122t-103 -64q74 -10 121 -56.5t47 -115.5q0 -102 -69 -160.5 t-191 -58.5q-51 0 -100.5 12t-71.5 26zM352 0l836 1409h149l-835 -1409h-150zM1001 174v84l345 616h118l-334 -598h287v236h107v-238h137v-100h-139v-174h-105v174h-416z" />
<glyph unicode="&#xbf;" horiz-adv-x="948" d="M133 88q0 86 34 155.5t83 118t97 94.5t82 109.5t34 141.5v129h151v-119q0 -90 -33.5 -165t-81.5 -124t-96.5 -95t-82 -103.5t-33.5 -125.5q0 -190 227 -190q133 0 248 39l22 -119q-166 -55 -297 -55q-166 0 -260 83t-94 226zM465 1044v201h153v-201h-153z" />
<glyph unicode="&#xc0;" horiz-adv-x="1185" d="M27 0l471 1434h186l475 -1434h-172l-143 453h-514l-142 -453h-161zM315 1796h172l154 -254h-125zM369 586h440l-219 692z" />
<glyph unicode="&#xc1;" horiz-adv-x="1185" d="M27 0l471 1434h186l475 -1434h-172l-143 453h-514l-142 -453h-161zM369 586h440l-219 692zM520 1540l154 254h172l-201 -254h-125z" />
<glyph unicode="&#xc2;" horiz-adv-x="1185" d="M27 0l471 1434h186l475 -1434h-172l-143 453h-514l-142 -453h-161zM369 586h440l-219 692zM266 1598l283 204h96l278 -204l-38 -60l-289 154l-291 -154z" />
<glyph unicode="&#xc3;" horiz-adv-x="1185" d="M27 0l471 1434h186l475 -1434h-172l-143 453h-514l-142 -453h-161zM229 1638q12 16 32 40t69 64t86 40q43 0 161.5 -56.5t145.5 -56.5q59 0 119 78l69 -53q-12 -16 -31.5 -40t-69.5 -64t-87 -40q-43 0 -162 56.5t-145 56.5q-59 0 -119 -78zM369 586h440l-219 692z" />
<glyph unicode="&#xc4;" horiz-adv-x="1185" d="M27 0l471 1434h186l475 -1434h-172l-143 453h-514l-142 -453h-161zM369 586h440l-219 692zM338 1546v217h145v-217h-145zM704 1546v217h146v-217h-146z" />
<glyph unicode="&#xc5;" horiz-adv-x="1185" d="M27 0l471 1434h186l475 -1434h-172l-143 453h-514l-142 -453h-161zM365 1767q0 98 57 161t170 63t172 -62.5t59 -161.5q0 -106 -57 -166.5t-172 -60.5t-172 60.5t-57 166.5zM369 586h440l-219 692zM479 1767q0 -63 24.5 -98t90.5 -35q68 0 93.5 35t25.5 98 q0 134 -119 134q-115 0 -115 -134z" />
<glyph unicode="&#xc6;" horiz-adv-x="1742" d="M27 0l671 1434h893v-134h-659v-454h608v-137h-608v-576h659v-133h-813v453h-368l-222 -453h-161zM471 586h307v712z" />
<glyph unicode="&#xc7;" horiz-adv-x="1196" d="M102 723q0 336 165 531.5t462 195.5q172 0 324 -59l-37 -127q-125 53 -295 53q-215 0 -340 -155.5t-125 -416.5q0 -287 118 -455.5t328 -168.5q147 0 351 80l41 -107q-93 -57 -318 -104q0 -98 -23.5 -164t-105.5 -199l-100 64q53 106 67.5 156.5t14.5 144.5 q-256 27 -391.5 221.5t-135.5 509.5z" />
<glyph unicode="&#xc8;" horiz-adv-x="1110" d="M186 0v1434h772v-134h-618v-454h567v-137h-567v-576h618v-133h-772zM350 1796h172l154 -254h-125z" />
<glyph unicode="&#xc9;" horiz-adv-x="1110" d="M186 0v1434h772v-134h-618v-454h567v-137h-567v-576h618v-133h-772zM440 1540l154 254h172l-201 -254h-125z" />
<glyph unicode="&#xca;" horiz-adv-x="1112" d="M186 0v1434h772v-134h-618v-454h567v-137h-567v-576h618v-133h-772zM205 1597l282 205h97l278 -205l-39 -59l-288 154l-291 -154z" />
<glyph unicode="&#xcb;" horiz-adv-x="1110" d="M186 0v1434h772v-134h-618v-454h567v-137h-567v-576h618v-133h-772zM309 1546v217h146v-217h-146zM676 1546v217h145v-217h-145z" />
<glyph unicode="&#xcc;" horiz-adv-x="518" d="M45 1796h172l154 -254h-125zM229 0v1434h154v-1434h-154z" />
<glyph unicode="&#xcd;" horiz-adv-x="520" d="M129 0v1434h154v-1434h-154zM143 1542l154 254h172l-201 -254h-125z" />
<glyph unicode="&#xce;" horiz-adv-x="638" d="M-2 1604l283 204h96l278 -204l-39 -60l-288 154l-291 -154zM248 0v1434h153v-1434h-153z" />
<glyph unicode="&#xcf;" horiz-adv-x="462" d="M-27 1546v217h146v-217h-146zM152 0v1434h153v-1434h-153zM340 1546v217h145v-217h-145z" />
<glyph unicode="&#xd0;" horiz-adv-x="1423" d="M74 649v133h170v652h362q305 0 489.5 -186.5t184.5 -479.5q0 -346 -200.5 -557t-536.5 -211h-299v649h-170zM410 133h151q231 0 392 174t161 477q0 242 -147.5 379t-352.5 137h-204v-518h360v-133h-360v-516z" />
<glyph unicode="&#xd1;" horiz-adv-x="1390" d="M186 0v1434h160l705 -1192v1192h153v-1436h-168l-690 1149v-1147h-160zM326 1647q12 16 31.5 39.5t68.5 63.5t86 40q43 0 162 -56.5t145 -56.5q59 0 119 78l70 -53v-14q-12 -16 -32 -40t-70 -64t-87 -40q-43 0 -161.5 56.5t-145.5 56.5q-59 0 -119 -78z" />
<glyph unicode="&#xd2;" horiz-adv-x="1327" d="M94 727.5q0 -321.5 143.5 -529.5t424.5 -208q188 0 320 102.5t191.5 265t59.5 369.5q0 322 -145.5 524.5t-425.5 202.5q-279 0 -423.5 -202.5t-144.5 -524zM250 727q0 246 103.5 420t312.5 174q131 0 228 -87t141 -216t44 -281q0 -264 -104.5 -438t-310.5 -174 q-203 0 -308.5 172t-105.5 430zM362 1796h173l153 -254h-125z" />
<glyph unicode="&#xd3;" horiz-adv-x="1327" d="M94 727.5q0 -321.5 143.5 -529.5t424.5 -208q188 0 320 102.5t191.5 265t59.5 369.5q0 322 -145.5 524.5t-425.5 202.5q-279 0 -423.5 -202.5t-144.5 -524zM250 727q0 246 103.5 420t312.5 174q131 0 228 -87t141 -216t44 -281q0 -264 -104.5 -438t-310.5 -174 q-203 0 -308.5 172t-105.5 430zM565 1542l154 254h172l-201 -254h-125z" />
<glyph unicode="&#xd4;" horiz-adv-x="1327" d="M94 727.5q0 321.5 144.5 524t423.5 202.5q281 0 426 -202.5t145 -524.5q0 -207 -59.5 -369.5t-191.5 -265t-320 -102.5q-281 0 -424.5 208t-143.5 529.5zM250 727q0 -258 105.5 -430t308.5 -172q207 0 311 174t104 438q0 152 -44 281t-141 216t-228 87 q-209 0 -312.5 -174t-103.5 -420zM334 1604l283 204h96l278 -204l-38 -60l-289 154l-291 -154z" />
<glyph unicode="&#xd5;" horiz-adv-x="1327" d="M94 727.5q0 -321.5 143.5 -529.5t424.5 -208q188 0 320 102.5t191.5 265t59.5 369.5q0 322 -145.5 524.5t-425.5 202.5q-279 0 -423.5 -202.5t-144.5 -524zM250 727q0 246 103.5 420t312.5 174q131 0 228 -87t141 -216t44 -281q0 -264 -104.5 -438t-310.5 -174 q-203 0 -308.5 172t-105.5 430zM274 1632q12 16 32 40t69 64t86 40q43 0 161.5 -56.5t145.5 -56.5q59 0 119 78l69 -53q-12 -16 -31.5 -40t-69.5 -64t-87 -40q-43 0 -162 56.5t-145 56.5q-59 0 -119 -78z" />
<glyph unicode="&#xd6;" horiz-adv-x="1327" d="M94 727.5q0 -321.5 143.5 -529.5t424.5 -208q188 0 320 102.5t191.5 265t59.5 369.5q0 322 -145.5 524.5t-425.5 202.5q-279 0 -423.5 -202.5t-144.5 -524zM250 727q0 246 103.5 420t312.5 174q131 0 228 -87t141 -216t44 -281q0 -264 -104.5 -438t-310.5 -174 q-203 0 -308.5 172t-105.5 430zM408 1544v217h145v-217h-145zM774 1544v217h146v-217h-146z" />
<glyph unicode="&#xd7;" horiz-adv-x="1245" d="M113 1001l108 109l408 -410l413 414l95 -94l-414 -414l410 -411l-109 -109l-410 412l-397 -396l-92 95l395 395z" />
<glyph unicode="&#xd8;" horiz-adv-x="1327" d="M94 727q0 322 144.5 524.5t423.5 202.5q94 0 180 -27l71 211h142l-97 -280q129 -94 202 -260t73 -371q0 -207 -59.5 -369.5t-191.5 -265t-320 -102.5q-117 0 -162 33l-90 -246h-140l99 295q-137 90 -206 262t-69 393zM250 727q0 -360 180 -516l365 1085q-58 25 -129 25 q-209 0 -312.5 -174t-103.5 -420zM559 139q45 -14 105 -14q207 0 311 174t104 438q0 137 -41.5 268.5t-117.5 213.5z" />
<glyph unicode="&#xd9;" horiz-adv-x="1359" d="M186 528q0 -268 126 -404t368 -136t368 136t126 404v906h-156v-930q0 -184 -90 -283.5t-248 -99.5q-164 0 -251 100.5t-87 282.5v930h-156v-906zM426 1798h172l154 -254h-125z" />
<glyph unicode="&#xda;" horiz-adv-x="1359" d="M186 528q0 -268 126 -404t368 -136t368 136t126 404v906h-156v-930q0 -184 -90 -283.5t-248 -99.5q-164 0 -251 100.5t-87 282.5v930h-156v-906zM610 1542l154 254h172l-201 -254h-125z" />
<glyph unicode="&#xdb;" horiz-adv-x="1359" d="M186 528v906h156v-930q0 -182 87 -282.5t251 -100.5q158 0 248 99t90 284v930h156v-906q0 -268 -126 -404t-368 -136t-368 136t-126 404zM352 1604l283 204h96l278 -204l-38 -60l-289 154l-291 -154z" />
<glyph unicode="&#xdc;" horiz-adv-x="1359" d="M186 528v906h156v-930q0 -182 87 -282.5t251 -100.5q158 0 248 99t90 284v930h156v-906q0 -268 -126 -404t-368 -136t-368 136t-126 404zM426 1544v217h145v-217h-145zM792 1544v217h146v-217h-146z" />
<glyph unicode="&#xdd;" horiz-adv-x="1130" d="M27 1434h170l362 -664l379 664h166l-471 -789v-645h-154v645zM467 1540l154 254h172l-201 -254h-125z" />
<glyph unicode="&#xde;" horiz-adv-x="1118" d="M182 0v1434h142v-226h268q231 -2 333.5 -102t102.5 -305q0 -217 -127 -320.5t-356 -103.5h-209v-377h-154zM336 508h135q211 0 307 63.5t96 225.5q0 147 -84 213.5t-268 66.5h80h-266v-569z" />
<glyph unicode="&#xdf;" horiz-adv-x="1163" d="M186 0v1090q0 188 94.5 276t299.5 88q211 0 323.5 -106.5t112.5 -260.5q0 -135 -72 -211.5t-201 -93.5q141 -18 235.5 -119t94.5 -257q0 -203 -133 -310.5t-379 -107.5q-35 0 -65 10v108q219 0 321.5 79t102.5 243q0 106 -89.5 189t-252.5 85h-58v132h55q109 0 198 71.5 t89 175.5q0 106 -68.5 173t-187.5 67q-166 0 -216 -72.5t-50 -228.5v-1020h-154z" />
<glyph unicode="&#xe0;" horiz-adv-x="1056" d="M102 297q1 315 527 315h84q0 186 -47.5 242.5t-200.5 56.5q-170 0 -283 -43l-28 119q172 57 356 57q360 0 360 -360v-684h-90l-53 121q-94 -78 -162.5 -105.5t-158.5 -27.5q-143 0 -223.5 85t-80.5 224zM256 309q0 -82 45 -137t117 -55q74 0 140.5 33.5t156.5 117.5v215 h-92q-209 0 -288 -41t-79 -133zM248 1440l153 61l232 -289l-119 -43z" />
<glyph unicode="&#xe1;" horiz-adv-x="1056" d="M102 297q1 315 527 315h84q0 186 -47.5 242.5t-200.5 56.5q-170 0 -283 -43l-28 119q172 57 356 57q360 0 360 -360v-684h-90l-53 121q-94 -78 -162.5 -105.5t-158.5 -27.5q-143 0 -223.5 85t-80.5 224zM256 309q0 -82 45 -137t117 -55q74 0 140.5 33.5t156.5 117.5v215 h-92q-209 0 -288 -41t-79 -133zM490 1212l231 289l154 -61l-266 -271z" />
<glyph unicode="&#xe2;" horiz-adv-x="1056" d="M102 297q1 315 527 315h84q0 186 -47.5 242.5t-200.5 56.5q-170 0 -283 -43l-28 119q172 57 356 57q360 0 360 -360v-684h-90l-53 121q-94 -78 -162.5 -105.5t-158.5 -27.5q-143 0 -223.5 85t-80.5 224zM186 1253l283 205h96l279 -205l-39 -59l-289 154l-291 -154z M256 309q0 -82 45 -137t117 -55q74 0 140.5 33.5t156.5 117.5v215h-92q-209 0 -288 -41t-79 -133z" />
<glyph unicode="&#xe3;" horiz-adv-x="1056" d="M102 297q1 315 527 315h84q0 186 -47.5 242.5t-200.5 56.5q-170 0 -283 -43l-28 119q172 57 356 57q360 0 360 -360v-684h-90l-53 121q-94 -78 -162.5 -105.5t-158.5 -27.5q-143 0 -223.5 85t-80.5 224zM176 1290q12 16 31.5 40t69 64t85.5 40q43 0 162 -56.5t146 -56.5 q59 0 118 78l70 -53v-15q-12 -16 -31.5 -39.5t-69.5 -63.5t-87 -40q-43 0 -162 56t-146 56q-59 0 -118 -77zM256 309q0 -82 45 -137t117 -55q74 0 140.5 33.5t156.5 117.5v215h-92q-209 0 -288 -41t-79 -133z" />
<glyph unicode="&#xe4;" horiz-adv-x="1056" d="M102 297q1 315 527 315h84q0 186 -47.5 242.5t-200.5 56.5q-170 0 -283 -43l-28 119q172 57 356 57q360 0 360 -360v-684h-90l-53 121q-94 -78 -162.5 -105.5t-158.5 -27.5q-143 0 -223.5 85t-80.5 224zM256 309q0 -82 45 -137t117 -55q74 0 140.5 33.5t156.5 117.5v215 h-92q-209 0 -288 -41t-79 -133zM260 1216v217h145v-217h-145zM626 1216v217h146v-217h-146z" />
<glyph unicode="&#xe5;" horiz-adv-x="1056" d="M102 297q1 315 527 315h84q0 186 -47.5 242.5t-200.5 56.5q-170 0 -283 -43l-28 119q172 57 356 57q360 0 360 -360v-684h-90l-53 121q-94 -78 -162.5 -105.5t-158.5 -27.5q-143 0 -223.5 85t-80.5 224zM256 309q0 -82 45 -137t117 -55q74 0 140.5 33.5t156.5 117.5v215 h-92q-209 0 -288 -41t-79 -133zM291 1358q0 98 57.5 160.5t170 62.5t172 -62.5t59.5 -160.5q0 -106 -57.5 -167t-172 -61t-172 60.5t-57.5 167.5zM406 1358q0 -63 24.5 -98t90.5 -35q68 0 93 34.5t25 98.5q1 133 -118 133q-115 0 -115 -133z" />
<glyph unicode="&#xe6;" horiz-adv-x="1615" d="M102 297q0 315 527 315h84q0 186 -47.5 242.5t-200.5 56.5q-170 0 -283 -43l-28 119q172 57 356 57q231 0 313 -143q119 143 305 143q180 0 282.5 -118.5t102.5 -321.5q0 -55 -4 -125h-653q0 -197 93 -278.5t235 -81.5q23 0 42 1t40.5 4t34 6t38 10t35.5 10.5t43 13.5 t45 14l25 -119q-205 -72 -320 -71q-264 0 -381 184q-176 -184 -380 -184q-143 0 -223.5 85t-80.5 224zM256 309q0 -82 45 -137t117 -55q74 0 140.5 33.5t156.5 117.5v215h-92q-209 0 -288 -41t-79 -133zM866 596h500q0 152 -53 233.5t-185 81.5q-133 0 -194.5 -88 t-67.5 -227z" />
<glyph unicode="&#xe7;" horiz-adv-x="886" d="M90 530q0 250 114.5 382t338.5 132q125 -8 270 -49l-61 -118q-113 33 -203 32q-156 0 -224.5 -92t-68.5 -291q0 -403 289 -403q115 0 243 37l31 -121q-16 -4 -227 -49q0 -98 -23.5 -164t-105.5 -199l-101 64q57 109 74 161t17 144l-27 4q-168 33 -252 171t-84 359z" />
<glyph unicode="&#xe8;" horiz-adv-x="1001" d="M90 512q0 246 120 389t306 143q180 0 282.5 -118.5t102.5 -321.5q0 -55 -4 -125h-653q0 -197 93 -278.5t234 -81.5q23 0 42.5 1t41 4t33.5 6t38 10t36 10.5t43 13.5t45 14l24 -119q-205 -72 -319 -71q-211 0 -338 128t-127 396zM250 1440l153 61l232 -289l-119 -43z M254 596h500q0 152 -53.5 233.5t-184.5 81.5q-133 0 -194.5 -88t-67.5 -227z" />
<glyph unicode="&#xe9;" horiz-adv-x="1001" d="M90 512q0 246 120 389t306 143q180 0 282.5 -118.5t102.5 -321.5q0 -55 -4 -125h-653q0 -197 93 -278.5t234 -81.5q23 0 42.5 1t41 4t33.5 6t38 10t36 10.5t43 13.5t45 14l24 -119q-205 -72 -319 -71q-211 0 -338 128t-127 396zM254 596h500q0 152 -53.5 233.5 t-184.5 81.5q-133 0 -194.5 -88t-67.5 -227zM373 1212l231 289l154 -61l-266 -271z" />
<glyph unicode="&#xea;" horiz-adv-x="1001" d="M90 512q0 246 120 389t306 143q180 0 282.5 -118.5t102.5 -321.5q0 -55 -4 -125h-653q0 -197 93 -278.5t234 -81.5q23 0 42.5 1t41 4t33.5 6t38 10t36 10.5t43 13.5t45 14l24 -119q-205 -72 -319 -71q-211 0 -338 128t-127 396zM180 1253l283 205h96l279 -205l-39 -59 l-289 154l-291 -154zM254 596h500q0 152 -53.5 233.5t-184.5 81.5q-133 0 -194.5 -88t-67.5 -227z" />
<glyph unicode="&#xeb;" horiz-adv-x="1001" d="M90 512q0 246 120 389t306 143q180 0 282.5 -118.5t102.5 -321.5q0 -55 -4 -125h-653q0 -197 93 -278.5t234 -81.5q23 0 42.5 1t41 4t33.5 6t38 10t36 10.5t43 13.5t45 14l24 -119q-205 -72 -319 -71q-211 0 -338 128t-127 396zM252 1219v217h145v-217h-145zM254 596h500 q0 152 -53.5 233.5t-184.5 81.5q-133 0 -194.5 -88t-67.5 -227zM618 1219v217h146v-217h-146z" />
<glyph unicode="&#xec;" horiz-adv-x="462" d="M-74 1427l154 62l231 -289l-118 -43zM158 0v1024h149v-1024h-149z" />
<glyph unicode="&#xed;" horiz-adv-x="462" d="M158 0v1024h149v-1024h-149zM166 1212l231 289l154 -61l-266 -271z" />
<glyph unicode="&#xee;" horiz-adv-x="466" d="M-94 1253l282 205h97l278 -205l-39 -59l-288 154l-291 -154zM158 0v1024h153v-1024h-153z" />
<glyph unicode="&#xef;" horiz-adv-x="466" d="M-20 1217v217h145v-217h-145zM158 0v1024h153v-1024h-153zM346 1217v217h146v-217h-146z" />
<glyph unicode="&#xf0;" horiz-adv-x="1173" d="M129 1204l231 129q-154 127 -184 148l107 71l186 -157l229 118l78 -77l-229 -119q276 -262 393 -397.5t117 -399.5q0 -248 -117 -390t-330 -142q-211 0 -325.5 142t-114.5 390t116.5 386t344.5 141l-199 200l-223 -125zM328 516q0 -395 280 -395q150 0 222.5 96t72.5 299 q0 199 -70.5 295t-226.5 96q-158 0 -218 -94t-60 -297z" />
<glyph unicode="&#xf1;" horiz-adv-x="1134" d="M186 0v1024h99l24 -100q47 37 77 57t95.5 41.5t139.5 21.5q141 0 234 -87t93 -246v-711h-153v666q0 247 -205 247h-2q-148 0 -248 -100v-813h-154zM225 1288q12 16 31.5 40t68.5 64t86 40q43 0 162 -56.5t145 -56.5q59 0 119 78l70 -54v-14q-12 -16 -31.5 -39.5 t-70 -63.5t-87.5 -40q-43 0 -161.5 56t-145.5 56q-59 0 -119 -77z" />
<glyph unicode="&#xf2;" d="M86 512q0 250 109.5 391t320.5 141q213 0 335 -143t122 -389t-117 -385t-330 -139t-326.5 138t-113.5 386zM240 508q0 -387 284 -387q150 0 222.5 93t72.5 294q0 195 -78 299t-219 104q-158 0 -220 -99t-62 -304zM283 1440l153 61l232 -289l-119 -43z" />
<glyph unicode="&#xf3;" d="M86 512q0 250 109.5 391t320.5 141q213 0 335 -143t122 -389t-117 -385t-330 -139t-326.5 138t-113.5 386zM240 508q0 -387 284 -387q150 0 222.5 93t72.5 294q0 195 -78 299t-219 104q-158 0 -220 -99t-62 -304zM402 1212l231 289l154 -61l-266 -271z" />
<glyph unicode="&#xf4;" d="M86 512q0 250 109.5 391t320.5 141q213 0 335 -143t122 -389t-117 -385t-330 -139t-326.5 138t-113.5 386zM240 508q0 -387 284 -387q150 0 222.5 93t72.5 294q0 195 -78 299t-219 104q-158 0 -220 -99t-62 -304zM201 1254l283 204h96l278 -204l-38 -60l-289 154 l-291 -154z" />
<glyph unicode="&#xf5;" d="M86 512q0 -248 113.5 -386t326.5 -138t330 139t117 385t-122 389t-335 143q-211 0 -320.5 -141t-109.5 -391zM190 1290q12 16 32 40t69 64t86 40q43 0 161.5 -56.5t145.5 -56.5q59 0 119 78l69 -53v-15q-12 -16 -31.5 -39.5t-69.5 -63.5t-87 -40q-43 0 -162 56t-145 56 q-59 0 -119 -77zM240 508q0 205 62 304t220 99q141 0 219 -104.5t78 -298.5q0 -201 -72.5 -294t-222.5 -93q-285 0 -284 387z" />
<glyph unicode="&#xf6;" d="M86 512q0 250 109.5 391t320.5 141q213 0 335 -143t122 -389t-117 -385t-330 -139t-326.5 138t-113.5 386zM240 508q0 -387 284 -387q150 0 222.5 93t72.5 294q0 195 -78 299t-219 104q-158 0 -220 -99t-62 -304zM272 1216v217h145v-217h-145zM638 1216v217h146v-217 h-146z" />
<glyph unicode="&#xf7;" horiz-adv-x="1073" d="M94 467v133h885v-133h-885zM471 0v217h154v-217h-154zM471 807v217h154v-217h-154z" />
<glyph unicode="&#xf8;" d="M45 2l139 162q-98 156 -98 356q0 250 109.5 388.5t320.5 138.5q178 0 305 -111l148 180l116 -78l-178 -213q66 -125 66 -305q0 -248 -117 -390t-330 -142q-145 0 -252 73l-122 -149zM240 510q0 -106 41 -225l458 546q-78 82 -221 82q-158 0 -218 -99t-60 -304zM365 168 q55 -47 159 -47q150 0 222.5 96t72.5 299q1 102 -22 176z" />
<glyph unicode="&#xf9;" horiz-adv-x="1134" d="M186 322q0 -160 79 -247t214 -87q164 0 328 133l51 -121h90v1024h-155v-764q-43 -51 -129 -96t-162 -45q-90 0 -126 53t-36 174v678h-154v-702zM297 1440l154 61l231 -289l-119 -43z" />
<glyph unicode="&#xfa;" horiz-adv-x="1134" d="M186 322v702h154v-678q0 -121 36 -174t126 -53q76 0 162 45t129 96v764h155v-1024h-90l-51 121q-164 -133 -328 -133q-135 0 -214 87t-79 247zM436 1212l232 289l153 -61l-266 -271z" />
<glyph unicode="&#xfb;" horiz-adv-x="1134" d="M186 322v702h154v-678q0 -121 36 -174t126 -53q76 0 162 45t129 96v764h155v-1024h-90l-51 121q-164 -133 -328 -133q-135 0 -214 87t-79 247zM238 1253l282 205h96l279 -205l-39 -59l-289 154l-291 -154z" />
<glyph unicode="&#xfc;" horiz-adv-x="1134" d="M186 322q0 -160 79 -247t214 -87q164 0 328 133l51 -121h90v1024h-155v-764q-43 -51 -129 -96t-162 -45q-90 0 -126 53t-36 174v678h-154v-702zM311 1217v217h146v-217h-146zM678 1217v217h145v-217h-145z" />
<glyph unicode="&#xfd;" horiz-adv-x="911" d="M23 1024h174l260 -860l262 860h170l-352 -1024q-68 -199 -150 -307.5t-211 -175.5l-57 106q82 47 153.5 139.5t96.5 217.5zM293 1212l231 289l154 -61l-266 -271z" />
<glyph unicode="&#xfe;" horiz-adv-x="1118" d="M186 -412v1846h154v-512q176 125 315 125q369 0 369 -531q0 -150 -35 -257t-96.5 -163.5t-128 -82t-146.5 -25.5q-150 0 -280 102v-502h-152zM340 219q41 -47 109.5 -73.5t134.5 -26.5q160 0 223 94t63 299q0 197 -63.5 299t-161.5 102q-147 0 -305 -137v-557z" />
<glyph unicode="&#xff;" horiz-adv-x="911" d="M23 1024l346 -1044q-25 -125 -96.5 -217.5t-153.5 -139.5l57 -106q129 68 211 176t150 307l352 1024h-170l-262 -860l-260 860h-174zM205 1221v217h145v-217h-145zM571 1221v217h146v-217h-146z" />
<glyph unicode="&#x152;" horiz-adv-x="1787" d="M92 727.5q0 319.5 144.5 513t422.5 193.5h975v-136h-618v-452h567v-137h-567v-564h618v-145l-975 2q-281 0 -424 203t-143 522.5zM248 727q0 -256 105.5 -420t308.5 -164h217v1155h-215q-109 0 -192 -47t-130 -129t-70.5 -181t-23.5 -214z" />
<glyph unicode="&#x153;" horiz-adv-x="1763" d="M86 520q0 250 109.5 391.5t320.5 141.5q123 0 237.5 -67t161.5 -159q57 102 152.5 159.5t210.5 57.5q180 0 282.5 -118.5t102.5 -321.5q0 -55 -4 -125h-653q0 -197 93 -278.5t234 -81.5q23 0 42.5 1t41 4t33.5 6t37.5 10t36 10.5t42.5 13.5l46 14l24 -119 q-205 -72 -319 -71q-293 0 -408 223q-113 -223 -383 -223q-211 0 -325.5 142t-114.5 390zM244 516q0 -395 280 -395q150 0 222.5 96t72.5 299q0 195 -78 299.5t-219 104.5q-158 0 -218 -99.5t-60 -304.5zM1016 596h500q0 152 -53.5 233.5t-184.5 81.5q-133 0 -194.5 -88 t-67.5 -227z" />
<glyph unicode="&#x178;" horiz-adv-x="1130" d="M27 1434h170l362 -664l379 664h166l-471 -789v-645h-154v645zM309 1671v217h145v-217h-145zM675 1671v217h146v-217h-146z" />
<glyph unicode="&#x2c6;" horiz-adv-x="1005" d="M174 1475l283 204h96l278 -204l-38 -60l-289 154l-291 -154z" />
<glyph unicode="&#x2da;" horiz-adv-x="815" d="M178 1358q0 98 57.5 160.5t170 62.5t172 -62.5t59.5 -160.5q0 -106 -57.5 -167t-172 -61t-172 60.5t-57.5 167.5zM293 1358q0 -63 24.5 -98t90.5 -35q68 0 93 34.5t25 98.5q1 133 -118 133q-115 0 -115 -133z" />
<glyph unicode="&#x2dc;" horiz-adv-x="1056" d="M205 1501q12 16 31.5 40t68.5 64t86 40q43 0 162 -56.5t145 -56.5q59 0 119 78l70 -54v-14q-12 -16 -31.5 -39.5t-70 -63.5t-87.5 -40q-43 0 -161.5 56t-145.5 56q-59 0 -119 -77z" />
<glyph unicode="&#x2000;" horiz-adv-x="995" />
<glyph unicode="&#x2001;" horiz-adv-x="1991" />
<glyph unicode="&#x2002;" horiz-adv-x="995" />
<glyph unicode="&#x2003;" horiz-adv-x="1991" />
<glyph unicode="&#x2004;" horiz-adv-x="663" />
<glyph unicode="&#x2005;" horiz-adv-x="497" />
<glyph unicode="&#x2006;" horiz-adv-x="331" />
<glyph unicode="&#x2007;" horiz-adv-x="331" />
<glyph unicode="&#x2008;" horiz-adv-x="248" />
<glyph unicode="&#x2009;" horiz-adv-x="398" />
<glyph unicode="&#x200a;" horiz-adv-x="110" />
<glyph unicode="&#x2010;" horiz-adv-x="587" d="M98 520v154h391v-154h-391z" />
<glyph unicode="&#x2011;" horiz-adv-x="587" d="M98 520v154h391v-154h-391z" />
<glyph unicode="&#x2012;" horiz-adv-x="587" d="M98 520v154h391v-154h-391z" />
<glyph unicode="&#x2013;" horiz-adv-x="1024" d="M0 526v133h1024v-133h-1024z" />
<glyph unicode="&#x2014;" horiz-adv-x="1638" d="M0 526v133h1638v-133h-1638z" />
<glyph unicode="&#x2018;" horiz-adv-x="548" d="M117 1044l233 531l113 -35l-178 -547z" />
<glyph unicode="&#x2019;" horiz-adv-x="546" d="M84 1028l180 547l166 -49l-231 -533z" />
<glyph unicode="&#x201a;" horiz-adv-x="548" d="M84 -297l180 547l166 -49l-231 -533z" />
<glyph unicode="&#x201c;" horiz-adv-x="954" d="M117 1049l233 522l109 -33l-183 -539zM530 1044l228 527l108 -33l-178 -543z" />
<glyph unicode="&#x201d;" horiz-adv-x="952" d="M84 1028l178 543l158 -49l-227 -527zM492 1028l182 539l160 -49l-234 -523z" />
<glyph unicode="&#x201e;" horiz-adv-x="952" d="M84 -293l178 543l158 -49l-227 -527zM492 -293l182 539l160 -49l-234 -523z" />
<glyph unicode="&#x2022;" horiz-adv-x="962" d="M203 543q0 109 77.5 186.5t186 77.5t186.5 -77.5t78 -186.5q0 -111 -78 -187.5t-186.5 -76.5t-186 76.5t-77.5 187.5z" />
<glyph unicode="&#x2026;" horiz-adv-x="1511" d="M113 0v217h153v-217h-153zM668 0v217h153v-217h-153zM1223 0v217h153v-217h-153z" />
<glyph unicode="&#x202f;" horiz-adv-x="398" />
<glyph unicode="&#x2039;" horiz-adv-x="675" d="M121 606l285 443l112 -48l-221 -391l221 -395l-115 -47z" />
<glyph unicode="&#x203a;" horiz-adv-x="675" d="M160 215l221 391l-221 395l114 48l283 -439l-285 -442z" />
<glyph unicode="&#x205f;" horiz-adv-x="497" />
<glyph unicode="&#x20ac;" horiz-adv-x="1290" d="M43 492v133h158q0 8 -1 57t-1 59q0 18 4 80h-160v133h180q53 233 211 366.5t397 133.5q156 0 320 -61l-37 -127q-131 55 -297 55q-168 0 -281.5 -97.5t-156.5 -269.5h483v-135h-504q-4 -74 -4 -88q0 -67 2 -106h506v-133h-491q41 -176 152.5 -273.5t277.5 -97.5 q147 0 350 80l41 -107q-176 -106 -385 -106q-244 0 -396.5 136t-197.5 368h-170z" />
<glyph unicode="&#x2122;" horiz-adv-x="1404" d="M102 1327v107h443v-107h-166v-471h-115v471h-162zM696 856v578h117l178 -267l187 267h110v-578h-110v397l-187 -239h-20l-166 239v-397h-109z" />
<glyph unicode="&#xe000;" horiz-adv-x="1025" d="M0 1025h1025v-1025h-1025v1025z" />
<glyph unicode="&#xfb01;" horiz-adv-x="1062" d="M16 901v123h160v197q0 125 77 179t187 54q68 0 152 -27l-23 -110q-68 12 -100 12q-141 0 -141 -137v-168h549v-1024h-154v899h-395v-899h-154v901h-158zM723 1249v183h154v-183h-154z" />
<glyph unicode="&#xfb02;" horiz-adv-x="933" d="M14 901v123h160v197q0 125 77 179t187 54q43 0 158 -20l152 22v-1456h-152v1311q-96 18 -129 18q-141 0 -141 -137v-168h209v-123h-209v-901h-154v901h-158z" />
<glyph unicode="&#xfb03;" horiz-adv-x="1656" d="M1348 0v1024h153v-1024h-153zM1348 1251v183h153v-183h-153zM667 901v123h159v197q0 125 77 179t188 54q68 0 151 -27l-22 -110q-68 12 -101 12q-141 0 -141 -137v-168h209v-123h-209v-901h-154v901h-157zM72 901v123h159v197q0 125 77 179t188 54q68 0 151 -27l-22 -110 q-68 12 -101 12q-141 0 -141 -137v-168h209v-123h-209v-901h-154v901h-157z" />
<glyph unicode="&#xfb04;" horiz-adv-x="1716" d="M1376 0v1434h154v-1434h-154zM667 901v123h159v197q0 125 77 179t188 54q68 0 151 -27l-22 -110q-68 12 -101 12q-141 0 -141 -137v-168h209v-123h-209v-901h-154v901h-157zM72 901v123h159v197q0 125 77 179t188 54q68 0 151 -27l-22 -110q-68 12 -101 12 q-141 0 -141 -137v-168h209v-123h-209v-901h-154v901h-157z" />
<glyph horiz-adv-x="432" />
</font>
</defs>
</svg>
