<?xml version="1.0" standalone="no"?>
<!DOCTYPE svg PUBLIC "-//W3C//DTD SVG 1.1//EN" "http://www.w3.org/Graphics/SVG/1.1/DTD/svg11.dtd" >
<svg xmlns="http://www.w3.org/2000/svg">
<metadata>
This is a custom SVG webfont generated by Font Squirrel.
Copyright   : Copyright 2011 Adobe Systems Incorporated All rights reserved
</metadata>
<defs>
<font id="OtamaepRegular" horiz-adv-x="1699" >
<font-face units-per-em="2048" ascent="1513" descent="-535" />
<missing-glyph horiz-adv-x="487" />
<glyph unicode=" "  horiz-adv-x="487" />
<glyph unicode="&#x09;" horiz-adv-x="487" />
<glyph unicode="&#xa0;" horiz-adv-x="487" />
<glyph unicode="!" horiz-adv-x="575" d="M166 92q0 -51 36 -86t87 -35t87 35t36 86t-36 87t-87 36t-87 -36t-36 -87zM166 1327q0 -70 29 -309q23 -213 49 -424q4 -29 10 -84t10 -80q6 -76 8 -84q2 -14 14.5 -14t14.5 14q0 18 8 82q4 27 11.5 89.5t9.5 80.5l49 436q4 39 11 100.5t9 84.5q4 31 7.5 66.5t3.5 37.5 v10q0 47 -32 82q-36 39 -89 39t-89 -37q-34 -35 -34 -84v-6z" />
<glyph unicode="&#x22;" horiz-adv-x="434" d="M42 1451v-6q0 -6 1 -15q2 -15 3 -25t4 -31.5t5 -38.5l37 -278q8 -51 8 -64q3 -18 18.5 -18t18.5 18l1 4q1 4 2 12.5t1 16.5t2 21l5 28l4 27l14 98q8 72 22 186q3 37 7 50q4 35 -18.5 56t-55.5 21q-35 0 -58 -20q-6 -6 -11 -12t-7 -14.5t-3 -15.5zM239 1451v-6q0 -6 1 -15 q2 -15 3 -25t4 -31.5t5 -38.5l37 -278q8 -51 8 -64q3 -18 18.5 -18t18.5 18l1 4q1 4 2 12.5t1 16.5t2 20.5t4 28t4 27.5l14 98q8 72 23 186q3 37 6 50q1 5 1 10q0 28 -20 46q-22 21 -55 21q-35 0 -57 -20q-6 -6 -11 -12t-7 -14.5t-3 -15.5z" />
<glyph unicode="#" horiz-adv-x="1132" d="M41 502h915l9 28h-914zM156 0h30l428 1434h-30zM168 938h915l9 29h-916zM557 0h31l428 1434h-31z" />
<glyph unicode="$" horiz-adv-x="1144" d="M84 276q10 -106 100 -188q103 -95 273 -115v-96h30v92q23 -2 70 -2q37 0 76 6v-96h31v100q176 27 280 129q119 119 119 306q0 199 -109 317q-88 96 -290 182v527q115 -16 196.5 -71.5t112.5 -125.5q-28 18 -61 18q-16 0 -33 -4q-49 -12 -75 -55q-16 -27 -16 -57 q0 -17 5 -35q12 -49 55 -75q29 -17 61 -17q15 0 31 4q84 22 84 131v10q-4 94 -90 185q-104 100 -270 120v99h-31v-97q-24 4 -51 4q-44 0 -95 -10v103h-30v-107q-160 -29 -256 -133q-104 -111 -105 -289q0 -147 107 -258q88 -90 254 -160v-618q-129 12 -228 84 q-66 47 -94 113q30 -21 65 -21q14 0 29 4q49 12 75 57q17 29 17 60q0 15 -4 31q-12 49 -55 75q-29 17 -61 17q-15 0 -31 -4q-87 -23 -87 -119q0 -10 1 -21zM336 1196q0 133 121 209v-397q-121 78 -121 188zM487 989v432q43 22 120 22q13 0 26 -1v-518q-100 39 -146 65z M487 -2v608q92 -43 146 -74v-520q-43 -15 -113 -15q-16 0 -33 1zM664 25v487q149 -105 149 -254q0 -78 -40.5 -140t-108.5 -93z" />
<glyph unicode="%" horiz-adv-x="1441" d="M61 1112q0 -143 78 -231q82 -94 240 -95h2q156 0 244 99q82 90 82 237q0 143 -89 228q-90 84 -233 84t-235 -93q-88 -88 -89 -229zM264 1124q0 138 31 209q31 72 90 72q61 0 90 -72q27 -72 27 -209t-25 -221q-29 -88 -90 -88q-68 0 -96 88q-27 80 -27 221zM338 12l29 -12 l739 1421l-25 13zM735 326q0 -143 78 -232q82 -94 239.5 -94t245.5 98q82 91 82 238q0 143 -88 227q-90 84 -233.5 84t-235.5 -92q-88 -88 -88 -229zM938 338q0 138 31 209t90 71q61 0 90 -71q27 -72 27 -209t-25 -221q-29 -88 -90 -88q-68 0 -96 88q-27 80 -27 221z" />
<glyph unicode="&#x26;" horiz-adv-x="1280" d="M68 563q-36 -81 -36 -161q0 -122 83 -240q130 -188 342 -188q28 0 57 3q225 23 385 203q63 -68 75 -130q3 -13 3 -25q0 -46 -37 -80l8 -13l8 -12q104 23 170 98q72 82 72 187q0 137 -133 297q25 92 27 160q2 59 14 139q12 66 43 100.5t100 38.5v27h-385v-27 q143 -8 185 -133q13 -45 13 -108q0 -73 -18 -171l-100 115l-110 125q-141 158 -189 236q78 55 137 133q63 84 64 163v5q0 60 -42 105q-44 48 -118 50q-111 0 -215 -108q-127 -135 -127 -324q0 -74 21 -154q-223 -143 -297 -311zM373 838q53 -135 217 -330q135 -160 291 -309 q-66 -72 -153 -72q-26 0 -54 6q-131 29 -262 193q-134 167 -134 303q0 115 95 209zM571 1227q0 76 25 131q33 67 104 67h2q47 0 82 -39q31 -34 31 -79q0 -72 -59 -158q-39 -53 -125 -119q-59 104 -60 197z" />
<glyph unicode="'" horiz-adv-x="237" d="M42 1451v-6q0 -6 1 -15q2 -15 3 -25t4 -31.5t5 -38.5l37 -278q8 -51 8 -64q3 -18 18.5 -18t18.5 18l1 4q1 4 2 12.5t1 16.5t2 21l5 28l4 27l14 98q8 72 22 186q3 37 7 50q1 5 1 10q0 28 -20 46q-22 21 -55 21q-35 0 -58 -20q-6 -6 -11 -12t-7 -14.5t-3 -15.5z" />
<glyph unicode="(" horiz-adv-x="348" d="M0 657q0 -299 100 -569q102 -274 277 -461l24 15q-280 442 -280 1011q0 293 76 537q68 219 213 446l-25 15q-385 -424 -385 -994z" />
<glyph unicode=")" horiz-adv-x="348" d="M-61 1636q145 -227 213 -446q75 -241 75 -525v-8q0 -571 -280 -1015l24 -15q174 186 277 461q100 270 100 569q0 570 -385 994z" />
<glyph unicode="*" horiz-adv-x="1185" d="M26 878q-4 -13 -4 -26q0 -17 7 -33q2 -8 7 -14t9 -10t13.5 -7.5t15.5 -6.5t19 -5t22.5 -4t28.5 -5l32 -5l75 -16l68 -13q70 -14 134 -24q16 -2 31.5 -5.5t22.5 -4.5l7 -1q16 -4 22 10.5t-10 24.5l-4 2q-4 2 -11 6l-15 9l-158 73l-92 45l-78 37q-6 2 -20.5 9.5t-19.5 9.5 l-16 6q-10 4 -16 3t-15 -3t-18 -6q-27 -16 -37 -46zM210 257q5 -30 32 -48q21 -17 47 -17q5 0 11 1q32 4 50 34q16 25 72 129q8 16 26.5 50t20.5 38l80 148q12 25 14 26q8 18 -4 26.5t-24 -3.5l-4 -3q-3 -3 -8 -9l-11 -13q-33 -33 -53 -55l-140 -145l-57 -64l-21 -23 l-14 -14q-19 -22 -19 -46q0 -6 2 -12zM515 1226v-6q0 -6 1 -16q2 -14 3 -24.5t4 -32t5 -37.5l37 -279q8 -51 8 -63q3 -18 18.5 -18t18.5 18l1 4q1 4 2 12.5t1 16.5t2 21l5 27l4 28l14 98q8 72 23 186q3 37 6 49q4 35 -18.5 56.5t-55.5 21.5q-35 0 -57 -20q-6 -6 -11.5 -12.5 t-7.5 -14.5t-3 -15zM625 618q0 -2 4 -8q8 -12 12 -20l37 -68q39 -74 47 -86l90 -166q4 -6 9 -17t8.5 -16.5t7.5 -13.5t8 -11t10 -8t13.5 -7t15.5 -2q6 -1 11 -1q25 0 47 15q26 18 34 49q1 4 1 8q0 37 -68 107l-19 20l-197 203l-43 45q-12 12 -24 3q-7 -5 -7 -13q0 -6 3 -13z M648 710q6 -12 24 -12q2 0 33 7l174 32q52 9 98 19q8 2 39 7t45 9q25 4 49 10q35 8 48 36q7 16 7 33q0 13 -4 26q-21 56 -65 56q-15 0 -33 -7q-61 -25 -133 -62l-92 -45l-84 -41q-12 -6 -34 -16t-32 -14l-29 -13q-12 -9 -12 -18q0 -3 1 -7z" />
<glyph unicode="+" horiz-adv-x="997" d="M41 485h440v-444h33v444h442v29h-442v442h-33v-442h-440v-29z" />
<glyph unicode="," horiz-adv-x="411" d="M41 158q0 -68 46 -113t108 -45q74 0 118 49q-16 -70 -70.5 -115t-127.5 -59l4 -27q104 23 176 95q76 76 76 178q0 90 -60 145q-48 47 -116 47q-63 0 -108.5 -45t-45.5 -110z" />
<glyph unicode="-" horiz-adv-x="491" d="M61 426h369v164h-369v-164z" />
<glyph unicode="." horiz-adv-x="395" d="M41 156q0 -63 46 -109.5t111.5 -46.5t110.5 46.5t45 109.5q0 66 -45 111.5t-110.5 45.5t-111.5 -46t-46 -111z" />
<glyph unicode="/" horiz-adv-x="499" d="M20 0l29 -8l430 1442l-28 8z" />
<glyph unicode="0" horiz-adv-x="1343" d="M82 719q0 -317 127 -510q150 -236 461 -236q303 0 456 222q136 194 136 524q0 305 -134 506q-159 235 -452 235h-2q-291 0 -449 -225q-143 -203 -143 -516zM412 719q0 188 10 295q14 178 67 289q64 131 183 131t184 -129q49 -98 68 -291q8 -106 8 -295q0 -358 -55 -539 q-57 -180 -207 -180q-139 0 -199 176q-59 178 -59 543z" />
<glyph unicode="1" horiz-adv-x="657" d="M41 0h575v27h-131v1437h-28q-25 -106 -125 -180q-113 -86 -275 -86v-27h115v-1144h-131v-27z" />
<glyph unicode="2" horiz-adv-x="1034" d="M82 0h29q12 8 41 16q37 10 88 11q66 0 184.5 -27t226.5 -27q154 0 217 127q33 65 33 137q0 43 -12 89h-27q-3 -22 -43 -43q-41 -23 -135 -23q-41 0 -76 8q-61 10 -84 15q-147 20 -172 20q-80 0 -116 -14l-46 -17q47 76 119 136q86 72 328 231q90 61 156 127 q157 153 157 338q0 174 -135 268q-127 86 -311 86q-152 0 -252 -74q-102 -73 -102 -190q0 -51 35.5 -87t87 -36t87 36t35.5 87t-35.5 87t-87.5 36q-41 0 -69 -21q31 51 91 85t128 34q106 0 166 -80q55 -74 55 -180q0 -119 -41 -223q-76 -178 -240 -367q-74 -83 -135 -172 q-145 -207 -145 -393z" />
<glyph unicode="3" horiz-adv-x="1005" d="M31 217q0 -82 75 -151q96 -92 271 -93q219 0 373 115q174 129 174 363q0 195 -129 313q-103 88 -218 88h-10v2q131 33 207 139q68 96 68 195q0 100 -68 176q-88 94 -258 94q-168 0 -283 -80q-88 -61 -145 -168l25 -14q41 70 108 115q76 49 152 49q92 0 142 -60.5 t50 -171.5q0 -127 -102 -210q-80 -63 -193 -76v-27q16 1 31 1q136 0 219 -95q88 -104 88 -289q0 -231 -106 -342q-78 -80 -185 -80q-55 0 -122 27q-70 29 -97 72q8 -6 11 -9q12 -6 45 -6q51 0 86.5 36t35.5 87t-36.5 87t-85.5 36q-51 0 -87 -36t-36 -87z" />
<glyph unicode="4" horiz-adv-x="1036" d="M25 453h462v-426h-147v-27h588v25h-129v428h217v26h-217v955h-144l-630 -951v-30zM59 479l428 649v-649h-428z" />
<glyph unicode="5" horiz-adv-x="1067" d="M82 217q0 -82 76 -151q96 -92 270 -93q211 0 365 109q193 135 192 407q0 231 -147 365q-141 125 -353 125q-96 0 -188 -39q-84 -35 -123 -72q14 197 23 267q0 14 1 26.5t2 18.5l1 6q346 -45 544 37q180 74 181 235h-23q-31 -33 -176 -43q-121 -10 -291 -4q-158 6 -248 23 l-45 -592l33 -11q10 10 23 21q14 12 49 33q74 43 149 43q266 0 267 -455q0 -246 -93 -364q-78 -98 -213 -99q-72 0 -135 37q-55 33 -73 62q6 -6 10 -9q12 -6 45 -6q51 0 87 36t36 87t-37 87t-86 36q-51 0 -87 -36t-36 -87z" />
<glyph unicode="6" horiz-adv-x="1183" d="M94 612q0 -264 117 -436q137 -203 393 -203q209 0 342 121q150 131 152 361v6q0 197 -121 321q-117 117 -281 117q-104 0 -180 -45q-39 -23 -80 -63q4 102 31 237q29 166 90 268q78 127 191 127q84 0 135 -47q-12 2 -24 2q-42 0 -75 -28q-41 -37 -43 -90v-5q0 -46 33 -81 q35 -37 86 -41q49 0 85 34.5t40 85.5q0 92 -94 152q-90 53 -189 53q-317 0 -475 -264q-133 -223 -133 -582zM432 741q20 41 66.5 67t95.5 26q109 0 151 -154q27 -94 27 -252q0 -172 -20 -256q-18 -78 -57 -125q-36 -45 -96 -45h-5q-92 0 -135 158q-34 125 -34 351 q0 104 7 230z" />
<glyph unicode="7" horiz-adv-x="962" d="M61 1102h29q14 195 137 262q84 43 293 43h185q-131 -94 -252 -348q-113 -242 -181 -527q-67 -283 -67 -501v-6h-123v-25h559v25h-123q0 395 127 792q121 377 297 588v29h-881v-332z" />
<glyph unicode="8" horiz-adv-x="1093" d="M59 346q0 -184 136 -287q123 -92 333 -92q195 0 334 90q168 109 168 299q0 180 -80 295q-72 102 -256 219q82 43 146 107q90 94 90 197q0 125 -115 208q-100 70 -256 74h-15q-138 0 -247 -70q-129 -86 -150 -233q-5 -35 -5 -69q0 -215 206 -359q-106 -49 -186 -137 q-102 -117 -103 -242zM295 313q0 127 32.5 224.5t80.5 142.5q188 -123 270 -220.5t82 -201.5t-53 -178q-61 -86 -177 -86q-113 0 -174 82.5t-61 236.5zM365 1243q0 80 54 133.5t140 53.5q94 0 146 -78q43 -70 43 -191q0 -88 -29 -159.5t-68 -96.5q-164 96 -227 182 q-59 76 -59 156z" />
<glyph unicode="9" horiz-adv-x="1183" d="M84 977v-6q0 -201 123 -322q113 -117 278 -117q100 0 181 46q57 33 79 63q-2 -14 -5 -51t-5 -53q-6 -59 -18 -134q-35 -176 -90 -266q-76 -129 -193 -129q-84 0 -135 47q12 -2 24 -2q42 0 74 29q41 37 43 90v5q0 46 -32 81q-35 37 -86 41q-49 0 -85 -35t-40 -86 q0 -94 94 -149q88 -55 188 -56q319 0 477 265q131 219 131 581q0 264 -116 436q-137 203 -393 203q-209 0 -342 -119q-150 -135 -152 -362zM410 1004q0 172 20 256q18 78 56 125q36 45 97 45h5q90 0 127 -160q36 -158 36 -462q0 -56 -1 -118q-20 -41 -66.5 -66.5 t-95.5 -25.5q-106 0 -152 156q-26 91 -26 239v11z" />
<glyph unicode=":" horiz-adv-x="395" d="M41 156q0 -63 46 -109.5t111.5 -46.5t110.5 46.5t45 109.5q0 66 -45 111.5t-110.5 45.5t-111.5 -46t-46 -111zM41 809q0 -63 46 -109.5t111.5 -46.5t110.5 46.5t45 109.5q0 66 -45 112t-110.5 46t-111.5 -46.5t-46 -111.5z" />
<glyph unicode=";" horiz-adv-x="411" d="M41 809q0 -63 46 -109.5t111.5 -46.5t110.5 46.5t45 109.5q0 66 -45 112t-110.5 46t-111.5 -46.5t-46 -111.5zM41 158q0 66 45.5 110.5t108.5 44.5q68 0 116 -47q59 -55 60 -145q0 -102 -76 -178q-72 -72 -176 -95l-4 27q74 14 128 59.5t70 114.5q-45 -49 -118 -49 q-61 0 -107.5 45t-46.5 113z" />
<glyph unicode="&#x3c;" horiz-adv-x="1064" d="M20 465l1024 -514v35l-985 495l985 496v35l-1024 -514v-33z" />
<glyph unicode="=" horiz-adv-x="997" d="M41 313h915v29h-915v-29zM41 664h915v28h-915v-28z" />
<glyph unicode="&#x3e;" horiz-adv-x="1064" d="M20 -14v-35l1024 514v33l-1024 514v-35l986 -496z" />
<glyph unicode="?" horiz-adv-x="964" d="M82 1194q0 -51 36 -87t87 -36t87 36t36 87t-36 87t-87 36q-41 0 -70 -21q31 51 91.5 85t127.5 34q106 0 166 -80q55 -74 55 -180q0 -80 -22 -154q-35 -104 -123 -253q-34 -58 -61 -123q-38 -94 -38 -193q0 -53 11 -108h27q-2 20 -2 38q0 73 26 123q55 102 217 203 q66 37 131 96q141 127 142 322q0 172 -135 266q-125 86 -312 86q-152 0 -252 -74q-102 -73 -102 -190zM258 94q0 -51 36 -87t87 -36t87 36t36 87t-36 87t-87 36t-87 -36t-36 -87z" />
<glyph unicode="@" horiz-adv-x="1669" d="M88 797q-6 -51 -6 -100q0 -173 74 -322q88 -182 252 -285q195 -133 477 -133q254 0 387 88q0 2 -15 25q-47 -35 -139 -60q-106 -28 -220.5 -28t-238.5 28q-113 25 -221 92q-106 66 -166 140q-127 152 -155 354q-9 58 -9 115q0 131 48 252q61 176 221 311q170 145 403 170 q52 6 102 6q157 0 291 -56q177 -73 279 -206q90 -127 104 -250q3 -35 3 -69q0 -125 -46 -226q-61 -143 -163 -215q-59 -39 -86 -39q-37 0 -47 51q-8 29 -9 84q0 125 62 324q43 150 102 295h-293q-33 -94 -51 -154q2 15 2 30q0 39 -12 77q-26 74 -154 74q-35 0 -76 -5 q-168 -25 -299 -168q-68 -80 -106 -178q-43 -109 -43 -198q0 -84 35 -158q33 -68 96 -104q55 -30 120 -30q12 0 23 1q113 2 197 96q39 43 98 156q-1 -14 -1 -28q0 -98 51 -163q59 -74 163 -74q156 0 291 129q145 148 170 371q3 29 3 57q0 96 -36 191q-59 158 -202 260 q-164 123 -381 145q-46 5 -91 5q-168 0 -327 -66q-190 -82 -309 -242q-131 -174 -152 -370zM618 520q0 141 64 293q76 176 158 252q67 62 107 62q9 0 17 -3q40 -17 40 -109v-9q-5 -129 -48 -258q-25 -74 -75 -166q-55 -100 -74 -121q-70 -77 -120 -77q-5 0 -11 1 q-57 14 -58 135z" />
<glyph unicode="A" horiz-adv-x="1552" d="M31 0h270v27h-123l236 516h444l205 -516h-123v-27h582v27h-111l-575 1448h-27l-668 -1448h-110v-27zM424 571l227 492l197 -492h-424z" />
<glyph unicode="B" horiz-adv-x="1394" d="M51 1434v-27h123v-1380h-123v-27h316q49 0 71.5 -2t71.5 -2q12 -2 38.5 -3t41.5 -1q27 -2 92 -2q295 0 448 88q182 102 183 330q0 195 -160 305q-139 96 -332 96v2q127 0 228 74q120 85 121 238q0 181 -162 261q-125 59 -342 60q-66 0 -156 -4q-72 -6 -143 -6h-316z M498 784q27 1 53 1q173 0 276 -58q145 -84 146 -305q0 -231 -131 -334q-92 -69 -246 -69q-46 0 -98 6v759zM498 819v590q34 3 64 3q106 0 171 -38q105 -61 105 -235q0 -171 -105 -254q-83 -67 -203 -67q-16 0 -32 1z" />
<glyph unicode="C" horiz-adv-x="1394" d="M82 682q0 -324 209 -520q205 -195 545 -195q111 0 235 29q121 29 219 82v409h-28q-18 -229 -99 -344q-106 -147 -321 -147q-211 0 -310 176q-94 164 -94 504q0 322 80 504q111 260 373 260q174 0 268 -96.5t115 -307.5h29v322q-182 111 -429 110q-346 0 -563 -206 q-229 -220 -229 -580z" />
<glyph unicode="D" horiz-adv-x="1509" d="M51 1434v-27h123v-1380h-123v-27h287q82 0 168 -4t119 -4q369 0 573 176q229 193 229 573q0 334 -245 527q-223 172 -572 172q-45 0 -71 -2q-53 -4 -119 -4h-369zM498 25v1382q35 2 68 2q220 0 331 -104q164 -158 164 -586q0 -416 -154 -580q-112 -118 -324 -118 q-41 0 -85 4z" />
<glyph unicode="E" horiz-adv-x="1206" d="M51 1434v-27h123v-1380h-123v-27h1084v395h-29q-12 -219 -131 -303q-94 -63 -297 -63h-180v680h94q113 0 151 -7q197 -18 207 -229h27v469h-27q-16 -178 -209 -199q-31 -6 -143 -6h-100v668h133q209 0 293 -43q117 -63 137 -262h29v334h-1039z" />
<glyph unicode="F" horiz-adv-x="1148" d="M51 1434v-27h123v-1380h-123v-27h582v27h-135v682h80q100 0 139 -7q197 -18 207 -229h26v469h-26q-16 -178 -209 -199q-31 -6 -129 -6h-88v668h120q209 0 293 -43q119 -66 138 -262h28v334h-1026z" />
<glyph unicode="G" horiz-adv-x="1488" d="M82 682q0 -322 215 -520q211 -195 543 -195q133 0 272 37q178 47 285 131v391h123v27h-574v-27h123v-229q0 -145 -31 -209q-43 -92 -178 -92q-240 0 -342 215q-80 168 -80 465q0 186 27 321q39 199 127 306q111 137 297 137q174 0 268 -96.5t115 -307.5h28v322 q-180 110 -424 110h-4q-346 0 -563 -206q-227 -217 -227 -580z" />
<glyph unicode="H" horiz-adv-x="1515" d="M51 0h572v27h-123v667h516v-667h-121v-27h569v27h-123v1380h123v27h-571v-27h123v-684h-516v684h123v27h-572v-27h123v-1380h-123v-27z" />
<glyph unicode="I" horiz-adv-x="673" d="M51 0h572v27h-123v1380h123v27h-572v-27h123v-1380h-123v-27z" />
<glyph unicode="J" horiz-adv-x="864" d="M2 143q2 -90 80 -135q66 -39 149 -39q213 0 326 127q133 150 133 484v827h123v27h-569v-27h123v-1149q0 -123 -44 -190.5t-130 -67.5q-35 0 -62 10q-16 8 -22 13q10 -1 20 -1q48 0 82 33q39 35 39 88.5t-36 89t-89 35.5q-51 0 -88 -36q-35 -33 -35 -84v-5z" />
<glyph unicode="K" horiz-adv-x="1587" d="M72 0h569v27h-123v1378h123v29h-569v-27h123v-1380h-123v-27zM522 762l500 -735h-123v-27h627v27h-111l-641 944l422 434h111v29h-275v-29h123l-633 -639v-4z" />
<glyph unicode="L" horiz-adv-x="1185" d="M72 0h1050v395h-28q-12 -219 -131 -303q-94 -63 -297 -63h-146v1378h142v27h-590v-27h123v-1378h-123v-29z" />
<glyph unicode="M" horiz-adv-x="1761" d="M51 0h277v27h-123v1374h2l512 -1421h31l507 1421h3v-1374h-123v-27h573v27h-123v1380h123v27h-473l-342 -957l-352 957h-492v-27h123v-1380h-123v-27z" />
<glyph unicode="N" horiz-adv-x="1347" d="M72 0h276v27h-123v1374h2l895 -1428h31v1434h123v27h-277v-27h123v-813h-2l-528 840h-520v-27h123v-1380h-123v-27z" />
<glyph unicode="O" d="M82 688q0 -332 205 -524q207 -197 538 -197q330 0 549 183q244 203 244 559q0 336 -191 540q-203 219 -557 219q-340 0 -557 -198q-231 -211 -231 -582zM442 682q0 184 23 322q27 190 113 303q102 133 274 133q221 0 319 -221q84 -189 84 -537q0 -178 -24 -311 q-33 -172 -115 -265q-99 -110 -267 -110h-3q-207 0 -307 186q-96 178 -97 500z" />
<glyph unicode="P" horiz-adv-x="1284" d="M51 0h574v27h-123v487q73 -8 140 -8q197 0 337 72q233 119 233 421q0 162 -100 273q-80 88 -219 135q-113 37 -223 37q-45 0 -152 -4q-83 -6 -147 -6h-320v-29h123v-1378h-123v-27zM502 543v866q25 3 48 3q122 0 208 -79q121 -111 121 -336q0 -217 -78 -331 q-84 -124 -266 -124q-16 0 -33 1z" />
<glyph unicode="Q" d="M82 688q0 -352 234 -553q198 -171 469 -171q47 0 96 5q-113 -23 -171.5 -94.5t-58.5 -169.5q0 -100 76 -176t184 -76q127 0 205 105q52 71 52 148q0 39 -13 79h-27q-37 -82 -133 -82q-53 0 -98 33q-51 37 -51 96q0 74 67 115q37 23 150 55q270 80 412.5 258t142.5 449 q0 336 -193 544q-199 215 -551 215q-365 0 -581 -217q-211 -215 -211 -563zM438 682q0 350 90 539q104 219 332 219q217 0 311 -215q80 -182 80 -543q0 -336 -92 -506t-297 -180h-18q-205 0 -305 178q-100 180 -101 508z" />
<glyph unicode="R" horiz-adv-x="1382" d="M51 0h572v27h-123v657q115 0 174 -10t96 -47q72 -72 72 -346q0 -307 270 -308q113 0 186 66q51 45 64 111l-23 8q-2 -2 -6 -14.5t-12 -20.5q-23 -27 -51 -27q-57 0 -72 58q-18 58 -18 190q0 166 -74 252q-98 109 -324 109v2q176 10 295 100q127 96 127 256 q0 201 -190 303q-147 78 -334 78q-68 0 -158 -4q-68 -6 -141 -6h-330v-29h123v-1378h-123v-27zM500 1409q32 3 62 3q132 0 204 -52q104 -76 104 -273q0 -184 -91 -279q-89 -93 -271 -93h-8v694z" />
<glyph unicode="S" horiz-adv-x="1153" d="M92 78q70 -43 201 -76q139 -35 252 -35q215 0 354 105q162 121 162 340q0 217 -113 336q-78 82 -268 155q-186 70 -266 134.5t-80 158.5q0 102 61 170q63 74 172 74q168 0 256 -111q84 -106 101 -293h28v322q-76 43 -161 72q-118 38 -240 38h-6q-190 0 -318 -114 q-133 -121 -133 -318q0 -156 86 -250q76 -88 258 -161q197 -82 285 -165t88 -204q0 -109 -80 -184.5t-196 -75.5q-193 0 -299 135q-98 125 -115 356h-29v-409z" />
<glyph unicode="T" horiz-adv-x="1320" d="M41 1100h29q14 195 139 262q82 43 291 43v-1378h-123v-27h569v27h-123v1378q207 0 291 -45q117 -66 137 -260h29v334h-1239v-334z" />
<glyph unicode="U" horiz-adv-x="1435" d="M72 1407h123v-700q0 -244 22 -363q33 -178 150 -266q137 -104 401 -105q256 0 389 174q72 92 98.5 198t26.5 263v799h123v27h-277v-27h123v-846q0 -248 -114 -397q-125 -162 -359 -162q-168 0 -221 176q-33 106 -33 400v829h123v27h-575v-27z" />
<glyph unicode="V" horiz-adv-x="1406" d="M31 1407h110l535 -1434h33l557 1434h110v27h-266v-27h123l-381 -977l-365 977h123v27h-579v-27z" />
<glyph unicode="W" horiz-adv-x="2027" d="M31 1407h110l535 -1436l33 2l299 772l288 -774l33 2l557 1434h111v27h-266v-27h122l-380 -977l-365 977h123v27h-469v-27l231 -619l-141 -358l-365 977h123v27h-579v-27z" />
<glyph unicode="X" horiz-adv-x="1470" d="M31 1407h110l449 -766l-408 -614h-110v-27h270v27h-123l387 585l346 -585h-123v-27h611v29h-111l-498 843l355 535h110v27h-270v-27h123l-334 -506l-295 504h123v29h-612v-27z" />
<glyph unicode="Y" horiz-adv-x="1423" d="M31 1407h110l432 -739v-641h-122v-27h571v27h-123v710l383 670h111v27h-269v-27h123l-360 -631l-371 631h123v27h-608v-27z" />
<glyph unicode="Z" horiz-adv-x="1327" d="M92 0h1112v395h-28q-12 -219 -129 -301q-95 -65 -293 -65h-6h-287l737 1378v27h-1071v-334h29q14 195 139 262q82 43 291 43h241l-735 -1376v-29z" />
<glyph unicode="[" horiz-adv-x="256" d="M41 -453h215v27h-184v1872h184v27h-215v-1926z" />
<glyph unicode="\" horiz-adv-x="499" d="M20 1434l431 -1442l28 8l-430 1442z" />
<glyph unicode="]" horiz-adv-x="256" d="M0 -426v-27h215v1926h-215v-27h184v-1872h-184z" />
<glyph unicode="^" horiz-adv-x="854" d="M41 737l25 -12l360 752l360 -752l27 12l-371 774h-30z" />
<glyph unicode="_" horiz-adv-x="1024" d="M0 -94v-31h995v31h-995z" />
<glyph unicode="`" horiz-adv-x="389" d="M20 1436q0 -5 2 -11q3 -6 4 -11t7 -12t9 -11.5t12 -12.5t14.5 -14t17.5 -18l20 -19l101 -96l92 -90q12 -12 22.5 -21.5t15.5 -14.5l5 -5q7 0 27 20q0 2 -17 29l-37 61q-23 37 -96 164l-43 70q-4 6 -12 20.5t-12.5 20.5t-11.5 14t-15 11t-21 3q-68 0 -81 -63q-3 -8 -3 -14 z" />
<glyph unicode="a" horiz-adv-x="1021" d="M41 229q0 -127 94 -194q84 -59 217 -60q150 0 234 99q61 -98 192 -99q90 0 148 45q41 31 45 62l-27 10q-14 -41 -49 -41q-29 0 -35 29q-8 25 -8 84v444q0 205 -92 297q-86 86 -260 86q-172 0 -260 -88q-70 -68 -70 -145q0 -49 35 -85t84 -36t85 36t36 85t-36 84t-85 35 q-27 -1 -45 -9q68 82 172 82q63 0 100 -37q43 -47 43 -153v-223q-238 -25 -364 -91q-154 -80 -154 -217zM336 225q0 109 57.5 183.5t165.5 99.5v-260q0 -92 14 -146q-12 -20 -51.5 -43.5t-68.5 -23.5q-59 0 -88 59q-29 53 -29 131z" />
<glyph unicode="b" horiz-adv-x="1216" d="M51 0h408l8 96q25 -43 76 -73q70 -47 172 -48q152 0 274 111q156 141 156 393q0 250 -152 393q-125 119 -270 119q-96 0 -170 -39q-59 -34 -86 -75v636h-416v-26h123v-1460h-123v-27zM467 821q18 39 60 68t89 29q94 0 152 -125q55 -121 55 -297q0 -164 -39 -279 q-57 -164 -182 -164q-84 1 -135 97v671z" />
<glyph unicode="c" horiz-adv-x="972" d="M211 106q125 -131 301 -131q160 0 276 95q92 74 123 168l-24 12q-27 -43 -72 -78q-72 -55 -160 -55q-139 0 -211 147q-61 117 -61 271q0 145 61 266q74 149 203 149h2q45 0 89 -21.5t67 -47.5q-29 14 -57 14q-31 0 -60 -18q-55 -35 -55 -101q0 -51 34.5 -87t86.5 -36 q53 0 85.5 37t32.5 92q0 88 -77 148q-80 61 -226 61q-209 0 -346 -129q-151 -140 -151 -380q0 -232 139 -376z" />
<glyph unicode="d" horiz-adv-x="1216" d="M215 84q115 -109 287 -109q96 0 164 41q51 31 84 80l8 -96h407v27h-123v1486h-415v-26h123v-610q-25 41 -82 75q-72 39 -160 39q-145 0 -277 -119q-159 -144 -159 -390q0 -265 143 -398zM393 459q0 211 64 334q61 125 157 125q91 -1 136 -97v-671q-51 -96 -134 -97 q-96 0 -153 92q-70 106 -70 314z" />
<glyph unicode="e" horiz-adv-x="948" d="M72 473q0 -201 106 -340q121 -158 316 -158q154 0 262 86q87 70 116 158l-24 14q-20 -35 -70 -65q-59 -39 -141 -39q-127 0 -195 133q-55 102 -59 248q227 12 330 47q164 55 164 188q0 121 -113 191q-96 55 -225 55q-205 0 -334 -149q-133 -150 -133 -369zM381 537 q2 207 55 325q45 102 99 103q37 0 65.5 -52.5t28.5 -130.5q0 -127 -55.5 -181t-192.5 -64z" />
<glyph unicode="f" horiz-adv-x="720" d="M51 0h539v27h-123v911h123v29h-123v166q0 162 33 241q45 106 153 107q49 0 91 -33t51 -80q-33 43 -95 43q-49 0 -84.5 -35t-35.5 -84q0 -53 34.5 -87t83.5 -34q63 0 101 52q35 47 35 104q0 94 -71 151.5t-190 57.5q-215 0 -315 -147q-84 -123 -84 -338v-84h-123v-29h123 v-911h-123v-27z" />
<glyph unicode="g" horiz-adv-x="1083" d="M51 143q0 -88 78 -149q74 -57 182 -74q-70 -10 -127 -74q-61 -72 -61 -135q0 -106 94 -170.5t254 -64.5q188 0 338 92q172 109 172 272q0 133 -84 209q-96 86 -324 119q-172 25 -251.5 61.5t-79.5 77.5q0 39 32 53q43 -33 129 -57q70 -20 144 -20q178 0 299 104 q125 104 125 246q0 129 -78 207q129 84 129 217q0 59 -39 97t-96 38q-49 0 -85 -35t-36 -84t35 -85t86 -36q68 0 98 52q-16 -86 -113 -140q-141 127 -325 127q-174 0 -297 -98q-129 -106 -129 -260q0 -137 129 -252q-84 -25 -135 -82q-63 -70 -64 -156zM283 -272 q0 131 63 182q227 -37 334 -80q129 -55 129 -139q0 -98 -102 -142q-78 -36 -179 -36h-6q-106 0 -172.5 58t-66.5 157zM416 635q0 156 30.5 242t92 86t92.5 -86q31 -90 31 -242q0 -166 -33 -246q-33 -82 -90 -82q-59 0 -90 90q-33 86 -33 238z" />
<glyph unicode="h" horiz-adv-x="1236" d="M51 1487h123v-1460h-123v-27h527v27h-111v778q12 25 59 55q53 31 101 31q96 0 129 -90q16 -51 16 -164v-610h-110v-27h524v27h-123v637q0 321 -291 321h-2q-88 0 -182 -45q-63 -33 -121 -90v663h-416v-26z" />
<glyph unicode="i" horiz-adv-x="641" d="M51 0v27h123v913h-123v27h416v-940h123v-27h-539zM164 1282q0 -63 46 -109.5t111.5 -46.5t110.5 46.5t45 109.5q0 66 -45 112t-110.5 46t-111.5 -46t-46 -112z" />
<glyph unicode="j" horiz-adv-x="616" d="M-174 -307q0 53 36 90t89 37t90 -37t37 -90q0 -76 -68 -109q152 29 152 256v1100h-123v27h416v-469q0 -260 -19 -418q-14 -127 -63 -248q-121 -272 -393 -272q-74 0 -117 47q-37 37 -37 86zM150 1282q0 -63 46 -109.5t111.5 -46.5t110.5 46.5t45 109.5q0 66 -45 112 t-110.5 46t-111.5 -46t-46 -112z" />
<glyph unicode="k" horiz-adv-x="1214" d="M51 0h527v27h-111v688q25 53 86 106q68 57 121 58q61 0 96 -43t35 -103q0 -94 -90 -143q-76 -41 -176 -41v-29q72 0 114.5 -71.5t42.5 -196.5q0 -279 260 -279q158 0 218 138l-25 12q-35 -45 -64 -45q-39 0 -61.5 53t-30.5 156q-12 106 -49 162q-51 72 -158 79v2 q109 0 197 78q92 78 92 187q0 84 -64.5 140t-176.5 56q-106 0 -211 -63q-101 -60 -156 -154v739h-416v-26h123v-1460h-123v-27z" />
<glyph unicode="l" horiz-adv-x="641" d="M51 0h539v27h-123v1486h-416v-26h123v-1460h-123v-27z" />
<glyph unicode="m" horiz-adv-x="1828" d="M51 0h524v27h-108v772q14 23 61 55.5t99 32.5q86 0 114.5 -59.5t28.5 -192.5v-608h-108v-27h512v27h-111v632q0 70 -14 127q27 35 59 60q51 41 111 41q86 0 114.5 -59.5t28.5 -192.5v-608h-111v-27h527v27h-123v632q0 319 -295 324q-100 0 -201 -59q-74 -44 -123 -101 q-66 160 -266 160q-92 0 -184 -49q-66 -37 -125 -94v22q-4 53 -4 105h-406v-27h123v-913h-123v-27z" />
<glyph unicode="n" horiz-adv-x="1236" d="M51 0h527v27h-111v772q20 29 59 55q53 33 101 33q86 0 114.5 -60.5t28.5 -189.5v-610h-111v-27h527v27h-123v637q0 319 -293 319q-92 0 -184 -49q-66 -37 -125 -94v22q-4 53 -4 105h-406v-27h123v-913h-123v-27z" />
<glyph unicode="o" horiz-adv-x="1157" d="M72 487q0 -231 123 -366q133 -145 374 -146q248 0 387 154q129 142 129 373q0 223 -139 356t-366 133q-229 0 -369 -143q-139 -139 -139 -361zM389 508q0 217 49 336q46 119 140 119q102 0 145 -121q41 -127 41 -334q0 -233 -39 -356q-45 -147 -143 -148q-102 0 -152 146 q-41 121 -41 358z" />
<glyph unicode="p" horiz-adv-x="1212" d="M51 -485v-27h539v27h-123v559q16 -31 80 -62q74 -37 164 -37q152 0 274 111q156 141 156 393q0 254 -152 398q-120 114 -267 114h-3q-88 0 -166 -39q-65 -34 -92 -75v16q-4 37 -4 74h-406v-27h123v-1425h-123zM467 115v727q23 29 62.5 53.5t82.5 24.5q96 0 152 -125 q55 -123 55 -299q0 -170 -41 -281q-57 -158 -188 -158q-80 1 -123 58z" />
<glyph unicode="q" horiz-adv-x="1212" d="M221 78q113 -102 273 -103q150 0 251 99v-559h-122v-27h538v27h-123v1425h123v27h-405l-4 -41q-2 -10 -2 -29v-16q-77 110 -243 110h-3q-152 0 -275 -114q-157 -146 -157 -395q0 -269 149 -404zM393 496q10 178 66 297q59 125 151 125q78 0 135 -76l3 -723 q-47 -63 -127 -64q-133 0 -191 158q-39 106 -39 230q0 26 2 53z" />
<glyph unicode="r" horiz-adv-x="917" d="M51 0h539v27h-123v702q0 88 65 164q61 72 132 72q61 0 104 -27q-14 3 -27 3q-43 0 -77 -30q-45 -41 -46 -96q0 -51 37 -87t88 -36q53 0 88 38q33 36 33 87v6q-2 78 -63 125q-55 43 -135 43q-119 0 -207 -129v21q-2 10 -2 35v49h-406v-27h123v-913h-123v-27z" />
<glyph unicode="s" horiz-adv-x="833" d="M72 659q0 -125 78 -202q61 -66 200 -117q106 -41 142 -66q73 -58 73 -129q0 -68 -55 -108q-51 -41 -121 -41q-119 0 -201 113q-70 92 -79 231h-29v-301q139 -72 317 -72q147 0 252 86q113 92 113 240q0 141 -70 225q-63 74 -209 129q-121 47 -157 74q-61 45 -62 117 q0 53 43 91t99 38q106 0 178 -86q59 -76 73 -193h27v236q-141 71 -281 71h-4q-139 0 -233 -94t-94 -242z" />
<glyph unicode="t" horiz-adv-x="669" d="M51 940h92v-647q0 -193 101 -268q66 -49 190 -50q61 0 114.5 21.5t80.5 50.5q1 0 1 0.5t-1 1.5q-2 2 -8.5 8t-8.5 11q-33 -33 -84 -33q-92 0 -92 135v770h187v27h-187v311h-30q-12 -78 -93 -127q-76 -51 -170 -51v-133h-92v-27z" />
<glyph unicode="u" horiz-adv-x="1226" d="M31 940h123v-637q0 -319 292 -319q92 0 187 51q80 43 123 92v-23q0 -10 4 -104h405v27h-123v940h-403v-27h111v-772q-18 -25 -62 -59q-51 -41 -104 -41q-88 0 -117 96q-20 59 -21 164v639h-415v-27z" />
<glyph unicode="v" horiz-adv-x="1110" d="M10 940h111l424 -967h26l408 967h111v27h-267v-27h123l-246 -584l-258 584h123v27h-555v-27z" />
<glyph unicode="w" horiz-adv-x="1671" d="M10 940h111l403 -965h27l276 646l271 -646h26l416 965h111v27h-267v-27h123l-250 -580l-243 580h123v27h-445v-27l119 -283l-127 -297l-244 580h123v27h-553v-27z" />
<glyph unicode="x" horiz-adv-x="1126" d="M10 0h283v27h-123l279 385l219 -385h-123v-27h571v27h-110l-351 620l211 293h111v27h-270v-27h122l-190 -264l-156 264h123v27h-571v-27h110l287 -500l-299 -413h-123v-27z" />
<glyph unicode="y" horiz-adv-x="1097" d="M10 940h111l217 -494l80 -184l71 -164l30 -66q18 -40 24 -55q23 -53 24 -57q-68 -158 -118 -223q-55 -70 -91 -92q29 29 29 78q0 53 -37 88.5t-86 35.5q-51 0 -87 -37.5t-36 -86.5q0 -53 41 -88t101 -35q57 0 102 32q78 53 158 215q70 139 121 273l139 371 q119 330 131 368l43 121h110v27h-266v-27h123l-225 -633l-277 633h123v27h-555v-27z" />
<glyph unicode="z" horiz-adv-x="1024" d="M72 0h850v301h-31q-12 -160 -90 -217q-76 -57 -252 -57h-139l495 921v19h-823v-275h31q14 152 98 205q68 43 250 43h104l-493 -920v-20z" />
<glyph unicode="{" horiz-adv-x="546" d="M61 639q106 0 107 -117v-459q0 -164 102 -251q80 -72 195 -72v27q-59 0 -93 47t-34 139v520q0 86 -39 132t-109 46v2q70 0 109 47.5t39 133.5v542q0 188 127 189v26q-131 0 -205 -65q-92 -82 -92 -260v-465q0 -66 -18 -96q-26 -37 -83 -37h-6v-29z" />
<glyph unicode="|" horiz-adv-x="235" d="M102 -506h31v1962h-31v-1962z" />
<glyph unicode="}" horiz-adv-x="546" d="M82 -233v-27q113 0 197 72q100 90 100 251v459q0 117 106 117v29h-6q-58 0 -80 37q-20 31 -20 96v465q0 178 -92 260q-73 65 -201 65h-4v-26q127 0 127 -189v-542q0 -86 39 -133.5t108 -47.5v-2q-70 0 -108.5 -46t-38.5 -132v-520q0 -92 -34 -139t-93 -47z" />
<glyph unicode="~" horiz-adv-x="1206" d="M82 424q0 -60 16 -105h29q-2 2 -2 13v30q0 49 29.5 82t76.5 33q82 0 285 -80q197 -82 305 -82q125 0 215 84q88 82 88 203q0 59 -16 105h-29v-13q0 -8 2 -14v-16q0 -49 -28.5 -82t-77.5 -33q-90 0 -287 82q-203 80 -305 80q-121 0 -213 -82q-88 -82 -88 -205z" />
<glyph unicode="&#xa1;" horiz-adv-x="575" d="M164 1333q0 -51 36 -87t87 -36t87 36t36 87t-36 86t-87 35t-87 -35t-36 -86zM166 102v-11q0 -46 32 -81q35 -39 88.5 -39t89.5 37q34 35 34 84v6q0 53 -27 312q-43 365 -51 424q-4 27 -10.5 82t-10.5 79q-8 59 -8 84q-2 14 -13 15h-2q-10 0 -14 -15q0 -18 -8 -82 q-10 -74 -18 -168q-10 -78 -28.5 -241.5t-22.5 -196.5l-11 -96q-8 -62 -10 -86q-4 -31 -7 -67t-3 -40z" />
<glyph unicode="&#xa2;" horiz-adv-x="901" d="M72 737q0 -248 174 -375l-92 -151l26 -16l92 151q84 -51 187 -51q143 0 243 82q74 59 107 147l-21 11q-27 -41 -63 -70q-68 -47 -141 -47q-117 0 -187 131l205 332q29 -14 53 -15q57 0 89 38t32 100q0 49 -37 100l90 145l-26 17l-86 -142q-78 63 -209 64 q-182 0 -303 -115q-133 -123 -133 -336zM346 786q0 127 53 234q66 131 181 131q80 0 137 -61q-30 14 -58 14q-32 0 -61 -17q-59 -31 -59 -100q0 -55 39 -88l-195 -315q-37 90 -37 202z" />
<glyph unicode="&#xa3;" horiz-adv-x="1050" d="M61 635h189q8 -8 31 -47l45 -90q59 -129 69 -215h-88q-115 0 -172 -43t-57 -105q0 -63 45 -102q35 -33 84 -33q131 0 194 131q63 -47 70 -51q41 -33 74 -51q86 -55 172 -56q94 0 157 86q59 82 60 213v15q-2 6 -2 16v21h-29v-41h-442l8 123q4 111 4 229h338v27h-338 q0 25 -1 72.5t-3 72.5q-2 39 -2 123v100q0 158 61 266q68 117 191 117q51 0 88 -14q74 -29 106 -74q15 -18 19 -25q-25 14 -64 15q-45 0 -82.5 -33t-37.5 -88q0 -49 34.5 -85t85.5 -36q57 0 89 39t32 92q0 100 -86 170q-104 84 -293 84q-199 0 -327 -123 q-137 -131 -138 -329q0 -176 91 -344h-175v-27zM104 131q0 39 30 67.5t77 28.5h2l166 -77q-63 -123 -166 -123q-53 0 -82 36q-27 29 -27 68z" />
<glyph unicode="&#xa5;" horiz-adv-x="1423" d="M31 1407h110l316 -543h-277v-28h295l98 -168h-364v-29h364v-612h-122v-27h571v27h-123v612h350v29h-350v69l55 99h324v28h-307l311 543h111v27h-269v-27h123l-360 -631l-371 631h123v27h-608v-27z" />
<glyph unicode="&#xa6;" horiz-adv-x="235" d="M102 -348h31v731h-31v-731zM102 602h31v731h-31v-731z" />
<glyph unicode="&#xa7;" horiz-adv-x="831" d="M61 -14q0 -88 89 -150q91 -67 213 -67h4q168 0 284 90q119 92 119 239q0 66 -27 113q-47 90 -165 158l-105 57l-2 2q133 27 215 111q84 88 84 209q0 76 -37 131q-66 96 -211 170l-119 65q-129 76 -129 152q0 72 74 112q51 29 119 29q121 0 182 -49q-10 1 -19 1 q-54 0 -91 -29q-45 -34 -45 -95q0 -53 36.5 -87t86 -34t86 36t36.5 89q0 82 -70.5 138.5t-191.5 56.5q-154 0 -264 -72q-131 -86 -131 -221q0 -127 108 -226q57 -51 216 -137h-7q-127 -16 -217 -88q-100 -80 -100 -198q0 -80 37 -136q61 -98 207 -180q35 -18 118 -70 q125 -82 125 -159q0 -68 -73 -113q-59 -39 -131 -39q-156 0 -232 90q4 -4 14 -6q16 -4 33 -4q53 0 90 37t37 88q0 49 -37 85t-90 36t-86 -38t-33 -97zM274 616q0 63 58 103q31 23 104 37h6q63 -41 95 -77t32 -83q0 -51 -47 -94q-37 -35 -98 -49l-4 2q-72 41 -109 77.5 t-37 83.5z" />
<glyph unicode="&#xa8;" horiz-adv-x="663" d="M20 1372.5q0 -59.5 41 -100.5t100.5 -41t100.5 41t41 100.5t-41 100t-100.5 40.5t-100.5 -40.5t-41 -100zM360 1372.5q0 -59.5 41 -100.5t100.5 -41t100.5 41t41 100.5t-41 100t-100.5 40.5t-100.5 -40.5t-41 -100z" />
<glyph unicode="&#xaa;" horiz-adv-x="1021" d="M41 229q0 -127 94 -194q84 -59 217 -60q150 0 234 99q61 -98 192 -99q90 0 148 45q41 31 45 62l-27 10q-14 -41 -49 -41q-29 0 -35 29q-8 25 -8 84v444q0 205 -92 297q-86 86 -260 86q-172 0 -260 -88q-70 -68 -70 -145q0 -49 35 -85t84 -36t85 36t36 85t-36 84t-85 35 q-27 -1 -45 -9q68 82 172 82q63 0 100 -37q43 -47 43 -153v-223q-238 -25 -364 -91q-154 -80 -154 -217zM336 225q0 109 57.5 183.5t165.5 99.5v-260q0 -92 14 -146q-12 -20 -51.5 -43.5t-68.5 -23.5q-59 0 -88 59q-29 53 -29 131z" />
<glyph unicode="&#xab;" horiz-adv-x="794" d="M43 487q0 -27 39 -55q6 -6 43 -35q10 -10 55 -45q16 -14 64 -53l168 -135l22 22q-59 74 -92 119l-135 182l63 84l74 99q66 84 90 118l-22 23l-168 -135l-64 -51l-30 -25q-19 -16 -25 -22q-37 -29 -43 -35q-41 -31 -39 -56zM362 487q0 -27 39 -55q6 -6 43 -35 q10 -10 56 -45l63 -53l168 -135l23 22q-59 74 -92 119l-136 182l64 84l74 99q66 84 90 118l-23 23l-168 -135l-63 -51l-31 -25l-25 -22q-37 -29 -43 -35q-41 -31 -39 -56z" />
<glyph unicode="&#xac;" horiz-adv-x="997" d="M41 662h883v-371h32v399h-915v-28z" />
<glyph unicode="&#xad;" horiz-adv-x="491" d="M61 426h369v164h-369v-164z" />
<glyph unicode="&#xb0;" horiz-adv-x="679" d="M61 1235q0 -119 82 -197q78 -82 197 -82q117 0 199 82q79 80 79 197q0 115 -79 199q-83 79 -196 79h-3q-117 0 -197 -79q-82 -82 -82 -199zM96 1235q0 100 72 172t172 72t172 -72t72 -172t-72 -172t-172 -72t-172 72t-72 172z" />
<glyph unicode="&#xb1;" horiz-adv-x="997" d="M41 41h915v29h-915v-29zM41 522h440v-407h33v407h442v29h-442v405h-33v-405h-440v-29z" />
<glyph unicode="&#xb2;" horiz-adv-x="1034" d="M82 0h29q12 8 41 16q37 10 88 11q66 0 184.5 -27t226.5 -27q154 0 217 127q33 65 33 137q0 43 -12 89h-27q-3 -22 -43 -43q-41 -23 -135 -23q-41 0 -76 8q-61 10 -84 15q-147 20 -172 20q-80 0 -116 -14l-46 -17q47 76 119 136q86 72 328 231q90 61 156 127 q157 153 157 338q0 174 -135 268q-127 86 -311 86q-152 0 -252 -74q-102 -73 -102 -190q0 -51 35.5 -87t87 -36t87 36t35.5 87t-35.5 87t-87.5 36q-41 0 -69 -21q31 51 91 85t128 34q106 0 166 -80q55 -74 55 -180q0 -119 -41 -223q-76 -178 -240 -367q-74 -83 -135 -172 q-145 -207 -145 -393z" />
<glyph unicode="&#xb3;" horiz-adv-x="1005" d="M31 217q0 -82 75 -151q96 -92 271 -93q219 0 373 115q174 129 174 363q0 195 -129 313q-103 88 -218 88h-10v2q131 33 207 139q68 96 68 195q0 100 -68 176q-88 94 -258 94q-168 0 -283 -80q-88 -61 -145 -168l25 -14q41 70 108 115q76 49 152 49q92 0 142 -60.5 t50 -171.5q0 -127 -102 -210q-80 -63 -193 -76v-27q16 1 31 1q136 0 219 -95q88 -104 88 -289q0 -231 -106 -342q-78 -80 -185 -80q-55 0 -122 27q-70 29 -97 72q8 -6 11 -9q12 -6 45 -6q51 0 86.5 36t35.5 87t-36.5 87t-85.5 36q-51 0 -87 -36t-36 -87z" />
<glyph unicode="&#xb4;" horiz-adv-x="389" d="M20 1120q20 -20 27 -20l5 5q5 5 15.5 14t22.5 22l92 90l101 96l20 19q12 12 17.5 18t14.5 14t12 12.5t9 11.5t8 12l3 11q2 7 2 13t-2 12q-14 63 -80 63q-12 0 -20.5 -3t-16.5 -11t-12.5 -13t-12.5 -20.5t-12 -21.5q-33 -55 -41 -70l-98 -164l-37 -61q-17 -27 -17 -29z " />
<glyph unicode="&#xb7;" horiz-adv-x="395" d="M41 524q0 -63 46 -109t111.5 -46t110.5 46t45 109q0 66 -45 112t-110.5 46t-111.5 -46t-46 -112z" />
<glyph unicode="&#xb8;" horiz-adv-x="481" d="M41 -426q43 -82 174 -82q88 0 154 53q71 54 71 147q0 89 -57 145.5t-143 56.5q-38 -1 -56 -9l123 115h-43l-143 -135l18 -21h10q59 0 100 -43q44 -47 44 -116q0 -68 -34 -107t-91 -39q-74 0 -100 47l-13 -6q-6 -2 -14 -6z" />
<glyph unicode="&#xb9;" horiz-adv-x="657" d="M41 0h575v27h-131v1437h-28q-25 -106 -125 -180q-113 -86 -275 -86v-27h115v-1144h-131v-27z" />
<glyph unicode="&#xba;" horiz-adv-x="1157" d="M72 487q0 -231 123 -366q133 -145 374 -146q248 0 387 154q129 142 129 373q0 223 -139 356t-366 133q-229 0 -369 -143q-139 -139 -139 -361zM389 508q0 217 49 336q46 119 140 119q102 0 145 -121q41 -127 41 -334q0 -233 -39 -356q-45 -147 -143 -148q-102 0 -152 146 q-41 121 -41 358z" />
<glyph unicode="&#xbb;" horiz-adv-x="794" d="M41 788q55 -78 164 -217l63 -84q-6 -10 -15 -22l-23 -31q-13 -18 -21 -31l-168 -217l22 -22l289 233l29 25q16 12 24.5 19.5t10.5 9.5q18 19 18 37t-18 36q-2 2 -10.5 9.5t-23.5 19.5l-30 25l-289 233zM360 788q55 -78 164 -217l64 -84q-6 -10 -15.5 -22t-22.5 -31 l-22 -31l-168 -217l23 -22l289 233l29 25q16 12 24 19.5t10 9.5q18 19 18 37t-18 36q-2 2 -10 9.5t-23.5 19.5t-29.5 25l-289 233z" />
<glyph unicode="&#xbc;" horiz-adv-x="2403" d="M41 0h575v27h-131v1437h-28q-25 -106 -125 -180q-113 -86 -275 -86v-27h115v-1144h-131v-27zM698 -8l29 -10l600 1441l-27 11zM1392 453h462v-426h-147v-27h588v25h-129v428h217v26h-217v955h-144l-630 -951v-30zM1426 479l428 649v-649h-428z" />
<glyph unicode="&#xbd;" horiz-adv-x="2401" d="M41 0h575v27h-131v1437h-28q-25 -106 -125 -180q-113 -86 -275 -86v-27h115v-1144h-131v-27zM698 -8l29 -10l600 1441l-27 11zM1449 0h29q12 8 41 16q37 10 88 11q66 0 184.5 -27t226.5 -27q154 0 217 127q33 65 33 137q0 43 -12 89h-27q-3 -22 -43 -43q-41 -23 -135 -23 q-41 0 -76 8q-61 10 -84 15q-147 20 -172 20q-80 0 -116 -14l-46 -17q47 76 119 136q86 72 328 231q90 61 156 127q157 153 157 338q0 174 -135 268q-127 86 -311 86q-152 0 -252 -74q-102 -73 -102 -190q0 -51 35.5 -87t87 -36t87 36t35.5 87t-35.5 87t-87.5 36 q-41 0 -69 -21q31 51 91 85t128 34q106 0 166 -80q55 -74 55 -180q0 -119 -41 -223q-76 -178 -240 -367q-74 -83 -135 -172q-145 -207 -145 -393z" />
<glyph unicode="&#xbe;" horiz-adv-x="2751" d="M31 217q0 -82 75 -151q96 -92 271 -93q219 0 373 115q174 129 174 363q0 195 -129 313q-103 88 -218 88h-10v2q131 33 207 139q68 96 68 195q0 100 -68 176q-88 94 -258 94q-168 0 -283 -80q-88 -61 -145 -168l25 -14q41 70 108 115q76 49 152 49q92 0 142 -60.5 t50 -171.5q0 -127 -102 -210q-80 -63 -193 -76v-27q16 1 31 1q136 0 219 -95q88 -104 88 -289q0 -231 -106 -342q-78 -80 -185 -80q-55 0 -122 27q-70 29 -97 72q8 -6 11 -9q12 -6 45 -6q51 0 86.5 36t35.5 87t-36.5 87t-85.5 36q-51 0 -87 -36t-36 -87zM1046 -8l29 -10 l600 1441l-27 11zM1740 453h462v-426h-147v-27h588v25h-129v428h217v26h-217v955h-144l-630 -951v-30zM1774 479l428 649v-649h-428z" />
<glyph unicode="&#xbf;" horiz-adv-x="964" d="M82 328q0 -172 137 -267q123 -86 309 -86q152 0 252 74q103 76 103 191q0 51 -36 86.5t-87 35.5t-87 -35.5t-36 -87t36 -87t87 -35.5q41 0 69 20q-31 -51 -91 -85t-128 -34q-104 0 -164 80q-57 76 -57 181q0 80 23 151q35 102 123 244q34 55 61 117q38 88 38 183 q0 52 -11 107h-27q2 -24 2 -45q0 -70 -25 -114q-55 -100 -219 -189q-78 -43 -129 -90q-143 -119 -143 -315zM461 1311q0 -51 35.5 -87t87 -36t87.5 36t36 87t-36 87t-87.5 36t-87 -36t-35.5 -87z" />
<glyph unicode="&#xc0;" horiz-adv-x="1552" d="M31 0h270v27h-123l236 516h444l205 -516h-123v-27h582v27h-111l-575 1448h-27l-668 -1448h-110v-27zM424 571l227 492l197 -492h-424zM471 1853.5q0 -6.5 2 -12.5t3 -11t7 -12.5t9.5 -11.5t12.5 -12t14 -14t17.5 -17.5t20.5 -19.5l100 -96l93 -91q12 -12 22 -21t15 -14 l6 -5q6 0 26 20l-2 4l-6 12q-4 7 -8 13l-37 61q-23 37 -96 164l-43 70q-4 6 -12 20l-13 21q-4 6 -11 14t-15.5 11t-20.5 3q-68 0 -82 -63q-2 -6 -2 -12.5z" />
<glyph unicode="&#xc1;" horiz-adv-x="1552" d="M31 0h270v27h-123l236 516h444l205 -516h-123v-27h582v27h-111l-575 1448h-27l-668 -1448h-110v-27zM424 571l227 492l197 -492h-424zM831 1536q20 -20 27 -20l5 5q5 5 15.5 14t22.5 21l92 91l101 96l20 19q12 12 17.5 18t14.5 14t12 12t9.5 11.5t7.5 12.5t3 11t2 12.5 t-2 12.5q-14 63 -80 63q-12 0 -20.5 -3t-16.5 -11t-12.5 -13.5t-12.5 -20.5t-12 -21l-41 -70l-98 -164l-37 -61q-4 -6 -8 -13l-6 -12z" />
<glyph unicode="&#xc2;" horiz-adv-x="1552" d="M31 0h270v27h-123l236 516h444l205 -516h-123v-27h582v27h-111l-575 1448h-27l-668 -1448h-110v-27zM424 571l227 492l197 -492h-424zM567 1513l31 -22l96 88q80 74 82 76l68 63l151 -141l95 -86l30 22l-196 322h-160z" />
<glyph unicode="&#xc3;" horiz-adv-x="1552" d="M31 0h270v27h-123l236 516h444l205 -516h-123v-27h582v27h-111l-575 1448h-27l-668 -1448h-110v-27zM424 571l227 492l197 -492h-424zM532 1618q1 -35 9 -62h32q-4 37 12.5 60.5t51.5 23.5q55 0 157.5 -43t168.5 -43q74 0 124 49.5t50 116.5q0 37 -9 62h-32q1 -10 1 -19 q0 -65 -65 -65q-59 0 -157.5 43t-167.5 43q-74 0 -124.5 -47t-50.5 -119z" />
<glyph unicode="&#xc4;" horiz-adv-x="1552" d="M31 0h270v27h-123l236 516h444l205 -516h-123v-27h582v27h-111l-575 1448h-27l-668 -1448h-110v-27zM424 571l227 492l197 -492h-424zM522 1677.5q0 -59.5 41 -100.5t100.5 -41t100.5 41t41 100.5t-41 100.5t-100.5 41t-100.5 -41t-41 -100.5zM862 1677.5 q0 -59.5 41 -100.5t100.5 -41t100.5 41t41 100.5t-41 100.5t-100.5 41t-100.5 -41t-41 -100.5z" />
<glyph unicode="&#xc5;" horiz-adv-x="1552" d="M31 0h270v27h-123l236 516h444l205 -516h-123v-27h582v27h-111l-575 1448h-27l-668 -1448h-110v-27zM424 571l227 492l197 -492h-424zM616 1700q0 -88 51.5 -142.5t147.5 -54.5t149.5 56.5t53.5 144.5q0 86 -56.5 137t-144.5 51q-90 0 -145.5 -53t-55.5 -139zM743 1706 q0 162 74 162q43 0 57 -39q14 -37 15 -123q0 -82 -15 -125q-14 -45 -55 -45q-76 0 -76 170z" />
<glyph unicode="&#xc6;" horiz-adv-x="2031" d="M31 0h252v25h-109l424 682h401v-680h-122v-27h1083v395h-29q-12 -219 -131 -303q-94 -63 -297 -63h-180v680h94q113 0 152 -7q197 -18 207 -229h26v469h-26q-16 -178 -209 -199q-31 -6 -144 -6h-100v668h133q209 0 293 -43q117 -63 137 -262h29v334h-1038v-27h122 l-862 -1382h-106v-25zM618 737l379 606h2v-608z" />
<glyph unicode="&#xc7;" horiz-adv-x="1394" d="M82 682q0 -307 190 -502q193 -197 502 -211l-106 -100l18 -21h10q59 0 100 -43q44 -47 44 -116q0 -68 -34 -107t-91 -39q-74 0 -101 47l-26 -12q43 -82 174 -82q88 0 153 53q72 55 72 150q0 86 -57.5 142.5t-143.5 56.5q-37 0 -55 -9l86 78q268 0 473 111v409h-28 q-18 -229 -99 -344q-106 -147 -321 -147q-211 0 -310 176q-94 164 -94 504q0 322 80 504q111 260 373 260q174 0 268 -96.5t115 -307.5h29v322q-180 110 -425 110h-4q-346 0 -563 -206q-229 -219 -229 -580z" />
<glyph unicode="&#xc8;" horiz-adv-x="1206" d="M51 1434v-27h123v-1380h-123v-27h1084v395h-29q-12 -219 -131 -303q-94 -63 -297 -63h-180v680h94q113 0 151 -7q197 -18 207 -229h27v469h-27q-16 -178 -209 -199q-31 -6 -143 -6h-100v668h133q209 0 293 -43q117 -63 137 -262h29v334h-1039zM362 1851q0 -5 3 -10 q2 -6 3 -11t7 -12l9 -12q3 -4 12.5 -12t14.5 -14t17 -18l21 -19l100 -96l92 -91q12 -12 22.5 -21t15.5 -14l5 -5q7 0 27 20l-2 4q-2 4 -6.5 11.5t-8.5 13.5l-37 61q-23 37 -96 164l-43 70q-4 6 -12 20t-12.5 20.5t-11.5 14.5t-15 11t-21 3q-68 0 -81 -63q-3 -8 -3 -15z" />
<glyph unicode="&#xc9;" horiz-adv-x="1206" d="M51 1434v-27h123v-1380h-123v-27h1084v395h-29q-12 -219 -131 -303q-94 -63 -297 -63h-180v680h94q113 0 151 -7q197 -18 207 -229h27v469h-27q-16 -178 -209 -199q-31 -6 -143 -6h-100v668h133q209 0 293 -43q117 -63 137 -262h29v334h-1039zM580 1536q20 -20 26 -20 l5 5q5 5 15.5 14t22.5 21l92 91l101 96l20 19q12 12 17.5 18t14.5 14t12 12t9.5 11.5t7.5 12.5t3 11t2 12.5t-2 12.5q-14 63 -80 63q-12 0 -20.5 -3t-16.5 -11t-12 -13.5t-12.5 -20.5t-12.5 -21q-35 -57 -41 -70l-98 -164l-37 -61q-4 -6 -8 -13l-6 -12z" />
<glyph unicode="&#xca;" horiz-adv-x="1206" d="M51 1434v-27h123v-1380h-123v-27h1084v395h-29q-12 -219 -131 -303q-94 -63 -297 -63h-180v680h94q113 0 151 -7q197 -18 207 -229h27v469h-27q-16 -178 -209 -199q-31 -6 -143 -6h-100v668h133q209 0 293 -43q117 -63 137 -262h29v334h-1039zM367 1513l30 -22l97 88 q80 74 81 76l68 63l152 -141l94 -86l31 22l-197 322h-160z" />
<glyph unicode="&#xcb;" horiz-adv-x="1206" d="M51 1434v-27h123v-1380h-123v-27h1084v395h-29q-12 -219 -131 -303q-94 -63 -297 -63h-180v680h94q113 0 151 -7q197 -18 207 -229h27v469h-27q-16 -178 -209 -199q-31 -6 -143 -6h-100v668h133q209 0 293 -43q117 -63 137 -262h29v334h-1039zM272 1677.5 q0 -59.5 41 -100.5t100.5 -41t100.5 41t41 100.5t-41 100.5t-100.5 41t-100.5 -41t-41 -100.5zM612 1677.5q0 -59.5 41 -100.5t100.5 -41t100.5 41t41 100.5t-41 100.5t-100.5 41t-100.5 -41t-41 -100.5z" />
<glyph unicode="&#xcc;" horiz-adv-x="673" d="M51 0h572v27h-123v1380h123v27h-572v-27h123v-1380h-123v-27zM74 1853.5q0 -6.5 2 -12.5t3 -11t7 -12l9 -12q3 -4 12.5 -12t14.5 -14t17.5 -17.5t20.5 -19.5l100 -96l92 -91q12 -12 22.5 -21t15.5 -14l5 -5q7 0 27 20l-2 4l-6 12q-4 7 -8 13l-37 61l-97 164l-43 70 q-4 6 -12 20l-12 21q-4 6 -11.5 14t-15.5 11t-20 3q-68 0 -82 -63q-2 -6 -2 -12.5z" />
<glyph unicode="&#xcd;" horiz-adv-x="675" d="M51 0h572v27h-123v1380h123v27h-572v-27h123v-1380h-123v-27zM276 1536q20 -20 27 -20l5 5q5 5 15.5 14t22.5 21l92 91l101 96l20 19q12 12 17.5 18t14.5 14t12 12l9 12q6 7 7.5 12t3.5 11t2 12.5t-2 12.5q-14 63 -80 63q-12 0 -20.5 -3t-16.5 -11t-12.5 -13.5 t-12.5 -20.5t-12 -21q-35 -57 -41 -70l-98 -164l-37 -61q-4 -6 -8 -13l-6 -12z" />
<glyph unicode="&#xce;" horiz-adv-x="673" d="M51 0h572v27h-123v1380h123v27h-572v-27h123v-1380h-123v-27zM61 1513l31 -22l96 88q80 74 82 76l68 63q23 -23 151 -141l95 -86l30 22l-196 322h-160z" />
<glyph unicode="&#xcf;" horiz-adv-x="673" d="M27 1677.5q0 -59.5 41 -100.5t100 -41t100 41t41 100.5t-41 100.5t-100 41t-100 -41t-41 -100.5zM51 0h572v27h-123v1380h123v27h-572v-27h123v-1380h-123v-27zM367 1677.5q0 -59.5 41 -100.5t100 -41t100 41t41 100.5t-41 100.5t-100 41t-100 -41t-41 -100.5z" />
<glyph unicode="&#xd0;" horiz-adv-x="1499" d="M51 1434v-27h123v-659h-123v-29h123v-692h-123v-27h287q82 0 168 -4t119 -4q369 0 573 176q229 193 229 573q0 334 -245 527q-223 172 -572 172q-45 0 -71 -2q-53 -4 -119 -4h-369zM498 25v694h311v29h-311v659q35 2 68 2q221 0 331 -104q164 -158 164 -586 q0 -416 -154 -580q-112 -118 -324 -118q-41 0 -85 4z" />
<glyph unicode="&#xd1;" horiz-adv-x="1347" d="M72 0v27h123v1380h-123v27h520l528 -840h2v813h-123v27h277v-27h-123v-1434h-31l-895 1428h-2v-1374h123v-27h-276zM383 1618q0 -35 8 -62h33q-4 37 12.5 60.5t50.5 23.5q55 0 158 -43t168 -43q74 0 124 49.5t50 116.5q0 37 -8 62h-33q1 -10 1 -19q0 -65 -64 -65 q-59 0 -157.5 43t-168.5 43q-74 0 -124 -47t-50 -119z" />
<glyph unicode="&#xd2;" d="M82 692q0 -332 205 -524q207 -197 538 -197q330 0 549 183q244 203 244 559q0 336 -191 540q-203 219 -557 220q-340 0 -557 -199q-231 -211 -231 -582zM442 686q0 184 23 322q27 190 113 303q102 133 274 133q221 0 319 -221q84 -189 84 -537q0 -178 -24 -311 q-33 -172 -115 -264q-100 -111 -270 -111q-207 0 -307 186q-96 178 -97 500zM571 1853.5q0 -6.5 2 -12.5t3.5 -11t7.5 -12l9 -12q3 -4 12 -12t14.5 -14t17.5 -17l20 -20l101 -96l92 -91q12 -12 22.5 -21t15.5 -14l5 -5q7 0 27 20l-2 4q-2 4 -6.5 11.5t-8.5 13.5l-37 61 q-23 37 -96 164l-43 70q-4 6 -12 20t-12.5 20.5t-11.5 14.5t-15 11t-21 3q-68 0 -82 -63q-2 -6 -2 -12.5z" />
<glyph unicode="&#xd3;" d="M82 692q0 -332 205 -524q207 -197 538 -197q330 0 549 183q244 203 244 559q0 336 -191 540q-203 219 -557 220q-340 0 -557 -199q-231 -211 -231 -582zM442 686q0 184 23 322q27 190 113 303q102 133 274 133q221 0 319 -221q84 -189 84 -537q0 -178 -24 -311 q-33 -172 -115 -264q-100 -111 -270 -111q-207 0 -307 186q-96 178 -97 500zM813 1536q20 -20 27 -20l5 5q5 5 15 14l23 21l92 91l100 96q8 8 20.5 19.5t17.5 17.5t14.5 14t12.5 12l9 12q6 7 7 12t3 11t2 12.5t-2 12.5q-14 63 -80 63q-12 0 -20 -3t-16.5 -11t-12.5 -13.5 t-12 -20.5t-12 -21q-35 -57 -41 -70l-99 -164l-37 -61q-4 -6 -8 -13l-6 -12z" />
<glyph unicode="&#xd4;" d="M82 692q0 -332 205 -524q207 -197 538 -197q330 0 549 183q244 203 244 559q0 336 -191 540q-203 219 -557 220q-340 0 -557 -199q-231 -211 -231 -582zM442 686q0 184 23 322q27 190 113 303q102 133 274 133q221 0 319 -221q84 -189 84 -537q0 -178 -24 -311 q-33 -172 -115 -264q-100 -111 -270 -111q-207 0 -307 186q-96 178 -97 500zM590 1513l31 -22l96 88q80 74 82 76q53 49 67 63q23 -23 152 -141l94 -86l31 22l-197 322h-160z" />
<glyph unicode="&#xd5;" d="M82 692q0 -332 205 -524q207 -197 538 -197q330 0 549 183q244 203 244 559q0 336 -191 540q-203 219 -557 220q-340 0 -557 -199q-231 -211 -231 -582zM442 686q0 184 23 322q27 190 113 303q102 133 274 133q221 0 319 -221q84 -189 84 -537q0 -178 -24 -311 q-33 -172 -115 -264q-100 -111 -270 -111q-207 0 -307 186q-96 178 -97 500zM592 1618q0 -35 8 -62h33q-4 37 12.5 60.5t50.5 23.5q55 0 157.5 -43t168.5 -43q74 0 124 49.5t50 116.5q0 37 -8 62h-33q1 -10 1 -19q0 -65 -64 -65q-59 0 -157.5 43t-168.5 43q-74 0 -124 -47 t-50 -119z" />
<glyph unicode="&#xd6;" d="M82 692q0 -332 205 -524q207 -197 538 -197q330 0 549 183q244 203 244 559q0 336 -191 540q-203 219 -557 220q-340 0 -557 -199q-231 -211 -231 -582zM442 686q0 184 23 322q27 190 113 303q102 133 274 133q221 0 319 -221q84 -189 84 -537q0 -178 -24 -311 q-33 -172 -115 -264q-100 -111 -270 -111q-207 0 -307 186q-96 178 -97 500zM573 1677.5q0 -59.5 41 -100.5t100.5 -41t100.5 41t41 100.5t-41 100.5t-100.5 41t-100.5 -41t-41 -100.5zM913 1677.5q0 -59.5 41 -100.5t100.5 -41t100.5 41t41 100.5t-41 100.5t-100.5 41 t-100.5 -41t-41 -100.5z" />
<glyph unicode="&#xd7;" horiz-adv-x="770" d="M51 182l21 -20l313 315l315 -315l19 20l-313 316l313 311l-21 20l-313 -311l-313 311l-21 -20l314 -311z" />
<glyph unicode="&#xd8;" d="M82 692q0 -322 194 -516l-129 -127l21 -20l129 129q199 -186 529 -186q0 -1 1 -1q329 0 547 183q244 203 244 559q0 348 -205 555l125 125l-20 20l-127 -125q-201 184 -521 185q-340 0 -557 -199q-231 -211 -231 -582zM442 686q0 184 23 322q27 190 113 303 q102 133 274 133q139 0 233 -90q82 -86 125 -246l-739 -735q-29 143 -29 313zM479 340l740 735q36 -156 36 -377v-12q0 -178 -24 -311q-33 -172 -115 -264q-100 -111 -270 -111q-279 0 -367 340z" />
<glyph unicode="&#xd9;" horiz-adv-x="1415" d="M51 1407h123v-700q0 -244 23 -363q33 -178 149 -266q137 -104 402 -105q256 0 389 174q72 92 98.5 198t26.5 263v799h122v27h-276v-27h123v-846q0 -248 -115 -397q-125 -162 -358 -162q-168 0 -221 176q-33 106 -33 400v829h123v27h-576v-27zM528 1853.5q0 -6.5 2 -12.5 t3.5 -11t7.5 -13l9 -11q3 -4 12 -12t14.5 -14t17.5 -18l20 -19l101 -96l92 -91q12 -12 22.5 -21t15.5 -14l5 -5q7 0 27 20l-3 4l-6 12q-4 7 -8 13l-37 61q-23 37 -96 164l-43 70q-4 6 -12 20t-12.5 20.5t-11.5 14.5t-15 11t-21 3q-68 0 -82 -63q-2 -6 -2 -12.5z" />
<glyph unicode="&#xda;" horiz-adv-x="1415" d="M51 1407h123v-700q0 -244 23 -363q33 -178 149 -266q137 -104 402 -105q256 0 389 174q72 92 98.5 198t26.5 263v799h122v27h-276v-27h123v-846q0 -248 -115 -397q-125 -162 -358 -162q-168 0 -221 176q-33 106 -33 400v829h123v27h-576v-27zM678 1536q20 -20 27 -20l5 5 q5 5 15 14l23 21l92 91l100 96q8 8 20.5 19.5t17.5 17.5t14 14t12.5 12t9.5 11.5t7 12.5t3 11t2 12.5t-2 12.5q-14 63 -80 63q-12 0 -20.5 -3t-16.5 -11t-12 -13.5t-12.5 -20.5t-12.5 -21q-35 -57 -41 -70l-98 -164l-37 -61q-4 -6 -8 -14l-6 -11z" />
<glyph unicode="&#xdb;" horiz-adv-x="1415" d="M51 1407h123v-700q0 -244 23 -363q33 -178 149 -266q137 -104 402 -105q256 0 389 174q72 92 98.5 198t26.5 263v799h122v27h-276v-27h123v-846q0 -248 -115 -397q-125 -162 -358 -162q-168 0 -221 176q-33 106 -33 400v829h123v27h-576v-27zM522 1513l31 -22l96 88 q80 74 82 76l68 63l151 -141l94 -86l31 22l-196 322h-160z" />
<glyph unicode="&#xdc;" horiz-adv-x="1415" d="M51 1407h123v-700q0 -244 23 -363q33 -178 149 -266q137 -104 402 -105q256 0 389 174q72 92 98.5 198t26.5 263v799h122v27h-276v-27h123v-846q0 -248 -115 -397q-125 -162 -358 -162q-168 0 -221 176q-33 106 -33 400v829h123v27h-576v-27zM457 1677.5 q0 -59.5 41 -100.5t100 -41t100 41t41 100.5t-41 100.5t-100 41t-100 -41t-41 -100.5zM797 1677.5q0 -59.5 41 -100.5t100 -41t100 41t41 100.5t-41 100.5t-100 41t-100 -41t-41 -100.5z" />
<glyph unicode="&#xdd;" horiz-adv-x="1402" d="M20 1407h111l432 -739v-641h-123v-27h572v27h-123v710l383 670h110v27h-268v-27h123l-360 -631l-371 631h123v27h-609v-27zM692 1536q20 -20 27 -20l5 5q5 5 15.5 14t22.5 21l92 91l100 96q8 8 20.5 19.5t17.5 17.5t14.5 14t12.5 12l9 12q6 7 7 12t3 11t2 12.5t-2 12.5 q-14 63 -80 63q-12 0 -20 -3t-16.5 -11t-12.5 -13.5t-12 -20.5t-12 -21l-41 -70l-99 -164l-36 -61q-4 -6 -8.5 -13.5t-6.5 -11.5z" />
<glyph unicode="&#xde;" horiz-adv-x="1284" d="M51 0h574v27h-123v282q99 -28 193 -28h7q209 0 351 116q159 132 159 374q0 232 -178 351q-147 98 -350 99q-106 0 -182 -29v213h123v29h-574v-29h123v-1378h-123v-27zM502 338v825q39 10 86 11q125 0 205 -95q86 -106 86 -307t-64 -313q-72 -131 -223 -131q-49 0 -90 10z " />
<glyph unicode="&#xdf;" horiz-adv-x="1290" d="M31 0h485v29h-70v923q0 139 13 240q18 143 71 221q68 98 185 98q96 0 151 -71q49 -63 49 -162q0 -72 -20 -119q-33 -76 -125 -168q-25 -25 -70 -78q-75 -99 -75 -220q0 -68 30 -120q59 -96 176 -172l99 -73q106 -88 106 -162q0 -63 -59 -115q-55 -45 -117 -49 q-16 -1 -32 -1q-62 0 -119 19q-70 23 -109 70q18 -16 53 -10q53 4 87 39t34 86q0 49 -37 85t-90 36t-88 -39q-31 -35 -31 -85v-12q4 -96 99 -157q86 -59 207 -59q15 0 30 1q160 10 262 93q112 89 112 230q0 14 -1 28q-8 104 -78 186q-47 55 -162 131q-98 57 -155 115 q-68 68 -68 131q0 33 21.5 69.5t39 55t62.5 61.5q121 117 121 213q0 119 -98 189q-86 61 -205 61q-336 0 -459 -176q-102 -143 -102 -504v-831h-123v-27z" />
<glyph unicode="&#xe0;" horiz-adv-x="1021" d="M41 229q0 -127 94 -194q84 -59 217 -60q150 0 234 99q61 -98 192 -99q90 0 148 45q41 31 45 62l-27 10q-14 -41 -49 -41q-29 0 -35 29q-8 25 -8 84v444q0 205 -92 297q-86 86 -260 86q-172 0 -260 -88q-70 -68 -70 -145q0 -49 35 -85t84 -36t85 36t36 85t-36 84t-85 35 q-27 -1 -45 -9q68 82 172 82q63 0 100 -37q43 -47 43 -153v-223q-238 -25 -364 -91q-154 -80 -154 -217zM182 1399q0 -6 2 -12.5t3 -11.5t7.5 -12t9.5 -11t12 -12.5t14.5 -14.5t17.5 -18l20 -19l101 -96l92 -90q12 -12 22.5 -21.5t15.5 -14.5l5 -5q6 0 26 20q-2 0 -16 29 l-37 61q-23 37 -96 164l-43 70q-4 6 -12.5 20.5t-12.5 20.5t-11 14t-15 11.5t-21 3.5q-68 0 -82 -64q-2 -6 -2 -12zM336 225q0 109 57.5 183.5t165.5 99.5v-260q0 -92 14 -146q-12 -20 -51.5 -43.5t-68.5 -23.5q-59 0 -88 59q-29 53 -29 131z" />
<glyph unicode="&#xe1;" horiz-adv-x="1021" d="M41 229q0 -127 94 -194q84 -59 217 -60q150 0 234 99q61 -98 192 -99q90 0 148 45q41 31 45 62l-27 10q-14 -41 -49 -41q-29 0 -35 29q-8 25 -8 84v444q0 205 -92 297q-86 86 -260 86q-172 0 -260 -88q-70 -68 -70 -145q0 -49 35 -85t84 -36t85 36t36 85t-36 84t-85 35 q-27 -1 -45 -9q68 82 172 82q63 0 100 -37q43 -47 43 -153v-223q-238 -25 -364 -91q-154 -80 -154 -217zM336 225q0 109 57.5 183.5t165.5 99.5v-260q0 -92 14 -146q-12 -20 -51.5 -43.5t-68.5 -23.5q-59 0 -88 59q-29 53 -29 131zM453 1081q20 -20 26 -20l5 5 q5 5 15.5 14.5t22.5 21.5l92 90l101 96q8 8 20.5 19.5t17.5 17.5t14 14.5t12 12.5t9.5 11t7.5 12t3 11.5t2 12.5t-2 12q-14 63 -80 64q-12 0 -20.5 -3.5t-16.5 -11.5t-12 -13t-12.5 -20.5t-12.5 -21.5q-35 -57 -41 -70l-98 -164l-37 -61q-14 -29 -16 -29z" />
<glyph unicode="&#xe2;" horiz-adv-x="1021" d="M41 229q0 -127 94 -194q84 -59 217 -60q150 0 234 99q61 -98 192 -99q90 0 148 45q41 31 45 62l-27 10q-14 -41 -49 -41q-29 0 -35 29q-8 25 -8 84v444q0 205 -92 297q-86 86 -260 86q-172 0 -260 -88q-70 -68 -70 -145q0 -49 35 -85t84 -36t85 36t36 85t-36 84t-85 35 q-27 -1 -45 -9q68 82 172 82q63 0 100 -37q43 -47 43 -153v-223q-238 -25 -364 -91q-154 -80 -154 -217zM203 1085l30 -22l97 88q80 74 82 76q53 49 67 63q25 -25 152 -141l94 -86l31 22l-197 322h-160zM336 225q0 109 57.5 183.5t165.5 99.5v-260q0 -92 14 -146 q-12 -20 -51.5 -43.5t-68.5 -23.5q-59 0 -88 59q-29 53 -29 131z" />
<glyph unicode="&#xe3;" horiz-adv-x="1021" d="M41 229q0 -127 94 -194q84 -59 217 -60q150 0 234 99q61 -98 192 -99q90 0 148 45q41 31 45 62l-27 10q-14 -41 -49 -41q-29 0 -35 29q-8 25 -8 84v444q0 205 -92 297q-86 86 -260 86q-172 0 -260 -88q-70 -68 -70 -145q0 -49 35 -85t84 -36t85 36t36 85t-36 84t-85 35 q-27 -1 -45 -9q68 82 172 82q63 0 100 -37q43 -47 43 -153v-223q-238 -25 -364 -91q-154 -80 -154 -217zM188 1186q1 -35 9 -62h32q-4 37 12.5 60.5t51.5 23.5q55 0 157.5 -43t167.5 -43q74 0 124.5 49.5t50.5 116.5q0 37 -9 62h-32q1 -10 1 -19q0 -65 -65 -65 q-59 0 -157.5 43t-168.5 43q-74 0 -124 -47.5t-50 -118.5zM336 225q0 109 57.5 183.5t165.5 99.5v-260q0 -92 14 -146q-12 -20 -51.5 -43.5t-68.5 -23.5q-59 0 -88 59q-29 53 -29 131z" />
<glyph unicode="&#xe4;" horiz-adv-x="1021" d="M41 229q0 -127 94 -194q84 -59 217 -60q150 0 234 99q61 -98 192 -99q90 0 148 45q41 31 45 62l-27 10q-14 -41 -49 -41q-29 0 -35 29q-8 25 -8 84v444q0 205 -92 297q-86 86 -260 86q-172 0 -260 -88q-70 -68 -70 -145q0 -49 35 -85t84 -36t85 36t36 85t-36 84t-85 35 q-27 -1 -45 -9q68 82 172 82q63 0 100 -37q43 -47 43 -153v-223q-238 -25 -364 -91q-154 -80 -154 -217zM168 1235q0 -59 41 -100t100.5 -41t100.5 41t41 100t-41 100t-100.5 41t-100.5 -41t-41 -100zM336 225q0 109 57.5 183.5t165.5 99.5v-260q0 -92 14 -146 q-12 -20 -51.5 -43.5t-68.5 -23.5q-59 0 -88 59q-29 53 -29 131zM508 1235q0 -59 41 -100t100.5 -41t100.5 41t41 100t-41 100t-100.5 41t-100.5 -41t-41 -100z" />
<glyph unicode="&#xe5;" horiz-adv-x="1021" d="M41 229q0 -127 94 -194q84 -59 217 -60q150 0 234 99q61 -98 192 -99q90 0 148 45q41 31 45 62l-27 10q-14 -41 -49 -41q-29 0 -35 29q-8 25 -8 84v444q0 205 -92 297q-86 86 -260 86q-172 0 -260 -88q-70 -68 -70 -145q0 -49 35 -85t84 -36t85 36t36 85t-36 84t-85 35 q-27 -1 -45 -9q68 82 172 82q63 0 100 -37q43 -47 43 -153v-223q-238 -25 -364 -91q-154 -80 -154 -217zM295 1270q0 -88 51 -142.5t147.5 -54.5t149.5 56.5t53 144.5q0 86 -56 137t-144 51q-90 0 -145.5 -53t-55.5 -139zM336 225q0 109 57.5 183.5t165.5 99.5v-260 q0 -92 14 -146q-12 -20 -51.5 -43.5t-68.5 -23.5q-59 0 -88 59q-29 53 -29 131zM422 1276q0 162 74 162q43 0 57 -39q14 -37 14 -123q0 -82 -14 -125q-14 -45 -55 -45q-76 0 -76 170z" />
<glyph unicode="&#xe6;" horiz-adv-x="1425" d="M125 35q84 -59 217 -60q207 0 330 136q119 -139 299 -140q156 0 262 86q88 70 117 158l-25 14q-20 -35 -70 -65q-59 -39 -141 -39q-127 0 -194 133q-55 102 -60 248q227 12 330 47q164 55 164 188q0 121 -113 191q-96 55 -225 55q-149 0 -262 -84l-2 2q-86 86 -263 86 q-172 0 -260 -88q-69 -67 -69 -143v-2q0 -49 34.5 -85t84 -36t85 36t35.5 85t-35.5 84t-84.5 35q-27 0 -46 -9q68 82 173 82q63 0 100 -37q43 -47 43 -153v-223q-238 -25 -365 -91q-153 -79 -153 -215q0 -129 94 -196zM326 225q0 109 57 183.5t166 99.5l2 -39 q0 -180 102 -338q-31 -41 -80 -68q-48 -26 -93 -26q-13 0 -25 2q-129 20 -129 186zM858 532q2 207 55 326q45 102 99 103q37 0 65.5 -52.5t28.5 -130.5q0 -127 -55.5 -181t-192.5 -65z" />
<glyph unicode="&#xe7;" horiz-adv-x="972" d="M182 139q102 -126 254 -155l-110 -105l18 -20h10q59 0 100 -43q44 -47 44 -117q0 -68 -34 -106.5t-91 -38.5q-74 0 -101 47l-26 -13q43 -82 174 -82q88 0 153 54q72 55 72 149q0 86 -57.5 142.5t-143.5 56.5q-37 0 -55 -8l84 77q2 -2 12 -2h27q160 0 276 95 q92 74 123 168l-24 12q-27 -43 -72 -78q-72 -55 -160 -55q-139 0 -211 147q-61 117 -61 271q0 145 61 266q74 149 203 149h2q45 0 89 -21.5t67 -47.5q-29 14 -57 14q-31 0 -60 -18q-55 -35 -55 -101q0 -51 34.5 -87t86.5 -36q53 0 85.5 37t32.5 92q0 88 -77 148 q-80 61 -226 61q-209 0 -346 -129q-151 -140 -151 -380q0 -210 110 -343z" />
<glyph unicode="&#xe8;" horiz-adv-x="948" d="M72 473q0 -201 106 -340q121 -158 316 -158q154 0 262 86q87 70 116 158l-24 14q-20 -35 -70 -65q-59 -39 -141 -39q-127 0 -195 133q-55 102 -59 248q227 12 330 47q164 55 164 188q0 121 -113 191q-96 55 -225 55q-205 0 -334 -149q-133 -150 -133 -369zM264 1399 q0 -6 2 -12.5t3 -11.5t7.5 -12t9.5 -11t12 -12.5t14 -14.5t17.5 -17.5t20.5 -19.5l101 -96l92 -90l22 -22l16 -14l5 -5q6 0 26 20q-2 0 -16 29l-37 61q-23 37 -96 164l-43 70q-4 6 -12.5 20.5t-12.5 20.5t-11 14t-15.5 11.5t-20.5 3.5q-68 0 -82 -64q-2 -6 -2 -12zM381 537 q2 207 55 325q45 102 99 103q37 0 65.5 -52.5t28.5 -130.5q0 -127 -55.5 -181t-192.5 -64z" />
<glyph unicode="&#xe9;" horiz-adv-x="1599" d="M72 473q0 -201 106 -340q121 -158 316 -158q154 0 262 86q87 70 116 158l-24 14q-20 -35 -70 -65q-59 -39 -141 -39q-127 0 -195 133q-55 102 -59 248q227 12 330 47q164 55 164 188q0 121 -113 191q-96 55 -225 55q-205 0 -334 -149q-133 -150 -133 -369zM381 537 q2 207 55 325q45 102 99 103q37 0 65.5 -52.5t28.5 -130.5q0 -127 -55.5 -181t-192.5 -64zM412 1081q20 -20 26 -20l5 5q5 5 15.5 14.5t22.5 21.5l92 90l101 96q8 8 20.5 19.5t17.5 17.5t14 14.5t12 12.5t9.5 11t7.5 12t3 11.5t2 12.5t-2 12q-14 63 -80 64q-12 0 -20.5 -3.5 t-16.5 -11.5t-12 -13t-12.5 -20.5t-12.5 -21.5q-35 -57 -41 -70l-98 -164l-37 -61q-14 -29 -16 -29z" />
<glyph unicode="&#xea;" horiz-adv-x="948" d="M72 473q0 -201 106 -340q121 -158 316 -158q154 0 262 86q87 70 116 158l-24 14q-20 -35 -70 -65q-59 -39 -141 -39q-127 0 -195 133q-55 102 -59 248q227 12 330 47q164 55 164 188q0 121 -113 191q-96 55 -225 55q-205 0 -334 -149q-133 -150 -133 -369zM244 1085 l30 -22l97 88q80 74 82 76q53 49 67 63q25 -25 152 -141l94 -86l31 22l-197 322h-160zM381 537q2 207 55 325q45 102 99 103q37 0 65.5 -52.5t28.5 -130.5q0 -127 -55.5 -181t-192.5 -64z" />
<glyph unicode="&#xeb;" horiz-adv-x="948" d="M72 473q0 -201 106 -340q121 -158 316 -158q154 0 262 86q87 70 116 158l-24 14q-20 -35 -70 -65q-59 -39 -141 -39q-127 0 -195 133q-55 102 -59 248q227 12 330 47q164 55 164 188q0 121 -113 191q-96 55 -225 55q-205 0 -334 -149q-133 -150 -133 -369zM188 1235 q0 -59 41 -100t100.5 -41t100.5 41t41 100t-41 100t-100.5 41t-100.5 -41t-41 -100zM381 537q2 207 55 325q45 102 99 103q37 0 65.5 -52.5t28.5 -130.5q0 -127 -55.5 -181t-192.5 -64zM528 1235q0 -59 41 -100t100.5 -41t100.5 41t41 100t-41 100t-100.5 41t-100.5 -41 t-41 -100z" />
<glyph unicode="&#xec;" horiz-adv-x="641" d="M51 0v27h123v913h-123v27h416v-940h123v-27h-539zM72 1399q0 -6 2 -12.5t3 -11.5t7 -12t9 -11t12.5 -12.5t14.5 -14.5t17.5 -17.5t20.5 -19.5l100 -96l92 -90q12 -12 22.5 -21.5t15.5 -14.5l5 -5q7 0 27 20q-2 0 -17 29l-36 61l-97 164l-43 70q-4 6 -12 20.5t-12 20.5 t-11.5 14t-15.5 11.5t-20 3.5q-68 0 -82 -64q-2 -6 -2 -12z" />
<glyph unicode="&#xed;" horiz-adv-x="641" d="M51 0h539v27h-123v940h-416v-27h123v-913h-123v-27zM186 1081q20 -20 27 -20l5 5q5 5 15.5 14.5t22.5 21.5l92 90l101 96l20 19q12 12 17.5 18t14.5 14.5t12 12.5t9 11t7 12t3.5 11.5t2.5 12.5t-3 12q-14 63 -79 64q-12 0 -20.5 -3.5t-16.5 -11.5t-12.5 -13t-12.5 -20.5 t-12 -21.5q-35 -57 -41 -70l-98 -164l-37 -61q-15 -29 -17 -29z" />
<glyph unicode="&#xee;" horiz-adv-x="641" d="M18 1085l31 -22l96 88q80 74 82 76l68 63q25 -25 151 -141l95 -86l30 22l-196 322h-160zM51 0v27h123v913h-123v27h416v-940h123v-27h-539z" />
<glyph unicode="&#xef;" horiz-adv-x="647" d="M-10 1235q0 -59 41 -100t100 -41t100 41t41 100t-41 100t-100 41t-100 -41t-41 -100zM57 0v27h123v913h-123v27h416v-940h123v-27h-539zM330 1235q0 -59 41 -100t100 -41t100 41t41 100t-41 100t-100 41t-100 -41t-41 -100z" />
<glyph unicode="&#xf0;" horiz-adv-x="1146" d="M197 127q137 -152 376 -152q270 0 396 181q106 154 106 438q0 217 -92 414q-98 204 -264 335l201 111l-17 27l-211 -119q-206 151 -470 151h-3v-28q164 -51 295 -221l-262 -146l16 -26l264 147q98 -131 160 -305q-78 55 -200 55q-139 0 -259 -108q-161 -142 -161 -399 q0 -218 125 -355zM391 481q0 178 66 310q66 129 170 129q47 0 80 -33q18 -70 28 -152q14 -119 15 -217q0 -186 -25 -309q-41 -207 -154 -207q-76 0 -120 96q-35 74 -50 203q-10 90 -10 180z" />
<glyph unicode="&#xf1;" horiz-adv-x="1236" d="M51 0v27h123v913h-123v27h406q0 -51 4 -105v-22q59 57 125 94q92 49 184 49q293 0 293 -319v-637h123v-27h-527v27h111v610q0 129 -28.5 189.5t-114.5 60.5q-47 0 -101 -33q-39 -27 -59 -55v-772h111v-27h-527zM291 1186q0 -35 8 -62h33q-4 37 12 60.5t51 23.5 q55 0 157.5 -43t168.5 -43q74 0 124 49.5t50 116.5q0 37 -8 62h-33q1 -10 1 -19q0 -65 -64 -65q-59 0 -157.5 43t-168.5 43q-74 0 -124 -47.5t-50 -118.5z" />
<glyph unicode="&#xf2;" horiz-adv-x="1157" d="M72 487q0 -231 123 -366q133 -145 374 -146q248 0 387 154q129 142 129 373q0 223 -139 356t-366 133q-229 0 -369 -143q-139 -139 -139 -361zM326 1399q0 -6 2 -12.5t3 -11.5t7 -12t9 -11t12.5 -12.5t14.5 -14.5t17 -18l21 -19l100 -96l92 -90q12 -12 22.5 -21.5 t15.5 -14.5l5 -5q7 0 27 20q-2 0 -17 29l-36 61l-97 164l-43 70q-4 6 -12 20.5t-12 20.5t-11.5 14t-15.5 11.5t-20 3.5q-68 0 -82 -64q-2 -6 -2 -12zM389 508q0 217 49 336q46 119 140 119q102 0 145 -121q41 -127 41 -334q0 -233 -39 -356q-45 -147 -143 -148 q-102 0 -152 146q-41 121 -41 358z" />
<glyph unicode="&#xf3;" horiz-adv-x="1157" d="M72 487q0 -231 123 -366q133 -145 374 -146q248 0 387 154q129 142 129 373q0 223 -139 356t-366 133q-229 0 -369 -143q-139 -139 -139 -361zM389 508q0 217 49 336q46 119 140 119q102 0 145 -121q41 -127 41 -334q0 -233 -39 -356q-45 -147 -143 -148q-102 0 -152 146 q-41 121 -41 358zM514 1081q20 -20 27 -20l5 5l15 14l23 22l92 90l100 96q8 8 20.5 19.5t17.5 17.5t14.5 14.5t12.5 12.5t9 11t7 12t3 11.5t2 12.5t-2 12q-14 63 -80 64q-12 0 -20 -3.5t-16.5 -11.5t-12.5 -13t-12 -20.5t-12 -21.5q-35 -57 -41 -70l-99 -164l-37 -61 q-14 -29 -16 -29z" />
<glyph unicode="&#xf4;" horiz-adv-x="1157" d="M72 487q0 -231 123 -366q133 -145 374 -146q248 0 387 154q129 142 129 373q0 223 -139 356t-366 133q-229 0 -369 -143q-139 -139 -139 -361zM285 1085l30 -22l97 88q80 74 82 76q53 49 67 63q25 -25 152 -141l94 -86l31 22l-197 322h-160zM389 508q0 217 49 336 q46 119 140 119q102 0 145 -121q41 -127 41 -334q0 -233 -39 -356q-45 -147 -143 -148q-102 0 -152 146q-41 121 -41 358z" />
<glyph unicode="&#xf5;" horiz-adv-x="1157" d="M72 487q0 -231 123 -366q133 -145 374 -146q248 0 387 154q129 142 129 373q0 223 -139 356t-366 133q-229 0 -369 -143q-139 -139 -139 -361zM291 1186q0 -35 8 -62h33q-4 37 12 60.5t51 23.5q55 0 157.5 -43t168.5 -43q74 0 124 49.5t50 116.5q0 37 -8 62h-33 q1 -10 1 -19q0 -65 -64 -65q-59 0 -157.5 43t-168.5 43q-74 0 -124 -47.5t-50 -118.5zM389 508q0 217 49 336q46 119 140 119q102 0 145 -121q41 -127 41 -334q0 -233 -39 -356q-45 -147 -143 -148q-102 0 -152 146q-41 121 -41 358z" />
<glyph unicode="&#xf6;" horiz-adv-x="1157" d="M72 487q0 -231 123 -366q133 -145 374 -146q248 0 387 154q129 142 129 373q0 223 -139 356t-366 133q-229 0 -369 -143q-139 -139 -139 -361zM270 1235q0 -59 41 -100t100.5 -41t100.5 41t41 100t-41 100t-100.5 41t-100.5 -41t-41 -100zM389 508q0 217 49 336 q46 119 140 119q102 0 145 -121q41 -127 41 -334q0 -233 -39 -356q-45 -147 -143 -148q-102 0 -152 146q-41 121 -41 358zM610 1235q0 -59 41 -100t100.5 -41t100.5 41t41 100t-41 100t-100.5 41t-100.5 -41t-41 -100z" />
<glyph unicode="&#xf7;" horiz-adv-x="997" d="M41 485h915v29h-915v-29zM377 219q0 -51 36 -87t87 -36t87 36t36 87t-36 87t-87 36t-87 -36t-36 -87zM377 780q0 -51 36 -87t87 -36t87 36t36 87t-36 87t-87 36t-87 -36t-36 -87z" />
<glyph unicode="&#xf8;" horiz-adv-x="1157" d="M72 487q0 -231 121 -364l-119 -119l20 -20l119 116q129 -125 356 -125q248 0 387 154q129 141 129 373q0 211 -127 342l121 119l-20 20l-121 -119q-137 127 -358 127q-229 0 -369 -143q-139 -139 -139 -361zM389 508q0 217 49 336q45 119 140 119q143 0 178 -281 l-359 -356q-8 74 -8 182zM401 289l357 356q6 -63 6 -137q0 -233 -39 -356q-45 -147 -143 -148q-144 0 -181 285z" />
<glyph unicode="&#xf9;" horiz-adv-x="1226" d="M31 940v27h415v-639q0 -104 21 -164q29 -96 117 -96q53 0 104 41q43 35 62 59v772h-111v27h403v-940h123v-27h-405q-4 94 -4 104v23q-43 -49 -123 -92q-94 -51 -187 -51q-293 0 -292 319v637h-123zM305 1399q0 -6 2 -12.5t3 -11.5t7.5 -12t9.5 -11t12 -12.5t14 -14.5 t17.5 -17.5t20.5 -19.5l101 -96l92 -90l22 -22l16 -14l5 -5q6 0 26 20q-2 0 -16 29l-37 61q-23 37 -96 164l-43 70q-4 6 -12.5 20.5t-12.5 20.5t-11 14t-15.5 11.5t-20.5 3.5q-68 0 -82 -64q-2 -6 -2 -12z" />
<glyph unicode="&#xfa;" horiz-adv-x="1226" d="M31 940h123v-637q0 -319 292 -319q92 0 187 51q80 43 123 92v-23q0 -10 4 -104h405v27h-123v940h-403v-27h111v-772q-18 -25 -62 -59q-51 -41 -104 -41q-88 0 -117 96q-20 59 -21 164v639h-415v-27zM514 1081q20 -20 27 -20l5 5l15 14l23 22l92 90l100 96q8 8 20.5 19.5 t17.5 17.5t14.5 14.5t12.5 12.5t9 11t7 12t3 11.5t2 12.5t-2 12q-14 63 -80 64q-12 0 -20 -3.5t-16.5 -11.5t-12.5 -13t-12 -20.5t-12 -21.5q-35 -57 -41 -70l-99 -164l-37 -61q-14 -29 -16 -29z" />
<glyph unicode="&#xfb;" horiz-adv-x="1226" d="M31 940v27h415v-639q0 -104 21 -164q29 -96 117 -96q53 0 104 41q43 35 62 59v772h-111v27h403v-940h123v-27h-405q-4 94 -4 104v23q-43 -49 -123 -92q-94 -51 -187 -51q-293 0 -292 319v637h-123zM326 1085l30 -22l97 88q80 74 82 76q53 49 67 63q25 -25 152 -141 l94 -86l31 22l-197 322h-160z" />
<glyph unicode="&#xfc;" horiz-adv-x="1226" d="M31 940v27h415v-639q0 -104 21 -164q29 -96 117 -96q53 0 104 41q43 35 62 59v772h-111v27h403v-940h123v-27h-405q-4 94 -4 104v23q-43 -49 -123 -92q-94 -51 -187 -51q-293 0 -292 319v637h-123zM250 1235q0 -59 41 -100t100.5 -41t100 41t40.5 100t-40.5 100t-100 41 t-100.5 -41t-41 -100zM590 1235q0 -59 41 -100t100.5 -41t100 41t40.5 100t-40.5 100t-100 41t-100.5 -41t-41 -100z" />
<glyph unicode="&#xfd;" horiz-adv-x="1097" d="M10 940h111l217 -494l80 -184l71 -164l30 -66q18 -40 24 -55q23 -53 24 -57q-68 -158 -118 -223q-55 -70 -91 -92q29 29 29 78q0 53 -37 88.5t-86 35.5q-51 0 -87 -37.5t-36 -86.5q0 -53 41 -88t101 -35q57 0 102 32q78 53 158 215q70 139 121 273l139 371 q119 330 131 368l43 121h110v27h-266v-27h123l-225 -633l-277 633h123v27h-555v-27zM610 1081q20 -20 27 -20l5 5q5 5 15.5 14.5t22.5 21.5l92 90l100 96q8 8 20.5 19.5t17.5 17.5t14.5 14.5t12.5 12.5t9 11t7 12t3 11.5t2 12.5t-2 12q-14 63 -79 64q-12 0 -20.5 -3.5 t-17 -11.5t-12.5 -13t-12 -20.5t-12 -21.5l-41 -70l-98 -164l-37 -61z" />
<glyph unicode="&#xfe;" horiz-adv-x="1212" d="M51 -485v-27h539v27h-123v559q16 -31 80 -62q74 -37 164 -37q152 0 274 111q156 141 156 393q0 254 -152 398q-120 114 -267 114h-3q-84 0 -150.5 -31.5t-101.5 -72.5v626h-416v-26h123v-1972h-123zM467 115v727q23 29 62.5 53.5t82.5 24.5q96 0 152 -125 q55 -123 55 -299q0 -170 -41 -281q-57 -158 -188 -158q-80 1 -123 58z" />
<glyph unicode="&#xff;" horiz-adv-x="1402" d="M20 1407v27h609v-27h-123l371 -631l360 631h-123v27h268v-27h-110l-383 -670v-710h123v-27h-572v27h123v641l-432 739h-111zM461 1677.5q0 -59.5 41 -100.5t100.5 -41t100 41t40.5 100.5t-40.5 100.5t-100 41t-100.5 -41t-41 -100.5zM801 1677.5q0 -59.5 41 -100.5 t100 -41t100 41t41 100.5t-41 100.5t-100 41t-100 -41t-41 -100.5z" />
<glyph unicode="&#x152;" horiz-adv-x="2043" d="M82 741q0 -379 231 -573q205 -176 572 -176q33 0 118.5 4t167.5 4h801v395h-28q-12 -219 -132 -303q-94 -63 -296 -63h-181v680h95q113 0 151 -7q197 -18 207 -229h27v469h-27q-16 -178 -209 -199q-31 -6 -143 -6h-101v668h133q209 0 293 -43q117 -63 137 -262h29v334 h-837q-63 0 -117 4q-27 2 -74 2q-346 0 -571 -172q-246 -193 -246 -527zM449 719q0 426 165 586q111 104 330 104q33 0 68 -2v-1382q-44 -4 -85 -4q-213 0 -325 118q-153 163 -153 575v5z" />
<glyph unicode="&#x153;" horiz-adv-x="1622" d="M72 487q0 -233 121 -366q133 -145 374 -146q205 0 338 107q119 -109 272.5 -109t262.5 86q88 70 116 158l-24 14q-20 -35 -70 -65q-59 -39 -141 -39q-127 0 -195 133q-55 102 -59 248q227 12 330 47q164 55 164 188q0 121 -113 191q-96 55 -225 55h-3q-170 0 -290 -108 q-131 110 -334 110h-4q-231 0 -375 -143q-145 -141 -145 -361zM389 508q0 217 49 336q46 119 140 119q102 0 145 -121q41 -127 41 -334q0 -229 -43 -356q-49 -147 -143 -148q-102 0 -150 146q-39 123 -39 358zM1065 535q2 207 55 325q45 102 99 103q37 0 65.5 -52.5 t28.5 -130.5q0 -127 -55.5 -181t-192.5 -64z" />
<glyph unicode="&#x178;" horiz-adv-x="1097" d="M10 940h111l217 -494l80 -184l71 -164l30 -66q18 -40 24 -55q23 -53 24 -57q-68 -158 -118 -223q-55 -70 -91 -92q29 29 29 78q0 53 -37 88.5t-86 35.5q-51 0 -87 -37.5t-36 -86.5q0 -53 41 -88t101 -35q57 0 102 32q78 53 158 215q70 139 121 273l139 371 q119 330 131 368l43 121h110v27h-266v-27h123l-225 -633l-277 633h123v27h-555v-27zM291 1235q0 -59 41 -100t100.5 -41t100 41t40.5 100t-40.5 100t-100 41t-100.5 -41t-41 -100zM631 1235q0 -59 41 -100t100 -41t100 41t41 100t-41 100t-100 41t-100 -41t-41 -100z" />
<glyph unicode="&#x2c6;" horiz-adv-x="593" d="M20 1159l31 -22l96 88q80 74 82 75q53 49 68 64q23 -25 152 -141l94 -86l30 22l-196 322h-160z" />
<glyph unicode="&#x2dc;" horiz-adv-x="645" d="M20 1348q1 -35 9 -62h32q-4 37 12.5 60.5t51.5 23.5q55 0 157.5 -43t168.5 -43q74 0 124 49t50 117q0 37 -9 61h-32q1 -10 1 -19q0 -65 -65 -65q-59 0 -157.5 43t-167.5 43q-74 0 -124.5 -47t-50.5 -118z" />
<glyph unicode="&#x2013;" horiz-adv-x="1077" d="M41 444h995v27h-995v-27z" />
<glyph unicode="&#x2014;" horiz-adv-x="1695" d="M41 444h1614v27h-1614v-27z" />
<glyph unicode="&#x2018;" horiz-adv-x="319" d="M-10 1321q0 -102 76 -178q72 -72 176 -94l4 26q-74 14 -128.5 59.5t-70.5 114.5q45 -49 119 -49q61 0 107 45t46 113q0 66 -45 110.5t-108 44.5q-68 0 -117 -47q-59 -55 -59 -145z" />
<glyph unicode="&#x2019;" horiz-adv-x="319" d="M0 1358q0 -68 46 -113t108 -45q74 0 118 49q-16 -70 -70.5 -114.5t-127.5 -59.5l4 -26q104 23 176 94q76 76 76 178q0 90 -60 145q-48 47 -116 47q-63 0 -108.5 -45t-45.5 -110z" />
<glyph unicode="&#x201a;" horiz-adv-x="411" d="M41 158q0 -68 46 -113t108 -45q74 0 118 49q-16 -70 -70.5 -115t-127.5 -59l4 -27q104 23 176 95q76 76 76 178q0 90 -60 145q-48 47 -116 47q-63 0 -108.5 -45t-45.5 -110z" />
<glyph unicode="&#x201c;" horiz-adv-x="722" d="M-10 1321q0 -102 76 -178q72 -72 176 -94l4 26q-74 14 -128.5 59.5t-70.5 114.5q45 -49 119 -49q61 0 107 45t46 113q0 66 -45 110.5t-108 44.5q-68 0 -117 -47q-59 -55 -59 -145zM393 1321q0 -102 76 -178q72 -72 176 -94l4 26q-74 14 -128 59.5t-70 114.5 q45 -49 118 -49q61 0 107.5 45t46.5 113q0 66 -45.5 110.5t-108.5 44.5q-68 0 -116 -47q-59 -55 -60 -145z" />
<glyph unicode="&#x201d;" horiz-adv-x="722" d="M0 1358q0 -68 46 -113t108 -45q74 0 118 49q-16 -70 -70.5 -114.5t-127.5 -59.5l4 -26q104 23 176 94q76 76 76 178q0 90 -60 145q-48 47 -116 47q-63 0 -108.5 -45t-45.5 -110zM403 1358q0 -68 46.5 -113t107.5 -45q74 0 119 49q-16 -70 -70.5 -114.5t-128.5 -59.5 l4 -26q104 23 176 94q76 76 76 178q0 90 -59 145q-49 47 -117 47q-63 0 -108.5 -45t-45.5 -110z" />
<glyph unicode="&#x201e;" horiz-adv-x="815" d="M41 158q0 -68 46 -113t108 -45q74 0 118 49q-16 -70 -70.5 -115t-127.5 -59l4 -27q104 23 176 95q76 76 76 178q0 90 -60 145q-48 47 -116 47q-63 0 -108.5 -45t-45.5 -110zM444 158q0 -68 46.5 -113t107.5 -45q74 0 119 49q-16 -70 -70.5 -115t-128.5 -59l4 -27 q104 23 176 95q76 76 76 178q0 90 -59 145q-49 47 -117 47q-63 0 -108.5 -45t-45.5 -110z" />
<glyph unicode="&#x2022;" horiz-adv-x="557" d="M20 708.5q0 -106.5 76 -182t182.5 -75.5t182.5 75.5t76 182t-76 182.5t-182.5 76t-182.5 -76t-76 -182.5z" />
<glyph unicode="&#x2026;" horiz-adv-x="1329" d="M10 156q0 -63 46 -109.5t111.5 -46.5t111 46.5t45.5 109.5q0 66 -45.5 111.5t-111 45.5t-111.5 -46t-46 -111zM508 156q0 -63 46 -109.5t111.5 -46.5t110.5 46.5t45 109.5q0 66 -45 111.5t-110.5 45.5t-111.5 -46t-46 -111zM1006 156q0 -63 46 -109.5t111.5 -46.5 t110.5 46.5t45 109.5q0 66 -45 111.5t-110.5 45.5t-111.5 -46t-46 -111z" />
<glyph unicode="&#x2039;" horiz-adv-x="475" d="M43 487q0 -27 39 -55q6 -6 43 -35q10 -10 55 -45q16 -14 64 -53l168 -135l22 22q-59 74 -92 119l-135 182l63 84l74 99q66 84 90 118l-22 23l-168 -135l-64 -51l-30 -25q-19 -16 -25 -22q-37 -29 -43 -35q-41 -31 -39 -56z" />
<glyph unicode="&#x203a;" horiz-adv-x="434" d="M20 788q55 -78 164 -217l64 -84q-6 -10 -15.5 -22t-22.5 -31l-22 -31l-168 -217l23 -22l289 233l29 25q16 12 24 19.5t10 9.5q18 19 18 37t-18 36q-2 2 -10 9.5t-23.5 19.5t-29.5 25l-289 233z" />
<glyph unicode="&#x20ac;" horiz-adv-x="1323" d="M-100 842h123v-2q-12 -77 -13 -166h-102v-29h102q12 -309 219 -493.5t535 -184.5q111 0 235 29q121 29 220 82v409h-29q-18 -229 -98 -344q-106 -147 -322 -147q-207 0 -303 163t-100 486h467v29h-467q0 82 6 168h452v28h-450q25 250 114 392q113 178 330 178 q174 0 268.5 -96.5t114.5 -307.5h29v322q-180 110 -424 110h-4q-295 0 -504 -155q-213 -158 -270 -443h-129v-28z" />
<glyph unicode="&#x2122;" horiz-adv-x="3081" d="M41 1100h29q14 195 139 262q82 43 291 43v-1378h-123v-27h569v27h-123v1378q207 0 291 -45q117 -66 137 -260h29v334h-1239v-334zM1371 0h277v27h-123v1374h2l512 -1421h31l507 1421h3v-1374h-123v-27h573v27h-123v1380h123v27h-473l-342 -957l-352 957h-492v-27h123 v-1380h-123v-27z" />
<glyph unicode="&#xe000;" horiz-adv-x="965" d="M0 965h965v-965h-965v965z" />
<glyph unicode="&#xfb01;" horiz-adv-x="1218" d="M41 0h539v27h-123v911h123v29h-123v166q0 162 32 241q45 106 154 107q49 0 91 -33t50 -80q-33 43 -94 43q-49 0 -85 -35t-36 -84q0 -53 35 -87t84 -34q63 0 100 52q35 47 35 104q0 94 -70.5 151.5t-189.5 57.5q-215 0 -315 -147q-84 -123 -84 -338v-84h-123v-29h123v-911 h-123v-27zM649 0h539v27h-123v940h-416v-27h123v-913h-123v-27z" />
<glyph unicode="&#xfb02;" horiz-adv-x="1245" d="M41 0h539v27h-123v913h176v27h-176v209q0 172 61 251q43 59 115 60h4q114 0 172 -107v-1353h-123v-27h539v27h-123v1460h80v26h-549q-283 0 -391 -170q-78 -121 -78 -376h-123v-27h123v-913h-123v-27z" />
<glyph unicode="&#xfb03;" horiz-adv-x="2081" d="M51 0h539v27h-123v911h123v29h-123v166q0 162 33 241q45 106 153 107q49 0 91 -33t51 -80q-33 43 -95 43q-49 0 -84.5 -35t-35.5 -84q0 -53 34.5 -87t83.5 -34q63 0 101 52q35 47 35 104q0 94 -71 151.5t-190 57.5q-215 0 -315 -147q-84 -123 -84 -338v-84h-123v-29h123 v-911h-123v-27zM771 0h539v27h-123v911h123v29h-123v166q0 162 33 241q45 106 153 107q49 0 91 -33t51 -80q-33 43 -95 43q-49 0 -84.5 -35t-35.5 -84q0 -53 34.5 -87t83.5 -34q63 0 101 52q35 47 35 104q0 94 -71 151.5t-190 57.5q-215 0 -315 -147q-84 -123 -84 -338v-84 h-123v-29h123v-911h-123v-27zM1491 0v27h123v913h-123v27h416v-940h123v-27h-539zM1604 1282q0 -63 46 -109.5t111.5 -46.5t110.5 46.5t45 109.5q0 66 -45 112t-110.5 46t-111.5 -46t-46 -112z" />
<glyph unicode="&#xfb04;" horiz-adv-x="2081" d="M51 0h539v27h-123v911h123v29h-123v166q0 162 33 241q45 106 153 107q49 0 91 -33t51 -80q-33 43 -95 43q-49 0 -84.5 -35t-35.5 -84q0 -53 34.5 -87t83.5 -34q63 0 101 52q35 47 35 104q0 94 -71 151.5t-190 57.5q-215 0 -315 -147q-84 -123 -84 -338v-84h-123v-29h123 v-911h-123v-27zM771 0h539v27h-123v911h123v29h-123v166q0 162 33 241q45 106 153 107q49 0 91 -33t51 -80q-33 43 -95 43q-49 0 -84.5 -35t-35.5 -84q0 -53 34.5 -87t83.5 -34q63 0 101 52q35 47 35 104q0 94 -71 151.5t-190 57.5q-215 0 -315 -147q-84 -123 -84 -338v-84 h-123v-29h123v-911h-123v-27zM1491 0h539v27h-123v1486h-416v-26h123v-1460h-123v-27z" />
</font>
</defs>
</svg>
